<mxfile host="app.diagrams.net" modified="2024-04-16T20:59:23.834Z" agent="Mozilla/5.0 (Windows NT 10.0; Win64; x64) AppleWebKit/537.36 (KHTML, like Gecko) Chrome/123.0.0.0 Safari/537.36" etag="VHgncM71m_cijAW-Wxoe" version="24.2.5" type="github">
  <diagram name="PÃ¡gina-1" id="Exn9129zInlfy8kHegNU">
    <mxGraphModel dx="2427" dy="1778" grid="1" gridSize="10" guides="1" tooltips="1" connect="1" arrows="1" fold="1" page="1" pageScale="1" pageWidth="827" pageHeight="1169" math="0" shadow="0">
      <root>
        <mxCell id="0" />
        <mxCell id="1" parent="0" />
        <mxCell id="2b92ZgBnTiT7di_fK2Un-1" value="" style="shape=image;verticalLabelPosition=bottom;labelBackgroundColor=default;verticalAlign=top;aspect=fixed;imageAspect=0;image=data:image/png,iVBORw0KGgoAAAANSUhEUgAABFkAAACrCAYAAAC9iEM/AAAAAXNSR0IArs4c6QAAAARnQU1BAACxjwv8YQUAAAAJcEhZcwAADsMAAA7DAcdvqGQAAICWSURBVHhe7b2/ayNds+9bvje8+YsNng2CSf0G4rxgCZ5E4OxywBZ+YOToYc6OnBknB3t8uf7BSYwzR/uYJ5IHHiMPbE5mUDJgGfZFcLbTATHbAzb7n9Ct7/rRvbp7tay21O2WVJ+hx1Kr1Fo/alXVqrVaWhoyNIf8x3/8B/3TP/2TefZ+lKUcwutIX80/0sf5sMjtKjqVDWmvfFiEdpU6zgdiA4pB2rkYpJ3HYxFt2/9h/gqCIAiCIAiCIAiCIAgTsMTHXO5kEQRBEARBEARBEARByJufP3+aR0Rze7vQ0tISlaFqZSmH8DrSV/OP9HE+LHK7ik5lQ9orHxahXaWO84HYgGKQdi4GaefxWMR2ktuFBEEQBEEQBEEQBEEQpoAkWQRBEARBEARBEARBEKaAJFkEQRAEQRCK5tc1NZfOqGeeCoIgCIIwH4yRZOnR2e/X9GKeWV6+NunswTyJEbz2cEbNr/F3vs7L1+sSBh3+dlhUkn3sb5/eSZOuf5knQqH0TpbUPZD6sIH8C13/HgvqEeibvgvHtUdOCAhs1BtsHNo47Bd7+MbJ631gr/UWO1seenQ9qvyvtjHbHtWGs6Sv2f1qMZTRz1n9mI5Nio+/Its73r8v3ztU7R1QzTzPm+n5YzvmzLGQsdErduudGE+/F9C/q4Smo7N8vM1vTtcezT9v8Snctl91y76/T5wyHM+4OmiPs4e3+d5onI/jLTo5x+0d8Jb2nXysj5FkqdHBXy1aNs8ysX5AnU9Z3/lC3W8D81iYHSbQE2HqwPCef3xWXzKlDrYO9YUMhPPAsVFvsHHLnzqmX+7pdLtNz+pxh1qrRiADgx9E7afhG+xsiXjoUsc8fBO/BtQ/vuc2LG6yOjlltZclLFegH8vU+muyPkYAufKtacacHoNUKy7RgrF/sG6eMPHnswESLHX+Y9twSM+bHVpZNP8yqd3KgfH1e/KxNJMoP2Hb5pma31ayj/0p2iMhhV/cxhzbgNm0kSPgmNHqX3v7lO6NPh6sv9X3bqkYMNDrt8T689zekzCFsZ5tJ0uQgWvSlekQneGxGbTYKomzAulm191zzd/D8zB2L193aefm0CjJiGuPAz7fuX6QtXYziU7dmid8BJ+FQELLhEZ4QFe2POZ9YR10+Xz1LCOR7KdTlzNuA3ve1nu8OoV6EsqfUVe/yLh9WVxQu5j0qPvYpkt34g3DLkmwqRCxUYGNg/6f8WF03NoVNSGxej/Khr1m69zr6Iw6xln96JZ2PkDeN75wDvYp+r5yjUWuV+2Qblsm2HVt80ly3SBpi/j9H3bo9qiu5dNs+7h+oDCgL2H5dDnS/Krbn6xjge329afVHafv8TmxVVzb5972TJTLXMOc87Zlbrj6oetvdf81X5XUHyRHq3QfsYMc2D61qX/B9UPdghggRU/sNZ12wGdHPndEv6hyB31pX3P71zdeJyMsm+uPuV3NZ6fZBV3/ZB0QePavnxPJovu1HboybTFuHIFzYfzklikP3UJdnPHDfRmUKRj/bhnsWMKY4HLa80rW1UsW8Y2VwnlFv916nPwv1Ra638M6K/03Oj66v/R527ezCU+c9k7p8C69vpF+VePE7XetT3h3Wru41/T5s/nFsRsnodXx2tKIb8KY4/fuaZ+OfkAboj3nv40xPjFOY3YqxT6njr31z9SmDnWVrX57e7s+Dod3TLzB1kXe541LHDvlyuJ8IJu0XaG9dplED6cz1jN8Jws+kEzW7ZIqj7fqrJpwrJnscK9KO3+GFw/gwu862fX9H8YxMbdr++a92tgtf7rU2T12FMTX7mza1fh9GnywDTs+t2Q+lx0Nfetyk6Me/SDzhxWYXaM8t48VulRl4Xp86FLDKZfipk+VC/0+G1AoNi/5XIdalKxnOeH6bOgyqmyqHZDMITX0eeuYR/Sdl4h8g+hIn47oiVpdyd6XwphgZX+tIgmVnHBtVKSNPfahd1JXExI9pprU2fM7JYyPUbYO1wlWjp8qdM6OhzCxOcYqRoca39PG1y1V9/T77o8PqctlKtdY5EkA29gtNWlzfQzb5o/noWMHXlukJxFbWKH8Qum2PYMfKJYx/Gqkjw4D2/183adzLvMo3WlCH+FLfxnfhsP6NLRniydl5jOqrStHD0b4yURb5omrH+aUweurgvqwvlM95qsG/K/C/2KsVqhqHgYxQNAe6TppY5eD9RcaVBADmM/1jbNYbJTev8nxOhEp/thnT16wmhmUSe+O89XhZdCnaiXpXSoft8yjjHGEjZ84BlExl3lfPrplxw/HPY912iV8dhgDpdrrGx5LaixY2bjdKoMteV2/6aZK+6jbl/9iTkR14fJjnzWQGdFf8Zh9puG2UVqbUt/eXdiveqdkuj1KtMur9mh+ifikDTXqGL8t1bdM6nN6R+8ytS60T4/v0F2cNvb7+fHitmWqrOHvFNo7h7gJ7wsS8r64BCTsrbZT1jbbNkm114bJ9HA6Y338JAsmbtvWgC9TYzN0qKcbXGKA1fIv5rELv/f2ZodWTJanzo6+P9BNEbzXGjuHwY9blUXS2aE6N1CfBolM1Wi2Nht6IuQ6mu0mNczW/OVKlW5/6K3/gSw4brA5ZdxyOe+rbZwGdQgCDk89ywlchc3krdAOK7Ql7I8GDy922iP6zgvkgwl+jRrH6oEiuDYCge3sfSmMCXT9cZAIUHsPfpMsTAmvfdii5m/GPqBfbhAIJxlt63gS98gOoqbH4BJ2bniu4x9fp9QwDsKdBJVyLMLHcM3rxtastLhNjG1WjGOLXrPtY/iBQkGdX/OrKf25/FuTiMucrjtVqtj6rVeoa1d0ajrUUFg/x/8fxG+3ytKW70DCV+FxUB+t71H9QDt7xp/SO00YA8B3cTv+W7pObn2009llqq12g1Uw1+8HZfTERlnG65vx+uMUe7Laon0ODrUehSuX8TpAF3wxAPTQkuibEWM3iJ/W+T129RZl0menTNi+oW22kxKQYq+DseDKOpTBloyh3xTYGgt0IWpTlNaN6K+wb5Mx+8yBetq/nvrW/uCJ2wejk8HquR9vu4y0R/MLbEE4rhs86hilh0lbuvxpn02TbWPfboSQxWnjpJ8HQf0jPiOOtu/0PHl75xU32fg4NS7x2tvQNmPnpE4IjY6vy6CH4ydZYhVwHWqg1L+uCV+g+Z/6WQgKEnz3gD7G+Q4BFBRZJPsenV0yL07CTbhzA6syYbD0Ck79e3eHydUcTz1LCfrpzqw0IVO4bc4zQSYRq1oYyFn7DvLBBN8MdkNwbQQCN+EEQJg2HEyv7UQzzA9nVK91OUiA0TpUWWALMrjkJhiFt+HYldA+3FLnu7WPbNwTQa5mtK3TjuY0yLLjSN4fmmV8lXIswsewG7SrAepwJ6bj2KIstv2tfmCaoM4pftXfR+HuBjVuuczj+MneyS6R2WWF1ZcAx1bjVpVIYFGG9hlBwlfh8RFsnCYSYCmQxOrH7lfvqdvNqnt6V9ptsHuiR90jbvN/vKKTCr7GHgUrcvfOwsKo2KiQMej1x+n2pPbFPtc7ef4/PhevwwsHq1W1hVqfBtgqXX9s02czMUj0zRhjF9fo2h22T+0weC2U8ex1glKMldf1O4mOB1yboizQOLZ25mGbd3GoJ0xp9V1tUcc8t6vnmRhpj+aXSLJDTWoZ+DqvLUWC3zxPuxtiFHPZxkk/D8byGQ9XtENNaqT6rgnbewq2zsbHqXGJl9swqYTbfdQtOaPtdRn0MMPtQtg6Q0H25/xRu0BsnceXR6nsz4cONS9a9Df1igMbqsvNTpAlxjF6SxeyTGc0cK+tjtGZ5PFAPbgBTXYaXxIW+e6KUWyzkTVlqdN9YguRr56lBEqG7zBQZdylAQdcVnlPqavPm75cztp3EfldDrA06haLR/uZ2J76ti8REsYDwTK2vNo+W+LGvg8CaQTQ4WvpYyDM9qpjpu93nTbaRkVaZLtKgz3dVtY+RNrajikj7hKxo+qIXhvXCbPsfEQC6Wzjq4xjETsxml8rER+Dw66mK161RVls+wR+YKqk+1V/H3Egchct82u6AyofKajr0h1fBRPvSHuuUGfz0knOlKV9NFo/oss3Xl/FEyHblj4fjRUwbHEOdUjfKmHlttYGtBucR5tH+wdHRCcVCOzCVfAulwyBXaRfYrFRYWMwxR977QmSKPY5l6l//Zn+b08dltEmaru6ldX68ezcPvmWOAKrosHumr0BB8Jh8rEoxrXXltBulWOsvKbfPlxd2P1R1cmtMfprJgniXhwr7K9N26TU1/3uwpVWlfZNv/rsUYIx7NG8ErF9e4HV8drSyHdZ4FaUP4wltN+zNoq5bWO/n/f7DHwvn2k/HBcVY4tzaG91zclsHd5n+8kblxi5OBGfxUW+/8Le+RV7PQ09nHSsLw2RtplDUNEyVK0s5RgHKNlVZXG/WXqW+kp4G/n1cY/Ofh/Q5/j3tCwIizx2iqs7dptcUWXGf9FiGu2Vi6/CF/0NPs/sin1ZxmCeccQi2Jmi64hEAnYQob/Qd/iemrzHwCL0YxmQdi6G6bbzfPh5H4uojxl2sgiCIAiCIAiCMA/U/mhT36wQu7s1BEEQhMnA/SyS5hQEQRAEQRAEQRAEQXgDP3/+NI9IbhfKG9muNztIX80/0sf5sMjtKjqVDWmvfFiEdpU6zgdiA4pB2rkYpJ3HYxHbSW4XEgRBEARBEARBEARBmAKSZBEEQRAEQRAEQRAEQZgCkmQRBEEQBEEQBEEQBEGYAoUlWfAzce/3O/v4SawlWvr9OvIb3Oo38GPnIuAnHb/iVfw86wg5QZgCkd9pD36v3uiuOn/GmmjOurJLTbr+hbOsp4lz5ZPVY0p4E4FNmk3ifuB1HeLDjIXpyvp187XrzhS/rqk5h37r5es19870sXpQxPjCZ71fPDRlZsUmYTzY8RyMC9e/Oue5Tolz48jyofs1RTYX9GcF+uQtj7a98XNpsprYdbO036zj1pWPqH7PgW/Imyx6NbHsnOrgK7jjOZgboH0S+gh95deh07HX4IfmOh731LloCkiy6AFQPzJP340t/tehrgmsoXjdR5wbwfoBdeTn7IQiYGOw+61Jz8Oh+mKoe6orB/LydZc6m8/q3JBtRd0YjMGPWzrtadnhsEOtVRjdOv9nzj01qbOnnc37y/boKqjbPVVbV9ohCAuE3w/4dIh+Dai/3Q7GwvBLbSqyWfQ47bozA4KtDzt0a57ODy/U/TYwj6fL4AdR+2lYiM9f/tShg3XzZNaZiTiJ7c/egPbNeH7e7NCVmqANaHBzSvd2nP/VomVMSni423OQ3VUTEZ8sX3nQp61r46P50P3ql82D3skK7dyYJ4y3PGwPzj/ac/dEF9r2+cuuiV43S/vNOJiYfQjrOhw+U/PbipnQY8J6ThW2E7bNEKvN9UT1DYyvV9OQnUMdfAUkWMLxzAfmBkgurX+m9mM3Gl8/dKl//ZlmLIKZG/JPsnAH0wUbomPz/N2oUnOTqPPdGEMo3maTz2qiq5lhVjBhPN1Mqs2QQe738P2zYnDdOusyswNxssC9E9+qrt1NAdmmZ2UjRTZxToiw2qKO4xwqH3X6D4F/8zdzdr1Bp48DbucXGjwSHdZMmxo9rH1xHNRqxeh2GWRrdLAAjm8iUuxK4tys4vUDfh1CguP2ZodWVN2tDZpcNose+687K/CEaNCg4VN79CLCDIKk887NoQ4oHb+LCVBkZc/4I7VS5/hm38onfB/k6ke3tPMBfe2+HurUNfwdzqtrT+YT8XnhpM2+9s6xA+xNYGd0fa9/+coXawv0Q3A+lNX1i/VLcP2C+dWlzlqFBqZ8K9+a9Bm2AMlUYn2KlJn91fAgmJQsV7Sl8MvCR9/SbWtF18/2eYrs1OG2r/M037WrvvL07vrUpCt9bqlOtKf9sbfsIH7dTO0327x871C1F/Y/awC1/jK+Q01YL3Ui3gC/IouxUcbWK2Zi2TnUwdFgg0CbLl2dWz8wyaVlamz26dzxI2rs2zlECYAPCOaetg+5r9VzHIGPcPwpznlkfD5fvc+ca/7pLMi473f1zKB88kkoY/Xo1c/g99jdMkG9cJhz+SdZ1lsRg/SeVH5rEv3Qja4Vr6IeIzgYVC6DrOD98SF1vQOVG9Zd4fh4HgRFt+zC1KonB7b0rZvowNKBnROtqqnL6N0FvcgKcIXOraLdEDVVRv+Z2maXEGT7JtP8fK0He+r7BS8YqCs/9sMJocvNAHn7SObe7noJgQE4p8oFjG4ZZDXaAEE/JKseBXalr1bR1Vh6PNeTmxRbM5N4/YBfhyKrVcGOk8llQ17XY/91ZwWeFHyazxG2/OmS2tvcXyZpe7u2r/roYJ2914buQ9cfASsz7J3S4R3LqQnjvZHVEyTsLLk/3uIx2KHGd2f34HCfBh/ChYHmBZ/jzx5M6BMDWNcaphzvHjsgiX9kVkEfrmiH263F5U8rn22L0L7v8ntsu97z7BPtpicEpdgRdtRRiV7VD3Z3Ck/Qbo/jZXZAYH5R0RMaryyStNCbjNedBthxwWV7jrRpSnk4Qt350YiVJ63svusyb2m/GQQLW5WUOQv8QrVSnglrOcmiV9OQnT8dHAnXt79WCexunGXMc62d5nY8f2xSoyRzcNB+rNMuYb5tfeSIWPemqneUfSFvjOzz+e588/Jj3+zmdWNsR3diHJKxkezr+mq3X4bP4LYO59RhLLlYX3yL1UsVRLDjJw4gAsVbptpqN1iBSr21CcrtZExXWrd0a5I2W5sNrfTBCukMcNwwk93oyk0UGDZnpRdb0NVEn9m2g3eZKmv4C7aCrCkC184ndlpp7xcSIGuqDFBaMLpdoUqsv7DrpT8wBgPOaanLgbG57aEUshrogzJKXMPopFdwx1LrL243HiFptmZ+8OuQthsmhIA9VfZiclnFmHrsv65QNrY+2oWSGv+zq1DRLeanG6Z3uR/Vzp7VFnv/upFN7h6JrJYu1XkU9mmgEjZVM/ma1CcavQLrXDa7Uvbut3fV6PN1Xy0w9e4Odbulls+2RZSgrdlLVbbRbnxNDmj1jjA+glXKAnBWLs/6/Pw4jPmwO0XZU6wAB77Wllk/U4sCdxx020SSV9bY6wzXnRbYcWF32yFmPaxh51FKeVgH23+MV3bvdZ9ZIGP7zSqVj2wD4nXgCV2Pz6HegS8J4NcknnHIoFdZdPAdx1qpQDyidrRH6T0Y2wr/tqaTAWhHsnPT0mD9ofGRzyNiXTXfMcRj5FWfz9eJOOubkHAKdvMG73d0J0YYKzSoyR4dsaT/M06pYRbBI58RzKlhR3QsuVhJFq5+A7tUTrpEQTAAenS2R3RpM1CRLe0OUG4KVz3VEQzuGSQYqHZrMD8MJhM6kLQDIfzOAhzhpCTJbWjgEOScDDK+f1HRW627G9Gtp3D47i1uh8hgY6IY7AbCdxSYW4rQ3kqPnfYtnayexAgxnEk8Em1nv+bM1vhI0SFVfxu0QufhuKYgm0WPvdc1T4USgn7EhFiNlWdqb5vzKWCLv5ZN7uJEcOTe9x98T0/ApD4x/DRM5GHz1TVKcHsXAsb+3Rl1j3QQmbV8aqeQgu3ZjU7E2OR6uAJpRPIGky/TPwf/lYNm57ORREKCDvULkmzY4cShNQJx32KHXxa74sKVc5ucSrvuNAnbVcespz3oqb88tY0q7fxpzqI8qm/8st7r/iNb+80yagxEdkNwbLZXp3PEYesNthe7ER3GqnY90HuBW2R8vcqig+841soFz2PXdqI7Mdiv1Gvhd7FgvHe+9zieqdK+u1h05NpfJzZ6T1bGjHXjMfK/+nw+fLPjb7HLyTykG514AmqncrBAExL4L6VHFap44wp8Rni3i0oI6odEdicog3mO2vXGby4EHihDDkoKg+toHoHnYXv7dMidOBz2Tvk185j/P91u86t4ndR7cJwenw45yFKy6m8gx6j3h7JROeDIMpApK8/XW9F6MOgnfW5ruLW9NWw/qbPDUyOnDlW/aD3vj32yTjsn3l8+ULZ3I6ZXOPR4cXXTtqev76I6rA7TzmWTpWNbi+LB55cSt/9t+7xqa8oDyjcOcT+Q1CHgsyGTymbRY+C/rg/IlJKnNttwXccyMVl72X7kPon73aC/ttiH88F6hr4N9A3tgbGFv4Fs2OehD4vrCvof51w98Pk0Pue09yifGJTLHeN8/dPIZ2QD15gcXfegXb3li7VF0A/RdtPtHmunCW0/rvFm3H4P+skts+mvmH7gSNbP9i3jtlFQvxTZMcB7shKxq97yaBl7/jVZS+S647bfGEC+1KTYCM10dTpP3q2ds+jVxLJvH2vTAp9dNO54TsYoRkfj7em2Hx9Rvc4ffGY7mFeiDuaxt1xRf5rse3cchj4/cp4/S/l84L7fva5B+WSe+9vr6TK+/hlbyBeYz3BjSdv2S/iPT8wd2N5ThqqVpRzC60hfzT/Sx/mwyO0qOpUNaa98WIR2lTrOB2IDikHauRikncejzO2EHVFXlfF+9Q87abDDE7J4H3Y9Rm4Ddliw24UEQRAEQRAEQRAEQRDGp/ZHm/rmO9lWWs4tWR6W+JD0myAIgiAIgiAIgiAIwhv4+fOneUQktwvljGwjmx2kr+Yf6eN8WOR2FZ3KhrRXPixCu0od5wOxAcUg7VwM0s7jsYi2TW4XEgRBEARBEARBEARBmAKSZBEEQRAEQRAEQRAEQZgCkmQRBEEQBEEQBEEQBEGYAoUlWfCTR2cP5knhvND170u09Ps1PwpBmeLnIjycUfMrXu3R2Sg5QZgC+Ckw3M+njpOePat1V50/Y000Z13ZpSZd/8JZ1tPEufLJ6jElvInAJs0mcT/wug7xYcbCdGX9uhmed8ddKDsbuGV/T7+76LC+pcYNo14TiiM6VoJ48Nc1Ne05ry92ZNkmB+f4KNN489s2C+zha3bQEpWdf1xfwUegA5ZFaw+XNN/onn8tVrW8XQenJzubqPlrUKewvaPn+XBtWkyP0S7zGY9DF22b9Oj6HetYQJJFD7z6kXn6bmzxvw51g8HVo+4jzo1g/SD1t68FYaqwAdz91qTn4VB9adI91VWw9vJ1lzqbz+rckC1G3RjJwY9bOu1p2eGwQ61VGNc6/2fOPTWps6eN6/vL9ugqqNs9VVtXgUMQFgW/H/DpEP0aUH+7HYyF4ZfaVGSz6DHG3WDPkf1zdjQ2YjN4vFEtDMCEIqnRwV8t8kcQo14TimNAg5tTuldjhQ/VJ2yr9jrUfNLnrC/2y/J4G/Rp69qOtyEdrEO2HHhtpgL2uE6H5hnIIjvfYIJ+ThXT/zigA+5k9OXrOfWPqzPlF6bGw5UTk1Zpx7RBllhVM5kOTkd2NkEi5fxjaHNUewdJ+y1qu7q7tkNXC7fQskytvw7YyzIPXZ75vx/5J1m4gnTBHX1snr8bVWpuEnW+G0PJ5epvNvmsJprpNEGpb9XYXbWwWUHI/R6+f1Yyg26ddZnZuTira70Tm/GF0zF1DjKmkG2Gqz3B+1JkE+eECKst6jhBd+WjTv8NfhA1fzNn1xt0+jjgdn6hwSPRofmddquHtS9OgLdaMbpdBlmZULxKil1JnJtVvH7Ar0NInNze7NCKqru1QZPLjq/HL9T9VqXKwNjHDzzh+kMnb2aB5U8dZ3GgQpVt83AOgM86OwnHhd01EFm98/iiJr/HruJFfL3VI4fItezrr/j9s//JrwfXQpAPXYSP1GUZ6Wvdazv+931xfbYpM1ZCg/LZOuJvTI7x90cJQZKWp2N1U1atT8tUWVOvGraogkmZV1ZP4G5bKyWsa4rNZPSE+J7agW3IIjvnYG5wfRmZiMN3hDZV+4f9L5+p+dhdvHg2ZfE5S6wKJtPB6cjOJtgg0KZLtw+4T2zSN8kpNWzcM68k/DP8Euaa7Mdqh8o+n/2rz3+pJ7mSf5JlvVWarGHltybRj4F63Lvrs0GoqMdqEFYuw8zf8SF1vZk/dBgFKxnPH8+DoOKWzEr9U5voW9d0ZInBzolW1dRl9O6CXmQFuELnVlFv2KiqjOkztc0uIcj2zarO83Wfzrl9Ut8veEFAvvJjP5wQutwMsJ4WWVELV9osCJDPqXIBo1sGWY2eaEA/PusMs2CAXemb1QceS4/neoKWYmtmEq8f8OtQZGU42HEyuWzIOHp8yBbN+ARn18tsgUBihQZ7ZkVnTjikhumXNvUv0C/suTZ0/8V9kfU7lx/77KOZiN/z6wYC2OjOqPSxeLu2r84d/DeeVByZCdfDFe3w+UDfR/pad+zztTc7tFuGcc5t0jD1DWKa1QZHOWY38C+sDja5J/jv2r2W40NPvvz9UUqQpD225Q93fdW+XBLt6aC9u2FWvr2ymMCFK8el6T9Fim3jCQnii84nG/+CLLLzDXxKteKfrirU+G6wTV2m1h6pGHfxMMlV2K60BYhRserEOjgF2VkFyd61ShBXJ7mlnQ8m4cBH/ahPg7La36ngi5/NS1jg7Z2qGPHgv3r8VxG5CVa6Qrg/puFpzzwpgGjVnoft7dPhPf87JfP3mIcc/m63+VXmqT3c4vfgfThUWXunQ+6cUC4mow5cJ5ADzjUZyJQS1EW1gUu07PfHW8P2E9ouVmfbhgnZ8G9I2vvLB8r23mCchLoUb89om1uer7fC9ygdTW/fssgWaQtcytDHSTz9qtowNm4StqY8jNuuo/xARIcCuG08uvRm2bH0+H8bf2HxX9dSWp2iuC0uB5O0V9R2WL/O8LgIxomqt/MaQL9j/Ni/Bp8e4VxwLfue4NrO+dhYtGULddyM69hnasxrwV8D6pGQHQ+Ua5qgHkF9bRlNnd1x7MoF7ZHoD316UnC9yXDikbjNVa+hrNGxg/rFdSSUNU8tE/SfZfI6+rG6HulXdSRtWxbZt4BrlZbYuNZwxOvRd3Uk9Kg85N/OoZ3NEqtOWwffIjtN8FnF4W/b+56uaWIOZm2Sxw/l0RajyKedfO3h+H93PJvH0JO0OHRS4nVcsF8XqlEDu1ROukQbbva1R2d7RJfcPtwm6bc2qS3mYUZUHeY7AGYStZ0POFunVPZZn8MWO7t1lhUyrPNw1MrobZg1fcAW6kHG9y8qemWgu+FuS8VtQ9Fb3A6RwY5t2+5+M9s00d5Kj532LZ0sqe3VQoxg3LE1Olmis19zZmt8pOiQqr9daYLOHzeoNgXZ8fX479TY1LvwFLjudoVmZi0XdVrqUmMO7j33cXhn9oGo1SjuF9T3zuxuwUqW2iYOvxXuSH353tE7WYDdccLAFsVXrXG7VXAtrIrxZ4wzFpd/a1L/7oy6R57t2T5fa7kJd3qonVkf31/TsOsQvkjV9akdfnfdeoOq33bp3KkjbqXQ7WJ26Xj7oyzgXn1T3r9aRFzPYIdgZHWzqm8RYuytu2iTpCx2xYW3QPfuDuk0Elu+Iyl2MOwv9A124bA9zCKrZOYY6HhrNzJGsSuuDrvD7XTu7nTjY9G+8yIyDtQuEf0oS6w6sQ5OQXZ24Xks61xkxxzHNvVa+q1ryqdg/nrk7vKYh7YwxOPntPHo8V+5wwpZCHlmjnxEqxbNaoXZTZsBw+th9vP02GS+ggyYkylT7w9lo3IgmlWDTFlBFjNSDybMBG8Nt4KVGq6TkVOHql+0nmH21JV12jnx/vKBsr0bMb3CoceLq5thVj7Zd1EdVodp57LJTrrSNwn4/FLi9r9tn1dtTXlA+cYh7geSOgR8NmRS2Sx6DFx5z4q1A2TKRGjD7RG2SxmYpL3QV/DPul4+n4PX7W6X8PwWfLoZV25/J21RzFdlGotaZyK6mapj4WuRa9tzbwDvnxqRMp1yWUMdUvpl2yW2yyeoW3DO7Y/JwTWnS8o49/bJGLIJfcoOrjMt/LbNgvqE9cgiOynTrGM++O0A2ijRNhgDE4zbPMmnnd1x4Ppz9/xrftvydh2cnuzk4LpFE/XzMfscnOfD1U3XVvGRR1uMAp+ZCwkbjP43bWJes3WN+K8ciNdxCf/xybkD96KVoWplKYfwOtJX84/0cT4scruKTmVjkvbCKupVpeP/vqoYWNHCbgzI4n27dBnZJThvFKWHbrsWzSKMNamjMC2knYtB2nk8ytBOefuveB0X7HYhQRAEQRDmndofbeqbX5RYaVVpf44TLMWgb2mtP7bp8zskWARBEAThbbyP/1riQ9JvgiAIgiAIgiAIgiAIb+Dnz5/mEZHcLpQzso1sdpC+mn+kj/NhkdtVdCob0l75sAjtKnWcD8QGFIO0czFIO4/HIto2uV1IEARBEARBEARBEARhCkiSRRAEQRAEQRAEQRAEYQpIkkUQBEEQBEEQBEEQBGEKFJZkwc8mnT2YJ4Wjv1V46fdrfhSCMsXPRXg4o+ZXvNqjs1FygjAF8DOjuJ9PHSc9e1brrjp/xppozrqyS026/oWzrKeJc+WT1WNKeBOBTZpN4n7gdR3iw4yF6cr6ddOeV74hOIcjHHvlx7UZYT3nhZev17n0hdWDIsYXPuv94qEpMwc2KTFWuE7h2A9tVhbZ4tDjPfjcV8v+uqwmdt1f19S0skE87Noa9/yM49aVj6h++32O4JBFr/KSnXt6dD2u3Y21G47JbDbaukwxUdnKE1JAkkUrfv3IPH03tvhfh7pBwNmj7iPOjWD9gDrys49CEbBT3/3WpOfhUH1p0j3VlbN4+bpLnc1ndW7IFqRuHPrgxy2d9rTscNih1iqCqDr/Z849NamzpwOe95ft0VVQt3uqtq5KaQyFPPH7AZ8O0a8B9bfbwVgYfqlNRTaLHte+2Od89E759QPSV54BHq4cm1GlnT/nabS9UPfbwDyeLoMfRO2nYSE+f/lThw7m5WeQZzlO4slHnb1t3Ca8DPq0dW3GEB+qr7LIFkjvZIV2bswTJq3s5x/tuXuii9fLHr0u2++9Ae0buefNDl2pyeyABjendG/OD/9q0cxHzEiwfAjrOhw+U/Pbipm8I8FyThW2E7bNEKvNcpIxD8bXq/xk556HLs9ox8dtt8nj8GVq/TVDMdE7kn+ShRWBLtgQHZvn70aVmptEne/GGHK5+ptNPquJrmaajBg7poTxdDOCNoMNud/D98+KwXXrrMvMDsRZieid2NUaN3Nvs4WQbXpWNlJkE+eECKst6jgBSuWjTv8h8G/+Zs6uN+j0ccDt/EKDR6LDmmlTo4eYGAZOZ7VidLsMsjU6mIfgK09S7Eri3Kzi9QN+HULi5PZmh1ZU3a0Nmlw2ix4HIOC+a4TvmwXmeHEASeedm0Oqw984fhcToMjuI+OP4ONc36wnSjrhZ8/B90GufnRLOx+gQ+7roU5dw9/hvLr2ZD4x3MnivvbOsQPsTaD/ur7Xv3zli7UF+iE4H8rq+sX6JT6+3hu2A5GFtrWK8lNIvN62VnSZbT9mkS0Kbnskfly76itP765PTboy/VAn2tP+OLXs8ev+4gkd13dg+nflW5M+wyYiyU08HtV152MXwcv3DlUjSXVMKI3vwLzh+lIn+A3wK7IYG2VsvWLyki0T059r8bnaoWoLjDn3+tnmWM61YZu5HYPr2PLxueYJH+Z8aOvN58R2fU3VBkSu7fri9M/ztgXqwPW0562f9cp6P/Pt5J9kWW9FDNJ7UvmtSfRDr4Ipp/NbRT1Gpw0ql0GW7/74kLpeRYFiU5C1f/54HnTWLbswtZr61Cb61tXKWWZYkXZbVVOX0VnNXmQFuELndvDdEDVVRv+Z2maXEGT7JmP6fN2nc26f1PcLXjDwV37s+yd2NwOsHUVWj+yulxAY6nOqXCCQKoOsRhs06MdnyYBHgF3pq1V0NZYez/XkJsXWzCReP+DXochqVbBiPLlsyPh63PuzQ80/ZlFbTSACvZrJ8vtZ/nRJ7W3uL5O0vV3bV/12sM7ea0P3oeuPgJXBjqTDO5ZTE0azI4EPTJCws+T+eIvHYIca353dg8N9GnwIg9bmBZ/jzx5M6BMDWNcaphzvHjsgiX/U1XV9uKIdbrcWlz+tfLYtQvu+y++x7XrPs0+0G3YMJ3ealQYsbmx0dUC9R3SpyofEK3RBlxm7NnbRZ1lkiwCTgYsKPUfaNK08t7Tzo6H7IOibFFnvdZmjjkqUR2UHdHsc7/PZBgtblZQ5C/xNtSIJldFk0au8ZEsEl2/6c60aHbA/Q+xzsM7tMsb8NUhOqQOfYxKJN1W9a+sLOXGo075472OFLtX1k+V/+WVf48P62CmhE57m2maXsd/PWNLbIjlH98v6PnMSFuuLb7F6qYIIdvzEAUTQeMtUW+0G2avUW5tiWfuV1i3dmqTN1mZDBxvBCukMcNwwk10esMO0rV8wbM5K74cdulUTfWa7SQ3VhstUWcNfsBXsvEDg2vnETivt/UICrPrtEg/8NIexXaFKrL+w66U/0MZQOZylLgfG1jiUQVYDfYDhuuQaRie9gjuWWn9xu/EISbM184Nfh7TdMIEs7KmyF5PLKrLoMfzEo+2XWUOvvg6Hl0R7sz/xSWPro10oqfE/uwoX3TZ+umF61+5E4MnyPtWNbHL3SGS1lIPRQx6JA5WwqZrJ16Q+0egrWOey2Z0euI45/T7U6PN1XwWavbtD3W6p5bNtESVoa/ZSlW20G1+Tg3W904yPd9/J4qyC8gTm35H4vzPJhwuiXbWaaWywqd9ypapsr1okGFO2CDAZsLv4ELMe1rDqmlYenpwGyVbbNyn19F33mQWOw5g5uO76gROr2OuapzNK5SPbgHgdfvGsgc+h3qF/sPBrEs84ZNCrLDqYSVbLlIZc5lqW8eav0duFnF29ak5hCD4nbF8QzG+55I3j6BhfXq9Q19rU2qE5Ox2WP+3zR5prO7tKkn7GPB3RFsk5ul827TPfymIlWZSCHFL3pEsUdBLo0RlWJozypW45U50Trnqqo6zZ03FQt54ABB5GmYIEiB7wUEQM6vA7C3CkGQlwGyo8tp6dDDK+f1HRwV93I7r1FA7fvcXtEFuUMVEMdgPhOwpIB/Fob6XHTvuWTlZPYoQYwbjTibazX3Nma3yk6JCqvw1aofMIUKYgm0mPAbaGB8HF7IDJYJg4YL1ahPvU0Y92AozVvm1zPgVs8deyyZU5JNqiAWkY2Gsm9YnOuhv3FWy+usZTO3o7yjuw/FuT+ndn1D06pQYH4VnLF65iQu90IsYm18NdekbkXcBEzdTnrxb9jc8Eibog+MZOtzAxGSScmCyyeRO2q45ZT3vQU395ahvOdzNhJ5fqG7+s97r/aFDT6TvIoi0itgbXpeaMJqVD1BiIrY5f79XpHHHYeoPtxW5Eh7H7oD7F1fvZJ4NeZdHBTLJGqCzkMteycLuouCZsgzdzE+4AVbuEjb27DXYw9tg3RBPsvZPdYIcbdrJMFySl7LVDG+bzM5osbZEm6//Mt7JgSRZuvo1TOjwiFUCEIJOnM6HIXnV5cpPMVgNufG5vu7qMY2a38K+26DJYYVqhzibuM9VJKF2/XXaYmtoXbMkK6xy5FzJGRJatwz1PDLO8f2HB9myeDAVZbD4wecT2eHzpmtue/r5j431xyEYy1GPVzqWTXSLcOztT33GRO1G7ottnjmxNGl4d8tuQyWWz6LEu3qxuDY/YDHdb8NwAH+VOghhMeo/s7pRdGnCwmliNtiAhY3XAc/titP1wxD6LmdQnWrBaGNj8vQFP3MNk67uwisn0YdAmWcqnbuV6tH1g9Q4TI/N+Hl/qFiQnQH9v/GPFZ4+zyb4fKeVZP+BHpm8+7JjvHMlS9mVqXTSp88HIPrbpUt1m57TJhw41nduDZxb2CR3cqmHaRfuFZ7P4xW2mbiG0r+l2m7sFkInIold5yZYIb4wx+VwLYMdl8+v/Neb89TXQvlXaMbqN713CGAdbawPaVddPxhNYCLbvWboj872R00HtHjT1src++/2MZdy5PPDL+j5zEpaGSNfMIWigMlStLOUQXkf6av6RPs6HRW5X0alsSHvlwyK0q9RxPhAbUAzSzsUw1+38cEbNwefoba5vZBFt28LtZBEEQRAEQRAEQRAEQciDJT4kzSkIgiAIgiAIgiAIgvAGfv78aR6R3C6UN7Jdb3aQvpp/pI/zYZHbVXQqG9Je+bAI7Sp1nA/EBhSDtHMxSDuPxyLaNrldSBAEQRAEQRAEQRAEYQpIkkUQBEEQBEEQBEEQBGEKSJJFEARBEARBEARBEARhChSWZOmdLNHZg3lSOC90/ftS4jfHUaaRv0OOn676ild7dPbK75ULwqREfp/9pGfPat1V589YE81ZV3apSde/cJb1NHGufLJ6TAlvIrBJs0ncD7yuQ3yYsTBdWb9uhuf942620HV4P7+76LC+pcYNo14rIb+uqRn4pBmG7Wcw1r0+lg/bL6hzQpZ7DnGjOh/akDTZ98Zv2yywh6/ZQUtUdv5xfQUfiT5dtPZIw20nx096x0PKOLNgbAbn8pKdH0I7hCNs++h5PmzdPTYcY34+43HohG2THl2/Yx0LSLLoAVA/Mk/fjS3+16FuYBR71H3EuRGsH0zlt8EF4VXYAO5+a9LzcKi+NOme6mpy9PJ1lzqbz+rckC1G3RjJwY9bOu1p2eGwQ61VGNc6/2fOPTWps6eN6/vL9ugqqNs9VVtXgUMQFgW/H/DpEP0aUH+7HYyF4ZfaVGSz6HHauJsleicrtHNjngjvQI0O/mqRP4IY9ZqQD2yDLoju1Th/pvbjuZkkD2hwc2rO86H6hWX3OtR80uesP8aErc7PojYkRbYEeG2mAva4TofmGcgiO98gcXBOFdOftk/dyejL13PqH1ep8+diRzJoB+tTn6/7dK7aKG08+MaZAQmAWkQbc5KdD5BIOf9o4hMciFGCRNIWtV3dXduhq4VbaFmm1l8H7GWZhy7P/N+P/JMsXEG64I4+Ns/fjSo1N4k6342h5HL1N5t8VhPN4psMGDvURJYPWVErZwNvyP0evn9WMoNunXWZ2bk4Gd/eic3U+7LVkG2G2ergfSmyiXNChNUWdRznUPmo03+DH0TN38zZ9QadPg64nV9o8Eh0WDNtavSw9mVIB+vqIV+vYnS7DLIyoXiVFLuSODereP2AX4eQOLm92aEVVXdrgyaXzaLHyxX9qmXrY8U8mhFYdzAZfH+/O13gs85OwnFhJ7OR1TuPL2rye+wqXsTXWz1yiFzLvv6K3z/7n/x6cC1MSqGL8JG6LCN9rXttx/8WSbJ8wGm/PwfmXIqsWwfj41Vf2eA+WEVFvU3c4Gn7fHECbxckaumQ6qb8wYSQmtQwiYbaxin1B+x5B3063TBXWG2wBOT8su9Pis1kdBL5ntrb5kQm2TkHc4PrSyfJpH1HuOD6Qt1vVdr/8pmaj12l64vK8qdO6FMDUsaDd5wBk5TptcNF77xk5wJsEGjTpbsBYP0gmlyKcEqNRB/NGQn/DB8MP8T+pnZIt60VOvtX9kGBf7U+Wj3JlfyTLOutiLF6Tyq/NYl+6GChd9fnyasNnNnBVC7DzN/xIXWDgeqCDrMrIUN6/ngeBBm3bFTUaupTm+hb13RkicHOiVbV1GX07oJeZAW4QudWUW/IZKufqW12CUG2f60zrDaznfp+wQuC05Uf+x7nxdyYoM7J3CdXzhAcn1PlAka3DLIaHZxDPz4nA92FBnalb1Yf7AorzvltzUzi9QN+HcJEZsvYkHC1eHLZkDH0mIOWS9rVTvuuMVs7GjGhvajQs9nVM28cUsP0d5v6F+hv9lwbuv/ivsj6ncuPffbRTMTv+XUDAWx0Z1T6WLxd21fnDv5bg06PzITr4Yp2+Hyg7yN9rTv2+dqbHdotepyjfM4uyv0fHJBym6S2n0+W46lw9dSTyHC54Qkq5N5LP1VAvhL2ERK1x2Z3CvcP1fwLQbcmdozSp4EnUPfLFk2KbeP6I77ofHITx1lk5xv4lGplhL1X47vBOr5MrT0yuzcWGfjTJVphG7ef4ifVeEgZZ9hxOdhzd04xecnOA0gqrVWCuDrJLe18MAkHPupHfhs1P7g+1N2hCGp00DtVMeLBf0VS3NzN8gu7W8JEYJ4s1hffYvVSBUIcSJETBLG61la7wa6M1FuboNxOxnSldRs4063Nhlb6YIV0BjiGowCsiKmBUWyF48MO3aqJPrNtlXSZKmv4C7aCnRfIcnc+sftOe7+QAKuouzy9Sw1AtytUifUXdr0EK2eYYC11qRFs9y2DrAb6AEeIyWt0YiO4Y6n1F7cbj5A0WzM/+HVI2w0TQsCeKnsxuaxiTD0OxiECt43uTN3T/fK9E+zugS87rBWzYlMUyZ0ENf5nV7LsLVLwW+EK3vJvzXA1M/B7Md1Q1OjzZsfsjOIDq2Kj/H6ww4nfd91XizO9u8OwjJZRvjYY+1zOSrX4cY5JSrAbTOtMf/Dv3H5bVLHlsu3nlX2h2h8cvgaBvT9JEaB82DuCVV8zrlWyDM8Df8tl2/ZPSvy72apBG7mUY+dbim1j/aSjOvcTxgomZOivLLLzDcZg1CYAnjWYmCVsE9Z1rJLPwqJqrkB3MMFtUDfFT6rx4B1nPBdTPorbUs0N2LbA5uYlOw8gzlE72qP0Hmz9orcLDXtV2pn329ri8bPHJqvX9qrqbpbenztU3QsXgPNksZIsbAwa2KVy0iWKBEE9OtsjujRKmbrFWiVQwmy/OtImw7NAMFCdrVNBAkQnV6CYSKCE9+riiAWJEW7DAAUrRieDjO9fVNAHS9TdcLelItiJ3uJ2iAw2JorOtrfuN3NLEdpb6bHTvqWTJXXvtxDDSTxign/2a85sjY8UHVL1t0k46DwmqFOQzaTHTLCayXZ/lrYb22QmDviy015a0DGbHN6ZgFGtRnFQjT68M7tbsJKlbmuA3wp3pKrEk37IE6Rwiz9sUXzVOmw/syrGnzHOWEQion93xsG9Z3u2z9dabsLvilM7s4qeoEO/3e814qPz6e/cfo4vR3IFf72y3H643dU8D7+bQSdgFPb97wpW3MMkAdpa/f3qfPljsMLJemVXPRlMrKEnmIAn9E/9S8q+Oym2Dbe+6L7DWMGEjO1hFlklM8esN6ja2o2MUezqqqPfuZ3O3Z1ufCzmd15oIv5XJaOBfzz4x5lN0PDx1Na2hW1rXrLzAc9jWeciOx45tqnX0m9dUz4F89cjd5dHNN6ZaeLxc9p4xNj+tkvnPh+dF6yEhcDB3pAn2oURrdrzsL19OuQgaTjsnfJr5jH/f7rd5lfxOqn34Dg9Ph1uXbMZZVn1N5Bj1PtD2agccGQZyJSV5+utaD0Y9JM+tzXc2t4atp/U2eGpkVOHql+0nvfHPlmnnRPvLx8o27sR0yscery4umnb09d3UR1Wh2nnssnSsa1F8eDzS4nb/7Z9XrU15QHlG4e4H0jqEPDZkElls+gxcK9rbZsfyJSVov3uOEzSXugr+Odov0T76pR9ka5zeH4LPt2MK7e/k7bIvZbz+lhjUetYRIdSdSx8LXJte+4N4P1vJdImfMTbjzgW8LafkQ3jBhxmHD61h1v2XPB+p95vANeaCG9bu7bBGetu+R09cWOk12TfAq4xLZJ654J6h3XIIjsp06xjPvjtANoo0Tbo+wl0Ok/yb2e3nV4bDynjzBJpx7xk8wGfXTRem5s4z4dbd58fKxB8Zi649VL6Bp0wbWJes3VV7TOhjR5FvI5L+I9Pzh3YyleGqpWlHMLrSF/NP9LH+bDI7So6lY1J2gurllcV35ctJsGKFnYGQhbvw+1fM/XdOhlZBD2UOs4HYjOLQdq5GKSdx6MM7eTGBXkQr+OC3S4kCIIgCMK8U/ujTX3zXWCjvpRREARBEIR5Rn8lQ/2xTZ+LulWIWeJD0m+CIAiCIAiCIAiCIAhv4OfPn+YRkdwuJAgG0Zn5R/o4Hxa5XUWnsiHtlQ+L0K5Sx/lAbEAxSDsXg7TzeCyibZPbhQRBEARBEARBEARBEKaAJFkEQRAEQRAEQRAEQRCmgCRZBEEQBEEQBEEQBEEQpkD+SZaHM3WPkjp+v6YXc7oIlpbOqGcev06Pzt5YPvw85NmDeSIIbwR6ZMdK86vVRP2N2Pp8qM+u7NJSk65/mRcUrMvOucllIWPP8XGiS+GXdcubcl3zfsHB2smTfzF2CO2YxX7NHkonAl1w9YYPa4td/8GHtrNvlw3sdJbrzhzzUg8/L1+vcxkX1kaFtjc/8FnzFDP46/P2mKo43LHi+EbXPnht1Guy+YCfH022sy7XaNtmKYPsDPDrmppO+aM2wR8PLQpRv/1KW0APAhvgjh8+4rahEFk9hqzszOmlg1sPd24QPc+HrTt0OtY/6Msi/N1UiNmU18Zd4JP4fe9Zx5yTLDwAa0T3w6H6IpjnzQ7tFljZIfdBPT7gcmD5Uye339wWFoUeXX1r0rMaK/dUbV0po/nydZc6m89q/Ch9NoZl8OOWTnt6XA2HHWqtqtMMHE6dDs0zMLHsrwH1t9umbHx84UGdIovyDvbMuacmdf7k8rJx3w3qNqR7qs+0c8uDl0Fft+WXf6aDv1q0zP9afx2Qbuk5hB3fSuvWPAEDGtycBr5iqNpAt8vWtdF/PrSdHV82Mn54XFFNByNZrjt7zEs9fLxQ99vAPJ4ugx9E7achdQr4qWeJGUrCw5XjX6u0A38Fv3hh49Znaj+e64RKFtmpoyeS9SPz1KF3skI7N+YJ47dtmjLIlh5MRj8MaN+UHf3a/LZiYhYkFc6pwnbC1g3xzMxMVCcl7rdTYkMF2rEWiS7T/VJRslz+849WLzkeuMh/fpgHSKSE9eCDTVE4191Sfsy+dr+2Q1ezHm8jwXJRCfUM9Rp33K0fFOLT08g5yVKjg2E4UViuVM2jguDGtQNOZV+DLJjJ+iHD9bs+rw3ogK5sRtTN/gXvs3JweE1+r5b7d5MxU1lBc71QNvbZr2TfhEWFx4pnMoTAv/mbObveoNPHAWvfCw0eiQ5rSZ3Sk8p7am+bE9OQZUd6e7NDK0qHwx0rSVlMgKpUGRh9/9Ch5h88+ldb1HHqVvm4ZR4JChO4oC3PHuzqL2yMXZ1wV4ucFdSZxSTfe6fmOYNgjQ6pbuppbScSebetFV33wCaPL4vJbOhgK1Qxup7lujPHvNTDA2zWzg3XDX0W89+RFTzTp36frCes9hwCNcjVj25p5wPGl/t6aO9cn/8SGZPOOIWMPW/1yiOLz9NlcV8rZheNFwSxqWVkEAcZf+DGM8nyOm130jXnGPf6QbuUAG8AnpLgziI7bR64LS94YnFsnlu4Xes83XDPe20bKIPsDPDyvUPVntun6GOTKOJ+6F9fOgtVHLl9KSYx+/74/XYyNgRsB/Y4/uu1ecpvSPVLxcn27vrUpCutl0t1or1kzF1+etR9bNOlq3POXDfJKTVmKcmZgPvxok/ti2j93HHn8/0BbJ+sn/L5rpHvnQLFfScLVxSZqIhi5IxuOAQMPCGsXIYZsOND6pqBeLu2r84pA3rTpwo7MiVjsn8vv7jM5n1DNi6HdzrQAE3IsmL/zTwH9nqBLAcnu61qkGWVVXxhFNoI1NmRf/YHbjcD5O0jmftAp3iMrfzYZ8NT0bKKyWUjq1LYnbIHQ5RyXXZ2HTJjLZANQf3wuTO1spU37CCfr7fUThZfu/ROoA/x9p9V2GH+jpXA2MQEwdrxva5jsOMEibxwVSbYCZlFNgCfu0KDPXxuluvOIPNSDw/Lny6pvc12xwSUof/mGm7o/lQ7CtgKdU3An/TJXeqs2fbRgRqScffH0IkONb67u5/2afAhbD/r8wc8Jsnu4nuq0LkNzm5YRulVWAZ3/D5f9+nc1Uu2mQ1TjuFTm+hbV1+nYDD5CFc/RyQNEM84uxL3f9gVfk1k59gGvAHA5Cy8ftE7ml8HtoFjRZQRiwIWxKxLK7TD+hPd/Tmu7BRZbyWvi8QXVnfd3QOptq0EsjMCFrYqKX2IWKhaKW4OUx78ftsfG8Lmwde6u6aZFL9UqCzd0s6PRkJ2puD69tcqI5JDWCwwSQM+6kd9Gsz0whzmGtVwTCpba+qnEv98pPj+CPBdwVzc3i0w5nsngS+eOzyBGNIxV61AdNWehxyQDdUnP7WHW3wO53HwhGbIQdeQDQReZe6Hp9ttfocheA3XCN+n6+FcF8+4frie/avA50HW/jVAJvxMoUxonSkHVpc48B9ysGKI6ajB6tT9saOn6gh11PIW2ShchlTZ/x0ZF3FZfOZ76z7qWkZsf4d9HNqYhA542v+9GbtdY3YYR1InUHe3zga2yUk/Mo4s2swjY8lyXQ9l1SnN+PUoisnaKxwXUf/NoB8DvdJ1DscV4/hi1/7Za9hxlrSNOO98ripDXAav2bGrCa+XbH+3XJHP89j3ccH730xkXOp6etsu0sb6QPtZWdQleE/QHtF28Y+38cDnTYbTd4m2dvvYIa5niiyy2RhVR7d90ea2D/SR1DPb1mWQdYFsWbG6HOGJRzfq5e1ffi0uXxKm1s5j+W0bm+BvVDY53jF+oCvFykZtsZU1TycA1y8OrpvHT9z3dFsk/I0df47/s0DXJ7VXWXhbO6X0k1sf1DHoay0bjGM7Zj31V3jeOwnxOua+kwVbcXaxsh3JdBcEVqzUfaI9OtujYEcKOyo/apeApnd3qDLWvZNdtU0T7+POMK9m5KgbZEuxjXIxM+HCSLAi5GxVg56Aykeizndz9qFLh8hgR2Rxi46+pQjb55SeIiO7jZWkA6pNQRZjOFitRBmOGymyf6fGprNSC9ntClX4daz+dTcWZVvttLkNdQCrGKpNZxTcOmbssLKnx/dKJ7DDKbj1AHabmtRYxa0U4UoTbPLpRi2TrBpXS11qRL6LKMt19dNZYl7qkQn0851doYRNM+dTCO1f+P1XFtzOyEGZeR1HfDV0mSpr5HwfFY4Ruz94/AYriViFi9yy2VR2UV3jydkCXzTOuHR32/QHVo8GXAtmtUJb7ncw8OHadLSd+56+fsSxVbhCqFa/P76XBdO3fqiy/9UicseKWjHF36h9QHnV3wyyRYDdV7YPENOe9qCnfttWBtlZYfm3JvUjOxw4ftmr0zl88HqD7cVu5JZd7FSrOzvc55IUv+2NDfnfgZWFTYO94Pmf3y8VK1vbsN+lZGTdHRIzQ40aazvR3WHsV+q1cJ4ZR9lbtt3VI/c7o8IYv9ywzd7jfovviv/e0T4pi+9XX7cAMCdp0vW/ZYsb3kK+SRau/PkRhxj23kw+QieVP0vqy6sQ/GBSYu8b5MkenYaBgMs2BxdGBveYYus+JrnB1qs7diJBJ40JG6dLDlrs/YL2uoIQAXqy2Ql01OoJtsfjS9eU/nGcco9kZUR2hTqb0XuEI0xBtvYF2yp1uV4rQ7S85j7Khyv1pXjB97fw4W4xF0aD9q9aG4rvuYndmzoPRPQmqCMHShw1xG1nFtnenzvsiMP7tfXto1muO3vMSz3SQX+6kyBGBZB108e7NFjjaXDatl+VeNN977s1M9J+6oh9FhOxiTicBHkcr/004HvqAru4N6AqJu/mtSJx70tfaVVpH7dQ8WSTrN256OsEUMxP4XBteaTt9jrmLMYbB8kmjlr51iz0tvFRRPsat4AhXozaB1veLLLvh9+2+SmDbAlhHe/gFkBTfh3fPJtkItdN3UJoX9P1e5dF5BIwyrbFyeKX8pLFrdm4tV3L7sS+e2d2wCLB/g9ri/hA2weJ/ujtQuHXdGBchnb41flAmcB3zrB/dP0OvnZAjbtxfb9vzvKPDHHDG1kaIoUzh6DR5rRqQk6Izsw/s9PHyLRfUWVGfmFokceO2I1sSHvlwyK0q9RxPhAbUAzSzsUg7Twei2jbivviW0EQBGEMkGBZoR21A08QBEEQBEEQhFliiQ9JvwmCIAiCIAiCIAiCILyBnz9/mkcktwsJgkV0Zv6RPs6HRW5X0alsSHvlwyK0q9RxPhAbUAzSzsUg7Twei2jb5HYhQRAEQRAEQRAEQRCEKSBJFkEQBEEQBEEQBEEQhCkgSRZBEARBEARBEARBEIQpkH+S5eFM3aOkjt+v6cWcLoKlpTPqmcev06OzN5bv5WuTzh7ME0F4I9AjO1aaX60m4pdmzPhx9NmVXVpq0nXkt91Zl51zk8tCxp7j40SXwi/rljfluub9goO1kyf/YuwQ2jGL/Zo9lE4EuuDqDR/WFrv+gw9tZ98uG9hpryxr+olHdgaZl3r4ePl6ncu4sDYqtL35gc+ap37x1+ftMVUuZLElv66pac9lsVFBfVNkJwTjOtnO+rOC8ym2TVMG2RnA7X8+ojbBHw/NHehDp26RGM4b7znxSpbxY8HnjTt+CpEtN66Pd9s+ep4PWx/0SUxX0adF+LvJsONtNuPhnJMs3Dg1ovvhUH0RzPNmh3YL7NAh90i9gAGz/KlDB+vmiSC8iR5dfWvSsxor91RtXSmD8vJ1lzqbz2r8KH02RnLw45ZOe3pcDYcdaq2q0wycSJ0OzTMwseyvAfW326ZsfHzhQZ0ii/IO9sy5pyZ1/uTysnHfDeo2pHuqz17QlTMvg75uyy//TAd/tWiZ/7X+OiDd0nMIBzMrrVvzBAxocHMa+IqhagPdLlvXRv/50HZ2fNnI+OFxRTXtqL3X5TKdf3RkL2Yj2EowL/Xw8kLdbwPzeLoMfhC1n4bU+QRtyheJGYpnfFvCfnGvQ03WBZwL/ZVPNi3G9duot6Mnh/Uj89Shd7JCOzfmCeOvp6YMsqUHk9EPA9o3ZR8On6n5bcXoACZ851QxuoED+lH+iWo2VEKl5kaGsI/+eC8Zn2YZPwa0eeTzyiBbXpBICX08H2j7YK67pfyYfe1+bYeuZjnexvzj+J7rMpvxcM5JlhodOA2zXKmaRwWxfhAMomgW1mTEOBht/q7PWyNwZbOcbvYveJ+Vg8Nr8nu13L+bVRyVFTTXC2Vjnx3LJAqChseKa/ANCPybv5mz6w06fRyw9r3Q4JHosJbUKe307qm9bU5MQ5aN3O3NDq0oHQ5XMJKymABVqTIw+v6BHe0fPPpXW9Rx6lb5uGUeCQqTcEBbnj1wEKdsD2yMzdzbTL7b/rOMmZj0Ts1zBo6UDqlu6mltJwK729aKrntgk8eXxWQ2nDRXqGJ03Sfbu+tTk670uaU60V5yPM4C81IPH7BZOzfc9+izmP+OrOCZPvX7ZD1htecwQYJc/eiWdj5gfLmvuyu2oc9/iYxJZ5xCxp43ZVDnY7L4PF0W97VidtF44ba0ZUiWkUEcZPyBG88ky+u03UnXnGPc6wftUizj25Jlqqzhr2WLKnaxISGbEuOm2Kg388BtecETpmPz3MLtWudprHveW09QBtkZ4OV7h6o9d0KHBQ+TKOJ+6F9fOgtVrAFfiknMFkePunTJE3fHP3MP+mLD+Jxu62OF/88yfgDbDCRlem2WNJRBtrRw/zy26dLVOWeum+SUGrOU5IzA/vHDDt0e1Vnn/lfUB3vn5uP7YP85x3/xMQ1/XNx3ssDJXlSiipEzYeOxgaiw0bCZveND6prBdbu2r84pA3rTpwo7Mjf79/KLy2zeB6NzeKe7AjQhy4r9N/Mc2OsFsqwIu61qkDmVVXxhFDqArbMj/+w4eYebAXLxkWx8oFM8xlZ+7LPDh6OzTC4bWZXC7pQ9GK6U67ID68BBR2RDUD987kytbOUNO8jn6y21SuRrl94J9CHe/rMKnBhWAmOrEhz83KrVCuiT3XGCwC5clQlWibPIBuBzV2iwh89Nk+VJ9o9G7LqzyLzUI8nyp0tqb7PdMQFl6L+5hhu6P7Hy3GYr1DXJyKRP7lJnzeqPniAhGXd/DJ3oUOO7u/tpnwYfwvazPn/AY5Lsqu5Thc5tMHfDMkqvwjK44/f5uk/nrl6yzWyYcgyf2kTfuvo6BYPEXLj6GRubLohnnF2J+z/sCr8msrK9AW8AOJithdcvekezJost4T9fLon2dKDd3Qh3dPpkA9wY9zXZrKy3IhN7BSYZ/HnPZmepJq2eJZCdEbCwpZICHhALVSvFzWHehxq1EvO0lHiPY5dL2tVzrbtGkGzKMn6wC2qwZ2QsZZAtK1yH/lolJaECsFig2x5H/ahPg5ldmKvRAfvFLfTZl/+izlgfTGlz8zF9MM4lfLgnNpgYvlDu8ARiSMc8PAtEV+15yAHZUH3yU3u4xedwHgdPaIbcMUOePOJV5n54ut3mdxiC13CN8H26Hs518Yzrh+vZvwp8HmTtXwNkws8UyoTWmXJgdYkD/yEHK4aYjhqsTt0fO3qqjlBHLW+RjcJlSJX935FxEZfFZ7637qOuZcT2d9jHoY1J6ICn/d+bsds1ZodxJHUCdXfrbGCbnPQj48iizTwyFiMbbeeU63oom069tR5FMVl7heMi6r8Z9GOgV7rO4bhiHF/s2j97DdtuSduI887nqjLEZfCaHbua8HrJ9nfLFfk8j30fF7z/zUTGpa6nt+0ibawPtJ+VRV2C9wTtEW2X6NjMBj5vbJyyhmUyeMtgx0rUXvj9VnRcof7pdYrKvsaoOrrtqz7T1E8fns8w9SyDrAtkywrqlNAX1ol71IvrktQFfi0uXxImamdPv1nQRmiHyNiAvB3vY48fyLr6w0fiM8sgOxq8pzi4vB4/cd/TZU74G9uPsbkosP1YFG9qp6Dc6C839sXzeJ9F2ybdB8feqw59beirPfeWtsH7XHLfyYItvLtY2Y5kugsCWSl1n2iPzvYoyHpxI/pRuwQ0vbtDlbHuneyqbZp4HyureTUjR12VLQXYRjn/mXAhM1gRcrbVQk9A5SNR57s5+9ClQ2SwI7K4RYfULUXYtqr0FBncbawkHVBtCrIYw8FqJcpw3EiR/Ts1Np2VWshuV6jCr2MLXndj3rbVFsVtqANYxVBtOqPg1jFjh5U9Pb5XOoEdTsHWTNhtalJjFds5wxVg2OTTjVomWTWulrrUiHwXkV+2tlGlHXyHEFC+o5q6ollm5qUemUA/39ndO7Bp5nwKof0Lv//KgtsZObgyr+OIr3Dq7fA8EXNkRuz+4PEbrCRit0Pkls2msovqGlixM+cLxxmX7m6b/iC0O8ojrVZoy/1+Lj5cm462c9/T1484tgp3Fqmdkeq2gpzBFnpTRux0Gt+W4Ek4ZuztrWmyvhg3/brTA7uvbP0Q0572oKf+epZBdlZY/q1J/cjOI9xKUqdz+OD1BtuL3cgtu1gRrzs73OeSlNgQBPMZ2Ab9iBl3/OB2O60/yv7BtvA4KoNsealRY20nujuM/Uq9Fs4z4yh7y/1TPTp3dDfaj7NGtrl53AcPUn34qNjgLeSbZOGBeX7E1bP3ZvIRKHgBLKkvr0LDYVJiv1OCJ3t0GgYCLtscXBgZ3GOKrfuY5AZbr+64U9R3YmSAg5dLDlrsPYD2uoIQAXqy2Ql01OoJtsfjS9eU/rEFuIfxj8iuUGczeo9whCnI1r5gW6Uu12tliJa3T+2LFi0/XKkvxQvu5+XD3WIujAbtX7U2FN9zgzY1r80LEb0J6sjBD3u4uO3MItv7c4fda3gPtr591C+LSRm2Qevr7sTuy58h5qUeqaA/3UkQowJIU+elXRpwAJW6RVol3nTf+27NjOiXOmKfxURsIo5gApLEaz8N+E6DwC7uDXhqEi70FIn7fTYrrSrtf1pWk02ydueirydQMT+Fw7Xlkbbb65izGG/VII5a+dYs9LZxzdttiS2vVzYlxvVftwhSbJuXMsiWENbxDm4fMOXX8c2zSSZy3dQthPY1Xb93WUQuknFiw7eMH3P5OGWQLTNIBOBWTVUPHPArQaI/ertQ+DUd6JfQDr86Hyg5WebmPh/s9eGvxAZvYWmIlM0cgkaa06oJOSE6M//MTh9j988VVWbkF4YWeeyI3ciGtFc+LEK7Sh3nA7EBxSDtXAzSzuOxiLatuC++FQRBEMZAf0nrjtqBJwiCIAiCIAjCLLHEh6TfBEEQBEEQBEEQBEEQ3sDPnz/NI5LbhQTBIjoz/0gf58Mit6voVDakvfJhEdpV6jgfiA0oBmnnYpB2Ho9FtG1yu5AgCIIgCIIgCIIgCMIUkCSLIAiCIAiCIAiCIAjCFJAkiyAIgiAIgiAIgiAIwhTIP8nycKbuUVIHfofanC6CpaUz6pnHr9OjszeW7+Vrk84ezBNBeCPQIztWml+tJuKXZuzvtof67MouLTXp+pd5QcG67JybXBYy9hwfJ7oUflm3vCnXNe8XHKydPPkXY4fQjlnsV8kJ6uerkdaZ0IZm0be3yqbopjnfO7HP7TE7fRGtD46wrvPAy9frXPrCtltoe/MDnzVPMYO/PjzeCo75kvj9ZyQuDWzSdGVf8+FvAXYp2c4x++mWl4+ofBlkZ4Bf19R0yh+1CX6fM5dk6fNX2kXZ19fGj8GVTfXFTtnC/kkpg1uPoAyz3Y/RdgnbMNFe1gZDp2N1RDsX4e+KgXXq64R96GmjSck5ycJKXCO6Hw7VF8E8b3Zot8AOHXJb1Qtw8sufOnSwbp4Iwpvo0dW3Jj2rsXJP1daVMpovX3eps/msxo/SZ2MABj9u6bSnx9Vw2KHWqjrNwHnV6dA8AxPL/hpQf7ttysbHFx7UKbIo72DPnHtqUudPLi8brt2gbkO6p/rsBV058zLo67b88s908FeLlvlf668D0i09+4T1S9aod7JCOzfmCcigb1lkeyd1/s+cg27uad/gk619sc/56J3y67PTF/BHQdmf2nR6fanbai54oe63gXk8XQY/iNpPQ+p8WjZn8kNihmLw+0+OSy8qjj86V0nIqciykdDx7jM1v+2OkM2KnpTWj8xTh7j9hK3dujafx4erZ2WQLT2YaH0Y0L4pu+7LFROzYGJ+ThW2E7ZuiGfmZ6IaJUufp/lixcMZrbRuzRO+7qgxEZP1+2L/WPOXwT+GR5a35CCRcv4x7BfVhsFcd0v5Mfva/doOXS1CvP2rSx324WUj5yRLjQ6GYXC6XKmaRwWxfkBDNWHBoHZX98JMaPN3fV4b0AFd2eyqm/0L3mfl4PCa/F4t9+9mFUdlBc31QtnYZ7/JwQrzD48Vo6suCPybv5mz6w06fRyw9r3Q4JHosJbUKe287qm9bU5MQ5ad0e3NDq0oHbar4j5ZTICqVBkYff/QoeYfPPpXW9Rx6lb5uGUeCQoTVKAtzx44IFC2BzbGrk4gsDPtPIu7EiL1M+cs/Fqdw577Y/McjK1vTAZZBGtBkLhaIe2N0seHAvb/rjFbk4QA1ps9os8FJA2KAjZr5+ZQB5Qx/x1ZwTP+2++T9YTVnsMECXL1o1va+QAdcl8Pdcr1+S+RMemMU8jY86YM0fGrZfF5uizua8XsovHCbWnLkCwj46zwufFMsrxO2510zTnGvX7QLvmT8J9HXeo9dKm/SXRlylOnfZWEzCIbj2W3PlaULeofN0y8u0wNfl/n+4tfNitcDrrgCZNrJ4HHfiJpfNtaSbZ1GWRngJfvHapGkupY8DC+A/oQS1rDrxSRmH0PsvS53xcDtnHcmPe9U/M8ZfwokrIBEV9coUoQtwKOO9EnvjKkjOH08padHnUf23Tp6pwz101ySo1ZiF8ic23bHz7/6PhidR7+is/t7dDtkUl4euftfK1X/HPzz3ABx+fncE7HE+PrS3HfycKDcumiElWMnNENpDtgULkMM3vHh9Q1wcPt2r46pwbuTZ8q7Mjc7N/LLy6zeR+yqId3YRDehCwr9t/Mc2CvF8hyZ++2qsFuHlnFF0ahB3adHflnx8k73AxI/bs5TeoUj7GVH/vs8N0gbnLZyGpGsAMg5bp0SB0yY83ZLWBB/fC5szlpzQl2kM/XW2o3ha9dsAOjn2j/GSKtfnCEWGGKrSBl0bdsummBUz1nW4+gZLRs70+TKJxBXr6eE+2lBV6zyfKnS2pvc3+ZgDL03+xrN3QfYmWzzVaoa4KgpE/uUmft3sjqCRJ2ltwfYwWwQ43vzirrcJ8GH2wSJfT5g8iuqAqd24DthmXUKmJYBnf8Pl/36dxNTLCuNUw5sOuIvnXfZWz37vrO6ueIXVuIZ5xdifs/7Aq/JrJCvQFvADBxCq9f7I7mW5XoUCAJoh/xxHEQtHs45jPIsk27pF0dY/LEL5hkIzGjH6kJqiJNNgvrreRuNK/9RNI4XMkO2roMsjMCkm1qwu4B/qZamSeLOoosfa7bJumLMSHGzp+YTfGOiRRZQ9QXI/HVoK6a4+0SXej3+MvgH8NpsqUHtmmtMsKvY7EA7aKP+lGfBjOQQNLJTd1HwU7lVP94S1WzY17P51kfLtq0dXyvdCl13p7in60vv/zY5yszrOOpfm4T8xtTvjEoJMmiJo48kNIzbfmgGlJlO5epttoNMljulsvIqsJ2kxqm4Wobp9QfvNDyeoW6NmNWc2+sMJnTGKcbxgisVihYrw9WN/QqPq4rCD7sVn84IDd4DdiuUIW1yd0hZnWqd8f6eVRnXcU2ThhaTA4ml0WZgsAQOwBUoscn+5/86JT2E7IarDTvIgETc87Ca2yFK6yxNp1l4FTtShJs8mFNrw6Mr29ZdNPYXASIS1123NZJjpDlEdF9DH3CbKF3lc3ECtYEhP67xv/sbonoNvaET15t0T4H2jYIje/GiKzeLuF2ShukWp+PyYez++nDDuuxGZNBDLFMlTX8BeH4jegrWOey2R04uI45XTS1P3iSEQTmYVIpQWT1V4/bcLzotgsmodgNoh9FYiusYt/+yMmCqfGty4Z+rX3BrbemL/c6xn9yjziLGHbMZ5ENfBmC8I2uXhVlvbq87lPdfP45T1DRFl5Zc71J8NtPTD7DCYBt6zLIzgqVj6zH8Unprx714Ju4Lq6+a/g1X6w282Tpc37d54uR0FbxJY8JzJ/MTgPvmEiR1cR8ceDHMQm+JNrTuxX88YB/DKfJlh6UVe1oj9J7sFY7TIypo1elHdy2X3KWP+2zI9K2M9gpkuofw9056M84qfP2hH/WiUQ7l1/+raljhBF+LmuSNfcky7tOrNSgxYOe2jZtM1uRLW4uziDDJFQ7SGRJrbJ6trCNQ2x1Y3Ey4cLYwGk4wZddBYPDD1bXHrp0iAx2RBaTKb3NObx3FclFGFqePE5BFmM4SPigDEgaemX/To1NZ6UWsipQ1VvIuxvzu602X2IrrCb4n3UQ5Ggd1Db5tKcDuvH1LYtust5hN6XyA2FSJTruHFnA1+tvNgpdGJgaardGmNyfe9CPWMgJbJo5n0Jo/8Lvv7IgaAtWONURTjQ0OkALv8cHh6NTCW7DSRt00LklDQtQsIvqGk9tHeC9B7il09TF3W0TTCgRdOIvElXu9xjw4dp0O4FRwFbpRxxbhTuL1AryW26ZGQenHigXdnMFuwAvmkTwn+sNp88x5nVMlkUWBHEc2kQ96NGVs2t5n3XEBu9J2cnx20/s0guTZIhjkWQsg+ysgIlWv+YmGnErQp3O4YOVPpjv/zBgJbzu7HCfH7L0OdrB44ud8ajmT2anAUiMiRGyXl8cxEFhQttbhpQx7JU1T8tNjRprO9HdYexX6rVwnhlH2VskZ47M99EoYvHOu4MFL9v/OjH0Vv84/rwduuP45zH9XBbyTbJw4HN+hK1adlUouWqUJ0vqy6sQ/GAwhlmpLuldKgm2ObgwMrjfEFvbMckNtl7dsUHxZBBHElvdsNcVhAjQk81OmDk1eoLt8fjSNaV/7AHukayMyK5QZ3PEF1tOQRYrfEGG+ZUyRMvbpzZuyXi4UivLwcovH4FzE14lssKK77lRt7nML1n0bXxZDpQvDnmyF/qBYPU5ZXzM9NZwDhYor4nsu3PI/tSdBDEqgLS7U3ZpwEF36hZpJGSsDnhuzYzYMHXEPouJ6B2OIFGXxKujBqwOB3Zxb0BVep/VVEw4bF1WWlW1GxGTTbJ256IfTITC8aIP15ZH2g67QRQcPCNoNnHUyrdmYbeNY3U03J1CdKnaHuUhE5Ot0M6a9bXjy0b6NLDJNfrsxHrdDT359MvmhVve1+LNMsiWENbxDm4BNOXXfuHZTLK4buoWQvuart987s7N1o+j7FycrGMi4YtjdsiWzV8Gtx4pY/iV8pYNLBLgFhZVdlv+INEfvV0o/JoOtENoh+PxznujvyrBlA1zhz9q2f0jYoCTXqZ5e0QPxvRzWVgaIkUzh6BR5rRqQk6Izsw/s9PH2P1zRZUZ+YWhRR47YjeyIe2VD4vQrlLH+UBsQDFIOxeDtPN4LKJtK+6LbwVBEIQxQIJlhXbUDjxBEARBEARBEGaJJT4k/SYIgiAIgiAIgiAIgvAGfv78aR6R3C4kCBbRmflH+jgfFrldRaeyIe2VD4vQrlLH+UBsQDFIOxeDtPN4LKJtk9uFBEEQBEEQBEEQBEEQpoAkWQRBEARBEARBEARBEKaAJFkEQRAEQRAEQRAEQRCmQP5JloczdY+SOn6/Tv2t6jxYWjqjnnn8Oj06e2P58Pveb/0NbUGwuL8T3/xqNRG/NGN/qz3U58hvyi816fqXeUHBuuycm1wWMvYcHye6FH5Zt7wp1zXvFxysnTz5F2OH0I5Z7NfsoXQi0AVXb/iwttj1H3xoO/t22cBOe2VZ00/sufg4mS3mpR4+Xr5e5zIurI0KbW9+4LPmKWbw1+ftMVXuOOM/7O8sfi6L7PTAuE62s7Zxr9k2TRlkZ4Bf19R0yh+1Cf6+X0xeaQvoQWADor44OO+2daItF1gHXyH08TjCWDF6ng+3nWPtC3tVhL+bDjH9ec2+cv/ruo3yQ7hmvnF2zkkWrlyN6H44VF8E87zZod0CO3TILVcvwMkvf+rQwbp5IghvokdX35r0rMbKPVVbV2rgv3zdpc7msxo/Sp+NkRz8uKXTnh5Xw2GHWqvqNAOjUadD8wxMLPtrQP3ttikbH194UKfIoryDPXPuqUmdP7m8bNx3g7oN6Z7qc+fwJuVl0Ndt+eWf6eCvFi3zv9ZfB6Rbeg5hB7jSujVPwIAGN6eBrxiqNtDtsnVt9J8PbWfHl42MHx5XVNMO1XtdLlOdtVOdg+7u5e87cmFe6uHlhbrfBubxdBn8IGo/DanzCdqULxIzvCduXPpMzW+7OljP4OcyyU4FPcGoH5mnDr2TFdq5MU8Yv83UlEG29GAy+mFA+6bsWkdWTMyCpMI5VdhO2LohnpmdieqUSRkHCrRjLRJdevw26/Veh5qmPeOx4cLq4CsgkXL+MaxbdK67pfyYfe1+bYeuZj7ehv1bCecWOBDbfBgnQVIzMbWP/OPsnJMsXLlhWIHlStU8Koj1gzAAj6wwmI5Bput3fV4P7AFd2UyZL8sayKHDm/xeLffvZhVHZQXN9ULZ2GcvdNZbSMdvCBD4N38zZ9cbdPo4YO17ocEj0WEtqVN6UnlP7W1zYhqy7Ehvb3ZoRemwzR77ZDEBqlJlYPT9AzvPP3j0r7ao49St8nHLPBIUJuGAtjx7sFl32BjrQBDYmXaei50JZpLTOzXPGQRrdEh1U09rOzFpuW2t6LoHNnl8WUxmw0lzhSpG173XXa1weOKwVklxzCVnXurhATZr54b7Hn0W89+RFTzTp36frCes9hwmSJCrH93SzgeML/f10N65Pv8lMiadcQoZe97qlUcWn6fL4r5WzC4aL9yWtgzJMjLOKqgbzyTL67TdSdecY9zrB+3yXoR2QMM+yyROxvNzTBbZafDAbXnBE6Zj89zC7YqEqnvea9tAGWRngJfvHar23IkXJmJmks790L++jCTPal+KScyWEu84AGwHkDzptUNf5PXby1RZU68atvRYBAusg6PpUfexTZeuzjlz3SSn1Jj1BNPDFe2s3UcTZZhXmPyC65PcXT0a+GXT/6wngZyZswRxtneuPznFfScLKndRiSpGzoQNzs6vchlm9o4PqWsa8HZtX51TnXfTpwo7MiVjsn8vv7jM5n1DnhQc3oXd14QsK/bfzHNgrxfIcsfttqpB9lZW8YVRaGNRZ0f+2XHyDjcDrAdEVgQCneIxtvJjnx1+RcsqJpeNrAgEK+Mp12Un2iEz1jyr6KgfPneeVhUmhh3k8/WWWgH1tUvvBPoQb/9ZBU4NK4Gx1QMEa8dm90Ww4wSTlnBVJtgJmUU2AJ+LlRB8boosnPZGV/uNPaJLd1VulpiXenhY/nRJ7W22OyagDP03+9oN3Z9YeW6zFeqagD/pk7vU4YBNy+oJEpJx98fQiQ41vru7n/Zp4KyWWZ8/4DFJdsfCU4XObRB3wzJKr8IyuOP3+bpP565ess1smHIMn9pE37r6OgXTu+s7q5+xsemCeMbZlbj/w67wayI7xzbgDQAHubXw+kXvaE6CSXODuio+3CW6MIF6Bj+XzSdOgfVWclcMJgUcUz9HxneazSyB7IyAha1goh8D/V6tLGhCxYN/HMDmwdfGdnJ5/TaSVJdEe3pi292wO8UWWwdHgmTVyIUTLBbo9sRRP+rTIEh+zSZKzz7auYqTyFeJPe7rlPl9FNcPsX9+PHeSgnzVEXP9SSgkyaImjneNEZm2fFANqVYslqm22g2yVO6Wy7DjmO0mNYxRqG2cUn/wQsvrFeraDo1sfTOrHzFON8xAd1cTjxtB0IJVfFxXEHwg2Mcgv6Rdf4C2XaEKa5O7Q8zqVO+O9fOozrqKbZMwtHBik8tGdgOwXldVoscn+5/86JT2E7IarDTvIgETcYbC62yFu5libTpzYIKr9M3YU9ZBtRqOlZhAL7DSjMAAk6EwUMNOyNsfXPMssgrsFsBkyiax/LKBn4KTvSDaTayIzAbzUo9xCP13jf/ZVarotvGET15t0T5PgLVscjdGZAV0CbdT2iDV+nwE8M6OhQ87dGvHZBBDuCu04fiN7qxi1rlsdgcOrmNOF03tD54gBYH5CH3BRClYudaxlBvPoO2CSSh2XupHkdgqOjaLIdzlxHXDpGypa5JbeoIHXzu+n8viE/OL9bDjwvYF+uGwhglHim0rgeysUPnIehyflP7qsd7ouiT7lF+bVjJtxvCPgx51lS7weFO2kfUDuwa8fjv0zfBXjTuzs3DBdXAkaGe1oz1K78Fa7TC5pI5elXZw2/4ME+0/9K2um965lD6/T+D4Z1c/QPpcfzJyT7K868RKBfR4wAMZK3pG6dwtZRGcyQsmoQgWeiehAUB2600cdYOgJRKECIIFgZ+zpRF6AuDwO9/N2YcuHSKDHZHFLTr6liJsW9WGFclFGFoO+KYgizEcJHxQBiQNvbJ/p8ams1ILWZUU0pnn7sYCb6udiNtQB7CKodp0RlFbPI3uwZ4e3yudQGIgmOzCbhOcIQKwcMIHm4wJcxZZNa7UhMp1qCmyTDBpRyCjH80k81KPsUE/28RSsLiSTmj/wu+/smBy7N7Ln/xuDZ1ACb97A0c4uU5yG07asKPXuY0Eugy7qK7x5GytLxpnXLq7bYIJJZIr+Mv6tOV+BwMfrk2PJBZgq/Qjjq3CnUXRVcliCPvb9FNgQ8Nk2Ph+LotPzM/fYYJr+wAx7WkPeuq3bWWQnRWWf2tS3+yy0HD8slenc/jg9QbbC/MdPgbsVKtPadV71vCOA5Vs1DqhbBrsBc///H4bT8IFa9gPsOg6OJoaNdZ2ojtz2K/Ua+E8M46yt4gFjtzdG/nbqKmx/pnaj/GdgTqZh79jze+BO8d3dZeZylzfQ75JFnY659wI4apQsfccL6kvr4JThUPVmU6UoUt6l0qCbQ4ujAzu78OqJya5wdarOx7AngziSDh4ueSgxd6HaK8rCBGgJ5udQEetnmB7PL50Tekf+4h7JCsjsivU2YzeIxxhCrK1L9jaqcv1Whmi5e1T+6JFy7if8sasbCj5qHETRoP2r1obiu+5QZua1+aFiN4EdeRgjaOGuO3MItv7E7sDwvvA9Sr9GNddwu0goybO5WVe6pEO+tOdBDEqgLS7U3ZpwBPn1C3SKvGm+953a2a0/XDEPouJ2EQcweQ6idd+GrBCF9jFvQFPN8IgsEgQcNq6rLSqajciJptk7c5FP9gF5PopHK4tj7TdXsecxXirBnHUyrdmobeNJ4jVwY7/LH4ui2yx+G2bnzLIlhDuxw5uATTl1335bJKJXDd1C6F9TddvUXfnjrJtccbx26NtwwLp4CsgaYxbNVVb4kDbB4n+6O1C4dd0oE1CO/x+NuotYOfJM1UunHqpL6BGQm3M+f0rOjHxXD+FpSHSNnMIGmpOqybkhOjM/DM7fYzdP1dUmZFfGFrksSN2IxvSXvmwCO0qdZwPxAYUg7RzMUg7j8ci2rbivvhWEARBGAP9Ja07ageeIAiCIAiCIAizxBIfkn4TBEEQBEEQBEEQBEF4Az9//jSPSG4XyhvZRjY7SF/NP9LH+bDI7So6lQ1pr3xYhHaVOs4HYgOKQdq5GKSdx2MRbZvcLiQIgiAIgiAIgiAIgjAFJMkiCIIgCIIgCIIgCIIwBSTJIgiCIAiCIAiCIAiCMAXyT7I8nKl7lNRx0jMnC8aU4ezBPAe/rqkZPzeSHl1/xa9m45c/zvjZfPPytelpmx6d/X49ld8OF6YF9NGMLxzx/oHuB+fykhUEoSzAdoe+lm22HcM43ssHT5GXr9e5+F/VbtxGTeXn88XvX/MkJW5BHDSmTvROmnT9yzyZKfxjwPa3PuJ1w3vCc37Zt1y3ALwxt+vPnTKZOHgsWe9154e0fuud2HPmiMRIsTGF9pS4KMQbJ2r9Cuyfq1d86POuDrptbohc9xXZRcAdx3xEfNio1+YGz1gsCTknWbjiF0T3wyENh8/Ufjwv3uEYtra36PAu7IKX7x0iPjc2D13idzDL1PrrgGrq8aJRo4O/WtwCQnkY0ODm1IwxPtz+gXGtHZonIC9ZQRBKAQefK61b84T5NaD+dpue7Tj+Muue64W63wbm8XQZ/CBqPw2p8yl/D7f8qUMH6+aJkC8pY2Dw45ZOe+bcsEOtVXWaQcBep4g39Mlmvm4RpMTcD1fU2XzWZepVaedPxMIsu9ehJus8zt9TXU9w02RLEsvnARIsKz/2dZ1xPDWp88FO2raUXbCv3a/t0FWhCdIZJSVO7J2s0M6NecK8DPq0dW30jQ9tF6cUqy4CaI8PA9q39efx2fy2osfyqNeEQsg5yVKihMRmk06PusZoIlCrUnNTPWGiKxI60wdH26QmMqS//7/033lQ37agnDivjS8Mc5Nl7PvKrLhhWZGhRx3C+gblDjLKTbrigNOes3U8e+B2slliR/bsxKzKQTbIkvpk+bArIBj89py7WiJkA4Eeh4N105ahDpoAqtfmEMGQl6wgCCWAbS472/veqXnO8Di+vdmhFTWOZ9/Ovnzd5QCd7RJ8S8Q3xVacje/x++io/4PPglz96JZ2PsT9o20znLPxAK7txgx2MgafxzL2vPV/Hll8ni6L+9rkq4zJ+vn6PPzM5p9hwgplsuUYf6fC6+UPr3umYgVVnoj/D/2LWwZ7Lffcm/COgRcaPBId1kwZnPpCxzqb99TeNifSZDNetxhSYu71A0/ykCen1KSGSQLVNk6pP+A298rO8+King/cuwno1RZ1hmn1PaWGJEhfISVOZJtdp3u6PzbPGSQlMbdS48XazKnEqosBNgxUe66uYqzqZNWo12YC7zzR9W/J/o74MeubnVgBh8+3BLJTnpsW850sapK9Qjtr+wVn9V0a1Dju00A5+C511vi5foHLx6/aTN9Tm+hbVw90pnnB5/76f+h/cOCKbGtcOW+5Tup9/Lq7U6aUbF5yWTvU+M6B6tq9yWzes3eFcnGwxCNRZ4MvqfIYrobaOoZ1T5dN4soO6fnjuQ5q1eDX54pf7ZkjEOgdx/uSW/1khQbsjCLtmpesIAjvDAKPc6o8RScGkVVCrM7u2Yn/bLL86ZInv6d0b1YrQ9/E1mkDtgrHM7WpQ10THCV8tPL/1rbpnSvYWXJ/jBVr7R+DlfzhPg2CFW0bD7RocFJnY6jfP3yq0LmdHNywjFr1DsvQY9m+6YPn6z6du4mIEbHHW9FJAn/5Acpjy375sU/Ke3NgudviiaYpS7Cr4TVeKz+u+61pdntwxHWkT7/8qtClfV/QL24Z7qnauqJe5P1v++lP/xiIrn6HuzjO1I6GzqeKfrPCL5vpukXjjbnN5KTWp/YfrpUIuf1hk24psqWI5acNkk0V/pcGkq920rVE9SMzjxBS8ceUPHm9qNBzZDclkpLhTqHnzQ7twj5OIVZdFLADs5IyFke9Ngv45olqoSUxf7WwPlUwz9XvuT8+pK6xv7dk/Ejgp/yy056bFpNkWT/QBd7oTrxSMwmVj0Sd75jgD6jpOo51fmxXwT7s6KBDUX1VQU83zHVWK6Vf2a9WwtWJoNxwLtvsNP5tQP1t62iWqbEZ1mbrY8z9sFHrHzdMMB+VTQBZJ8uMrexw5Muf9nlwWMc1ebZwYcHYCpyW6ctfPepyMKtW06DPWG3DilpesoIgvC9IHNyYyQC2Uh/Vla9F8iBYlWYfVb3BhGJ+CH1Tjf/ZHZPR7egJH73aon2e/GrZ5O6LyMrqEm4bsZMqGw9gYuDsVlC20LTrtt0ZsEyVNfwFW9T8TfdBpD9AauzxdtLLD/SkxsY1y781w7gl8OmIlbb0robXeK387P9ps6ESYuijhlnBXl6vUNeuRrpb/4My1OgAOwkwgQp2i7xtJ4t/DJjr67NBfXt3euxoHcJ4QgDvl81y3cLxxtx6FRsLY7Tnn4iG4ylFtiSx/HRB3Ju0iy8PPR4tIHq7UHgLleDHHydi8mrHcl29jrgfehZOZJcrVZ3omzhWNU8XAMxrE/XlturxuVGvzQJp88TE/DWozzLVVtk2GX8BPbNsWT8EW63O+GWnPTfNOcmCraShgUbm/z1BQEHfrujqRyXYIgmwZahrV8GeFuM2iHDXDTuXGw4e/xENwBGopQIljdx6FcoGKyEqucIohXbul8ShDCKCEfNcnNabge4GwQ4mWmr7r9O20GfcN85tnpesIAjvjNrebsYmbhc6vlcTQNxCE6ykP3Tp0JlIzxVYJb1r6PpjF0lwq4ef2hfTVnbHhDkPMDF2vyMguZqlEyjh927giO4ginIbBoHYCeAkpvOIPUaXH2V3yoMkhnlIgU/X/t9dlEnj1fKz/w93t+hJknp0skuEXUF4H/TV8jgwsthJwQHu/1nRfsbU5S14xwD0JbidCzEMqURYqBfQIUyukejxy2a5bnH4Y+6IP1cxH/4iuRDu+EKCCX3uly1XLD9dsFDYp7q7YMT9uFs7D9omjk5GYSwdRnamIZEQJhUXFX+ciKSkHlvYNQD7CbsU1SvoICbQWeJPv6x+ughgXtuP7ea43qvT+feXka/NBk6fO/PExPw16G/Wpz0Kdkm6t6UlSZP1f+ZbyTnJwoXl8gW7GL416dJdxSma1QYPv0Pqf4waQWRPg1WpvQFV0XHmNResDjW//qd5NruoLdePdiUPW4cRIEb76vxxVLjnyu7SYM3IrjfoVK0CoR311wTHdQAHDCIMo30+avuqMBr0Jb7ISrXjB3YvF+lf+pWXrCAI5aT2BdtprZ2l6PcOzCzYGekGjoxK/FufBp/E4VfaChQmwkoOB27l+cxeKiRi+9QR+ywm0q44gol1klF9MG7skYXXyh8pz0VfJ0ZWW3R5zRNN8x58b0Lyvv3obROoM71Wflx3s2N2onSJTCCLFdbgWnc84UJyJSK7Qp3NS2r9wz33tp0s3vb3fVbaxCxFduLr5oI/5o7qhI35lql1gS941bK2z/2yJYvlpwwSALiVXdeZD8Q8TzY5GdP7i0pQd+hANdg1Nn/tkj9RvfLqoMSqo2Gb08Etq6YNtd151rvsRr02A/jmiejv5PzVgsRxuPOxS+Z7prz4Zac9N10aIl0zh6CBylC1spRjuiD73KWGWr3DihNWpeKrfbPHfPaV4CJ9nA+L3K6iU9mQ9sqHUrYrElpYLVTfoePGDW9jEXRH6ihMC2nnYpB2Ho9FtG3FfCeLMGfU6HOw6jVvX4ImCIIgCMLErLZof82uFiZ3DQmCIAjCvIL9l5J+EwRBEARBEARBEARBeAM/f/40j0huFxIEi+jM/CN9nA+L3K6iU9mQ9sqHRWhXqeN8IDagGKSdi0HaeTwW0bbJ7UKCIAiCIAiCIAiCIAhToLgkC366cMQ38OcGvnjN/Wm2ouF6hz+HJwjjgC8TNt9u7f5Ou/urGIFO5yVL6icqE7IYx1aWD/sTlqGs87OW7nXfY+zPErZdT/6FzlRboa+Sv2oyy9hvbW+e/HdjE3umrmPg1aUUfc6io5aIf3Kvy0dpdRdfJBrWO/Kt+MF5ty6hPvllBYHBWMszZnLGZxgb+fXUL5sVv514fbxMUzZvsrRfXrJzhOtvEnWE3Q1fc2MmYTReH+zokns+i+zCM0pfR+ryvAA75dinElFMkgWdXDs0TwRBGMnDlfqZNWw5C3+nnY3IHn5W0PymO9W1g8lN9kz9nJ6SfWpSZ09PNF8Gfdq6NtfgQ/3MJ8uef7Tn7okuIIvrDmjfyD1vduhKHGIqaNfTHrfVl3+mA/VLHMvU+uvtv8JRRgY/iNqsZ50v/8P8hGDN1PU1UnTJq89ZdNSQ8E8DGtyc0r15/3CsMhYNt8nvdYqU+set1iFVbv1rby9fd502IqqbCYFPVhDyhyeobNT02Hqm5rddlYTw62lS9i3g2oM9o+vwZcZOpI2XPGTzZtz2y9LWWWXnBviDD6G/0XVcMRN6rvvSOVVMvIQDMdN8TlynTIoPzuKvvbKLzih9HanLQhEUkGQxk7hem7bMmXeDB67N5gWrk1DCIMtnVx1gSO25V7Jj7jWNLFYymr9jNYOv959aTBDGZv3A8zv2PPGjJjVMwFbbML//npOsmvRvcCQFVhssATkdQN62VrS+mzHUu+vz61dmDNSJ9nhS+qtLnbUKDcwq2Mq3Jn0Wh+iHbchK65YOa1iZYduj2hWTaGt7XHtU1MrodIFNrB/d0s4HLv+/2t19tq76dV0/PkwiICBNl7z6nEFHlbTHP/0aUJ8Oza+nlXO1TE9+7qm9bU5wPQaPpHTIbcPlSlX9tWx9rPD/ftn5R4+ps2CF1De+nJW+wLc3+T18KD3ANUJZqxvuquv7tqdTvhOuq41zfLFPhLANmn/C0mvccemdSLrXtfX2nQuoUCXQWVClCvseJGCbv5mxvN6g06Mulygpm50X6n7jzxiYenzgsf4H/JpvDOQlmz/ecQ47dtwwifplamwSdb6/5CY7L7x871C15y5wYMHDTv671L++jCTOal+GXj8kREnzwVn8tU920RmlryN1eRbwzs/9PtgS3UlofDz7JD0n1+etL/PKej/z7eSeZOmdrNCAg9j3XynjIKLWVyupyOhhNXSXG1oroc3y6XL2TnhQ23NPFTofMZhhDOw1h0NHmTcv9fX+Zp4LQiaMIYHOquAtye0PGwznJevSp8EvBJBbiTHE76CdHw0zBu456jDG6qhDdBGXFRKsH9Dz9ZZa/fQ5P9ijvl29cXYVzRLLnzp0fwzd8dhEdmq7rapZGXV2U7mk6lJcn7PpqNc/8STi9tjs4nL1uSxwwLDyY58DeyRMLNHdN0Ebsm5d0q4OGO4aZjKQIrsQHBJtGN247tM5dIPr3jBtMXxqE33rshYhXrCr9ZdUebxV70Zya2ctrhs96j626dle44vfrhZBZOfBhqot4499XNyY5/Jjn0cLg3H5rRnUa/9HfAXUve4ztR/POSD1nTPiCgT5DeqqAHaXx7SNmW7DibpKcoKk7Ns4pA6PAtUmgf1MGwN5yeaMd5wzKlmlwQRVkZfsnICEHxJ/PrD4VK2YNhAy4vPBWfx1muxiM0pfR702C/jm534fbGEdqRibzMf98SF1jf29JePLAh/vl/V95iTknGTh4OOIXRGy+h926PZmh1YKyux72Q5X7JGhx2Ry+dM+dxKcOA5krTCQTZlxTpWbHad+W4LaH+xcP9j3h50thliYDJ1xRoBPe64RCdGr0iAvWResOOK9odGxY4jf4SRssPrYp8EzPzze98gK2dkKV3lXK1QdYY9mlmBllDXo45beeeWSqktxfc6gozwh9PonnliEE2Ura56WgN4dT52P6uxvVmjnBruDUO8aHThJftuG2GGxayeCG12z+ueXXQxOqWESmcu/NYmgG+vcEnYnCvQALyZW68N9uMEOv0A3avSZA/4VFQPw8Y4xTmJHiH7kjX1C9OTFBuNoF1VbJBsxJky96jxWEnoSXNcZd75zFrVK2DVJLYxZvRJZ+3JPVbtCvdfha3DbemTfxint2+RAYD99YwDbjvOQzX9secf5aosur/vBjrxz7mPEpXnJzguVjzyO4vaefUWPz2HsJPuTXysikTbz+HxwFn+dJrvYjNLXUa/NAsn5uT6f9MHmKfuc2mo32IkCn2XZ2mzwqwxstTrjl037zLeSc5IFDgcOko+nNm1tt+m5wFUeZQoRKKhnzE2HuqbB1L19ajLplFHd1z+gyhp3YpDJwhE6zQTscDpGLlgZE4QJwBa2cGs2B243+MvGhEL9xUQLgU1esnBgh3dmsoDbNZRcj86cRCJkYexqG+H3YSjZmypV/tGgprOKCVl/8kZ4ndgqLyYg+tn8EFsZjQTtuF3No0t+fc6go6t+/xS5rtJ9O2ksB9ierv3SM7W3sbLH/gkT0mDHJW5lCCfbQVtycKEnz+my80+4soUVKzJ61DW7W5Qe4EUEYoFOoo3C1frALiqdgx4hMOuEfZLYvVEcCKoDW/HQNTtZGG/sY1nmmOc2DFRtzAR9wZiwY4SPxG0RTsIXE3K1a8N3ziWwX/hc9YD74DzcrXfRJFqr6IDYI5sNJMicuAxtYhM4iTHw95xkixlbiXHO2nvl7BDc5/azibS8ZOcBJBn7sdXx6706nWNcrTeo2op+Bw12gdUDmyCk4ffBWfy1X3bRGaWvI3V5JojPz3VNfD5YwzqyR3Rp3nN/bE57SZP1f+ab4QsVw1N7yA57yA67EFA1fWwN20/mZO80PG/K8ny95ZG9H54G50JZH9wxzvtP+Z36mqc9/To+c+u6qFoLk4A+LAfPw/Z2qFeBLmEMWV07hqaBvGRd3U4ZQ17ZlOsWOPZHgbKUkdBmsO1RbYW+0vYkao+cvigR47Tr/bEpe2ATbV11/XX9+HD0KsCrSyn6nEVHLbi+97qvtzfk3geUMyyf24ahz/Hrjl+2GPCZ74MeU6dWD2x/R+ICft2Ou+A8j03WXa0zPp2LxQs+/S0AfHakfMeoi6+OVs9dnDqwTm2ZOkTGJR+JceMbaynjz+If6+7nh+WLy+Jvdvzj2T8G8pIdH7wvO6+P87Dv8pIdH7yv1Lj+ho9oP7ptwodHx8tC2drZ64NT7EUW2fcG5XlXRunrSF0ulqzt5NqZ0P74fDDOwW/HXmMfqOrLehPWm8ev8jF+Wf9njg/e57KE//jk3IGtPnNaNSEnRGfmn9npY3zXyBVVZuQXht7Wrj06+31An0v56z3jI3YjG+/XXlnGFFZNcasKZPE+fCdI7NaXkoF25QBR3d6hdpzgC2jvGu/6HTHTZhHGmtRRmBbSzsUg7Twei2jbivkJZ0EQBGFMMKlboR11i9a8gklsnQ7tbQGCUCpq9Dn43gkei2vhdwKVGdxPHny3yYgvNxcEQRAEIV9kJ4sgGERn5h/p43xY5HYVncqGtFc+LEK7Sh3nA7EBxSDtXAzSzuOxiLZNdrIIgiAIgiAIgiAIgiBMAfwmnqTfBEEQBEEQBEEQBEEQ3sDPnz/NI5rf24X+4z/+g/7pn/7JPHs/ylIO4XWkr+Yf6eN8WOR2FZ3KhrRXPixCu0od5wOxAcUg7VwM0s7jsYi2TW4XEgRBEARBEARBEARBmAKSZBEEQRAEQRAEQRAEQZgCkmQRBEEQBEEQBEEQBEGYApJkEQRBEARBEARBEARBmAKSZBEEQRAEQRAEQRAEQZgCkmQRBEEQBEEQBEEQBEGYApJkEQRBEARBEARBEARBmAKSZBEEQRAEQRAEQRAEQZgCkmQRBEEQBEEQBEEQBEGYApJkEQRBEARBEARBEARBmAKSZBEEQRAEQRAEQRAEQZgCkmQRBEEQBEEQBEEQBEGYAks/f/4cmseCIAiCIAiCIAiCIAjCmyD6/wF69NnSllyC2QAAAABJRU5ErkJggg==;" vertex="1" parent="1">
          <mxGeometry x="-236.5" y="-160" width="1113" height="171" as="geometry" />
        </mxCell>
        <mxCell id="2b92ZgBnTiT7di_fK2Un-2" value="&lt;h2&gt;&lt;b data-sider-select-id=&quot;7e18d905-560b-4734-9866-bc5d503d5bd9&quot;&gt;&lt;u data-sider-select-id=&quot;c18a0175-fe8d-413f-964b-1855cf0d83a1&quot;&gt;Primera Forma normal: atomicidad, eliminar grupos repetidos sin perder relacion&lt;/u&gt;&lt;/b&gt;&lt;/h2&gt;" style="text;html=1;align=center;verticalAlign=middle;whiteSpace=wrap;rounded=0;" vertex="1" parent="1">
          <mxGeometry x="98" y="60" width="426" height="30" as="geometry" />
        </mxCell>
        <mxCell id="2b92ZgBnTiT7di_fK2Un-3" value="cliente" style="rounded=0;whiteSpace=wrap;html=1;" vertex="1" parent="1">
          <mxGeometry x="-20" y="320" width="120" height="60" as="geometry" />
        </mxCell>
        <mxCell id="2b92ZgBnTiT7di_fK2Un-4" value="&lt;b data-sider-select-id=&quot;694bb381-1f7e-4815-80d9-c35dcc9006e5&quot;&gt;&lt;u data-sider-select-id=&quot;7d5a8feb-94d6-4b1f-9e1a-0110b242c63b&quot;&gt;idClente&lt;/u&gt;&lt;/b&gt;" style="ellipse;whiteSpace=wrap;html=1;" vertex="1" parent="1">
          <mxGeometry x="-100" y="270" width="60" height="50" as="geometry" />
        </mxCell>
        <mxCell id="2b92ZgBnTiT7di_fK2Un-5" value="nombre" style="ellipse;whiteSpace=wrap;html=1;" vertex="1" parent="1">
          <mxGeometry x="-70" y="230" width="60" height="50" as="geometry" />
        </mxCell>
        <mxCell id="2b92ZgBnTiT7di_fK2Un-6" value="apellido" style="ellipse;whiteSpace=wrap;html=1;" vertex="1" parent="1">
          <mxGeometry x="-20" y="200" width="60" height="50" as="geometry" />
        </mxCell>
        <mxCell id="2b92ZgBnTiT7di_fK2Un-7" value="cuil" style="ellipse;whiteSpace=wrap;html=1;" vertex="1" parent="1">
          <mxGeometry x="38" y="210" width="60" height="50" as="geometry" />
        </mxCell>
        <mxCell id="2b92ZgBnTiT7di_fK2Un-8" value="tipoTelefono" style="ellipse;whiteSpace=wrap;html=1;" vertex="1" parent="1">
          <mxGeometry x="98" y="220" width="72" height="50" as="geometry" />
        </mxCell>
        <mxCell id="2b92ZgBnTiT7di_fK2Un-9" value="nroTelefono" style="ellipse;whiteSpace=wrap;html=1;direction=south;" vertex="1" parent="1">
          <mxGeometry x="109" y="270" width="71" height="55" as="geometry" />
        </mxCell>
        <mxCell id="2b92ZgBnTiT7di_fK2Un-12" value="" style="endArrow=none;html=1;rounded=0;entryX=1;entryY=1;entryDx=0;entryDy=0;exitX=1;exitY=0.25;exitDx=0;exitDy=0;" edge="1" parent="1" source="2b92ZgBnTiT7di_fK2Un-3" target="2b92ZgBnTiT7di_fK2Un-9">
          <mxGeometry width="50" height="50" relative="1" as="geometry">
            <mxPoint x="420" y="290" as="sourcePoint" />
            <mxPoint x="470" y="240" as="targetPoint" />
          </mxGeometry>
        </mxCell>
        <mxCell id="2b92ZgBnTiT7di_fK2Un-13" value="" style="endArrow=none;html=1;rounded=0;entryX=0;entryY=1;entryDx=0;entryDy=0;exitX=0.75;exitY=0;exitDx=0;exitDy=0;" edge="1" parent="1" source="2b92ZgBnTiT7di_fK2Un-3" target="2b92ZgBnTiT7di_fK2Un-8">
          <mxGeometry width="50" height="50" relative="1" as="geometry">
            <mxPoint x="110" y="345" as="sourcePoint" />
            <mxPoint x="129" y="327" as="targetPoint" />
          </mxGeometry>
        </mxCell>
        <mxCell id="2b92ZgBnTiT7di_fK2Un-14" value="" style="endArrow=none;html=1;rounded=0;entryX=0.5;entryY=1;entryDx=0;entryDy=0;exitX=0.633;exitY=0.033;exitDx=0;exitDy=0;exitPerimeter=0;" edge="1" parent="1" source="2b92ZgBnTiT7di_fK2Un-3" target="2b92ZgBnTiT7di_fK2Un-7">
          <mxGeometry width="50" height="50" relative="1" as="geometry">
            <mxPoint x="60" y="300" as="sourcePoint" />
            <mxPoint x="119" y="273" as="targetPoint" />
          </mxGeometry>
        </mxCell>
        <mxCell id="2b92ZgBnTiT7di_fK2Un-15" value="" style="endArrow=none;html=1;rounded=0;entryX=0.5;entryY=1;entryDx=0;entryDy=0;exitX=0.5;exitY=0;exitDx=0;exitDy=0;" edge="1" parent="1" source="2b92ZgBnTiT7di_fK2Un-3" target="2b92ZgBnTiT7di_fK2Un-6">
          <mxGeometry width="50" height="50" relative="1" as="geometry">
            <mxPoint x="66" y="332" as="sourcePoint" />
            <mxPoint x="78" y="270" as="targetPoint" />
          </mxGeometry>
        </mxCell>
        <mxCell id="2b92ZgBnTiT7di_fK2Un-16" value="" style="endArrow=none;html=1;rounded=0;exitX=0.25;exitY=0;exitDx=0;exitDy=0;" edge="1" parent="1" source="2b92ZgBnTiT7di_fK2Un-3">
          <mxGeometry width="50" height="50" relative="1" as="geometry">
            <mxPoint x="50" y="330" as="sourcePoint" />
            <mxPoint x="-20" y="270" as="targetPoint" />
          </mxGeometry>
        </mxCell>
        <mxCell id="2b92ZgBnTiT7di_fK2Un-17" value="" style="endArrow=none;html=1;rounded=0;exitX=1;exitY=1;exitDx=0;exitDy=0;entryX=0;entryY=0;entryDx=0;entryDy=0;" edge="1" parent="1" source="2b92ZgBnTiT7di_fK2Un-4" target="2b92ZgBnTiT7di_fK2Un-3">
          <mxGeometry width="50" height="50" relative="1" as="geometry">
            <mxPoint x="420" y="290" as="sourcePoint" />
            <mxPoint x="470" y="240" as="targetPoint" />
          </mxGeometry>
        </mxCell>
        <mxCell id="2b92ZgBnTiT7di_fK2Un-18" value="Realiza" style="rhombus;whiteSpace=wrap;html=1;" vertex="1" parent="1">
          <mxGeometry x="260" y="310" width="80" height="80" as="geometry" />
        </mxCell>
        <mxCell id="2b92ZgBnTiT7di_fK2Un-19" value="" style="endArrow=none;html=1;rounded=0;exitX=1;exitY=0.5;exitDx=0;exitDy=0;entryX=0;entryY=0.5;entryDx=0;entryDy=0;" edge="1" parent="1" source="2b92ZgBnTiT7di_fK2Un-3" target="2b92ZgBnTiT7di_fK2Un-18">
          <mxGeometry width="50" height="50" relative="1" as="geometry">
            <mxPoint x="440" y="390" as="sourcePoint" />
            <mxPoint x="200" y="350" as="targetPoint" />
          </mxGeometry>
        </mxCell>
        <mxCell id="2b92ZgBnTiT7di_fK2Un-20" value="operacion" style="rounded=0;whiteSpace=wrap;html=1;" vertex="1" parent="1">
          <mxGeometry x="545" y="320" width="120" height="60" as="geometry" />
        </mxCell>
        <mxCell id="2b92ZgBnTiT7di_fK2Un-22" value="" style="endArrow=none;html=1;rounded=0;exitX=1;exitY=0.5;exitDx=0;exitDy=0;entryX=0;entryY=0.5;entryDx=0;entryDy=0;" edge="1" parent="1" source="2b92ZgBnTiT7di_fK2Un-18" target="2b92ZgBnTiT7di_fK2Un-20">
          <mxGeometry width="50" height="50" relative="1" as="geometry">
            <mxPoint x="210" y="360" as="sourcePoint" />
            <mxPoint x="310" y="360" as="targetPoint" />
          </mxGeometry>
        </mxCell>
        <mxCell id="2b92ZgBnTiT7di_fK2Un-23" value="&lt;b data-sider-select-id=&quot;694bb381-1f7e-4815-80d9-c35dcc9006e5&quot;&gt;&lt;span data-sider-select-id=&quot;7d5a8feb-94d6-4b1f-9e1a-0110b242c63b&quot;&gt;idClente&lt;/span&gt;&lt;/b&gt;" style="ellipse;whiteSpace=wrap;html=1;" vertex="1" parent="1">
          <mxGeometry x="394" y="210" width="60" height="50" as="geometry" />
        </mxCell>
        <mxCell id="2b92ZgBnTiT7di_fK2Un-24" value="&lt;b data-sider-select-id=&quot;694bb381-1f7e-4815-80d9-c35dcc9006e5&quot;&gt;&lt;u data-sider-select-id=&quot;7d5a8feb-94d6-4b1f-9e1a-0110b242c63b&quot;&gt;idOperacion&lt;/u&gt;&lt;/b&gt;" style="ellipse;whiteSpace=wrap;html=1;" vertex="1" parent="1">
          <mxGeometry x="320" y="240" width="74" height="50" as="geometry" />
        </mxCell>
        <mxCell id="2b92ZgBnTiT7di_fK2Un-26" value="&lt;b data-sider-select-id=&quot;694bb381-1f7e-4815-80d9-c35dcc9006e5&quot;&gt;&lt;span data-sider-select-id=&quot;7d5a8feb-94d6-4b1f-9e1a-0110b242c63b&quot;&gt;tipoOperacion&lt;/span&gt;&lt;/b&gt;" style="ellipse;whiteSpace=wrap;html=1;" vertex="1" parent="1">
          <mxGeometry x="460" y="190" width="80" height="60" as="geometry" />
        </mxCell>
        <mxCell id="2b92ZgBnTiT7di_fK2Un-27" value="transferencia" style="ellipse;whiteSpace=wrap;html=1;" vertex="1" parent="1">
          <mxGeometry x="380" y="151.21" width="80" height="40" as="geometry" />
        </mxCell>
        <mxCell id="2b92ZgBnTiT7di_fK2Un-28" value="pagoServicio" style="ellipse;whiteSpace=wrap;html=1;" vertex="1" parent="1">
          <mxGeometry x="460" y="141.21" width="80" height="40" as="geometry" />
        </mxCell>
        <mxCell id="2b92ZgBnTiT7di_fK2Un-29" value="pagos" style="ellipse;whiteSpace=wrap;html=1;" vertex="1" parent="1">
          <mxGeometry x="540" y="140" width="80" height="40" as="geometry" />
        </mxCell>
        <mxCell id="2b92ZgBnTiT7di_fK2Un-30" value="" style="endArrow=none;html=1;rounded=0;entryX=1;entryY=1;entryDx=0;entryDy=0;exitX=0;exitY=0;exitDx=0;exitDy=0;" edge="1" parent="1" target="2b92ZgBnTiT7di_fK2Un-27">
          <mxGeometry width="50" height="50" relative="1" as="geometry">
            <mxPoint x="471.71572875253787" y="199.9967965644034" as="sourcePoint" />
            <mxPoint x="540" y="291.21" as="targetPoint" />
          </mxGeometry>
        </mxCell>
        <mxCell id="2b92ZgBnTiT7di_fK2Un-31" value="" style="endArrow=none;html=1;rounded=0;entryX=0.5;entryY=1;entryDx=0;entryDy=0;exitX=0.5;exitY=0;exitDx=0;exitDy=0;" edge="1" parent="1" target="2b92ZgBnTiT7di_fK2Un-28">
          <mxGeometry width="50" height="50" relative="1" as="geometry">
            <mxPoint x="500" y="191.21" as="sourcePoint" />
            <mxPoint x="458" y="195.21" as="targetPoint" />
          </mxGeometry>
        </mxCell>
        <mxCell id="2b92ZgBnTiT7di_fK2Un-32" value="" style="endArrow=none;html=1;rounded=0;entryX=0;entryY=1;entryDx=0;entryDy=0;exitX=1;exitY=0;exitDx=0;exitDy=0;" edge="1" parent="1">
          <mxGeometry width="50" height="50" relative="1" as="geometry">
            <mxPoint x="528.2842712474621" y="199.9967965644034" as="sourcePoint" />
            <mxPoint x="551.7157287525379" y="175.35213562373107" as="targetPoint" />
          </mxGeometry>
        </mxCell>
        <mxCell id="2b92ZgBnTiT7di_fK2Un-33" value="&lt;b data-sider-select-id=&quot;694bb381-1f7e-4815-80d9-c35dcc9006e5&quot;&gt;&lt;span data-sider-select-id=&quot;7d5a8feb-94d6-4b1f-9e1a-0110b242c63b&quot;&gt;descripcion&lt;/span&gt;&lt;/b&gt;" style="ellipse;whiteSpace=wrap;html=1;" vertex="1" parent="1">
          <mxGeometry x="550" y="192.5" width="70" height="55" as="geometry" />
        </mxCell>
        <mxCell id="2b92ZgBnTiT7di_fK2Un-34" value="&lt;b data-sider-select-id=&quot;694bb381-1f7e-4815-80d9-c35dcc9006e5&quot;&gt;&lt;span data-sider-select-id=&quot;7d5a8feb-94d6-4b1f-9e1a-0110b242c63b&quot;&gt;monto&lt;/span&gt;&lt;/b&gt;" style="ellipse;whiteSpace=wrap;html=1;" vertex="1" parent="1">
          <mxGeometry x="630" y="181.21" width="70" height="55" as="geometry" />
        </mxCell>
        <mxCell id="2b92ZgBnTiT7di_fK2Un-35" value="&lt;b data-sider-select-id=&quot;694bb381-1f7e-4815-80d9-c35dcc9006e5&quot;&gt;&lt;span data-sider-select-id=&quot;7d5a8feb-94d6-4b1f-9e1a-0110b242c63b&quot;&gt;cuenta&lt;/span&gt;&lt;/b&gt;&lt;div&gt;&lt;b data-sider-select-id=&quot;694bb381-1f7e-4815-80d9-c35dcc9006e5&quot;&gt;&lt;span data-sider-select-id=&quot;7d5a8feb-94d6-4b1f-9e1a-0110b242c63b&quot;&gt;Origen&lt;/span&gt;&lt;/b&gt;&lt;/div&gt;" style="ellipse;whiteSpace=wrap;html=1;" vertex="1" parent="1">
          <mxGeometry x="710" y="192.5" width="70" height="47.5" as="geometry" />
        </mxCell>
        <mxCell id="2b92ZgBnTiT7di_fK2Un-36" value="&lt;b data-sider-select-id=&quot;694bb381-1f7e-4815-80d9-c35dcc9006e5&quot;&gt;&lt;span data-sider-select-id=&quot;7d5a8feb-94d6-4b1f-9e1a-0110b242c63b&quot;&gt;tipo&lt;/span&gt;&lt;/b&gt;&lt;div&gt;&lt;b data-sider-select-id=&quot;694bb381-1f7e-4815-80d9-c35dcc9006e5&quot;&gt;&lt;span data-sider-select-id=&quot;7d5a8feb-94d6-4b1f-9e1a-0110b242c63b&quot;&gt;Cuenta&lt;/span&gt;&lt;/b&gt;&lt;/div&gt;&lt;div&gt;&lt;b data-sider-select-id=&quot;694bb381-1f7e-4815-80d9-c35dcc9006e5&quot;&gt;&lt;span data-sider-select-id=&quot;7d5a8feb-94d6-4b1f-9e1a-0110b242c63b&quot;&gt;Origen&lt;/span&gt;&lt;/b&gt;&lt;/div&gt;" style="ellipse;whiteSpace=wrap;html=1;" vertex="1" parent="1">
          <mxGeometry x="780" y="200" width="80" height="60" as="geometry" />
        </mxCell>
        <mxCell id="2b92ZgBnTiT7di_fK2Un-37" value="&lt;b&gt;cuentaDestino&lt;/b&gt;" style="ellipse;whiteSpace=wrap;html=1;" vertex="1" parent="1">
          <mxGeometry x="820" y="260" width="80" height="60" as="geometry" />
        </mxCell>
        <mxCell id="2b92ZgBnTiT7di_fK2Un-38" value="&lt;b style=&quot;--tw-border-spacing-x: 0; --tw-border-spacing-y: 0; --tw-translate-x: 0; --tw-translate-y: 0; --tw-rotate: 0; --tw-skew-x: 0; --tw-skew-y: 0; --tw-scale-x: 1; --tw-scale-y: 1; --tw-pan-x: ; --tw-pan-y: ; --tw-pinch-zoom: ; --tw-scroll-snap-strictness: proximity; --tw-ordinal: ; --tw-slashed-zero: ; --tw-numeric-figure: ; --tw-numeric-spacing: ; --tw-numeric-fraction: ; --tw-ring-inset: ; --tw-ring-offset-width: 0px; --tw-ring-offset-color: #fff; --tw-ring-color: rgb(59 130 246 / .5); --tw-ring-offset-shadow: 0 0 #0000; --tw-ring-shadow: 0 0 #0000; --tw-shadow: 0 0 #0000; --tw-shadow-colored: 0 0 #0000; --tw-blur: ; --tw-brightness: ; --tw-contrast: ; --tw-grayscale: ; --tw-hue-rotate: ; --tw-invert: ; --tw-saturate: ; --tw-sepia: ; --tw-drop-shadow: ; --tw-backdrop-blur: ; --tw-backdrop-brightness: ; --tw-backdrop-contrast: ; --tw-backdrop-grayscale: ; --tw-backdrop-hue-rotate: ; --tw-backdrop-invert: ; --tw-backdrop-opacity: ; --tw-backdrop-saturate: ; --tw-backdrop-sepia: ;&quot; data-sider-select-id=&quot;694bb381-1f7e-4815-80d9-c35dcc9006e5&quot;&gt;tipo&lt;/b&gt;&lt;div style=&quot;--tw-border-spacing-x: 0; --tw-border-spacing-y: 0; --tw-translate-x: 0; --tw-translate-y: 0; --tw-rotate: 0; --tw-skew-x: 0; --tw-skew-y: 0; --tw-scale-x: 1; --tw-scale-y: 1; --tw-pan-x: ; --tw-pan-y: ; --tw-pinch-zoom: ; --tw-scroll-snap-strictness: proximity; --tw-ordinal: ; --tw-slashed-zero: ; --tw-numeric-figure: ; --tw-numeric-spacing: ; --tw-numeric-fraction: ; --tw-ring-inset: ; --tw-ring-offset-width: 0px; --tw-ring-offset-color: #fff; --tw-ring-color: rgb(59 130 246 / .5); --tw-ring-offset-shadow: 0 0 #0000; --tw-ring-shadow: 0 0 #0000; --tw-shadow: 0 0 #0000; --tw-shadow-colored: 0 0 #0000; --tw-blur: ; --tw-brightness: ; --tw-contrast: ; --tw-grayscale: ; --tw-hue-rotate: ; --tw-invert: ; --tw-saturate: ; --tw-sepia: ; --tw-drop-shadow: ; --tw-backdrop-blur: ; --tw-backdrop-brightness: ; --tw-backdrop-contrast: ; --tw-backdrop-grayscale: ; --tw-backdrop-hue-rotate: ; --tw-backdrop-invert: ; --tw-backdrop-opacity: ; --tw-backdrop-saturate: ; --tw-backdrop-sepia: ;&quot;&gt;&lt;b style=&quot;--tw-border-spacing-x: 0; --tw-border-spacing-y: 0; --tw-translate-x: 0; --tw-translate-y: 0; --tw-rotate: 0; --tw-skew-x: 0; --tw-skew-y: 0; --tw-scale-x: 1; --tw-scale-y: 1; --tw-pan-x: ; --tw-pan-y: ; --tw-pinch-zoom: ; --tw-scroll-snap-strictness: proximity; --tw-ordinal: ; --tw-slashed-zero: ; --tw-numeric-figure: ; --tw-numeric-spacing: ; --tw-numeric-fraction: ; --tw-ring-inset: ; --tw-ring-offset-width: 0px; --tw-ring-offset-color: #fff; --tw-ring-color: rgb(59 130 246 / .5); --tw-ring-offset-shadow: 0 0 #0000; --tw-ring-shadow: 0 0 #0000; --tw-shadow: 0 0 #0000; --tw-shadow-colored: 0 0 #0000; --tw-blur: ; --tw-brightness: ; --tw-contrast: ; --tw-grayscale: ; --tw-hue-rotate: ; --tw-invert: ; --tw-saturate: ; --tw-sepia: ; --tw-drop-shadow: ; --tw-backdrop-blur: ; --tw-backdrop-brightness: ; --tw-backdrop-contrast: ; --tw-backdrop-grayscale: ; --tw-backdrop-hue-rotate: ; --tw-backdrop-invert: ; --tw-backdrop-opacity: ; --tw-backdrop-saturate: ; --tw-backdrop-sepia: ;&quot; data-sider-select-id=&quot;694bb381-1f7e-4815-80d9-c35dcc9006e5&quot;&gt;Cuenta&lt;/b&gt;&lt;/div&gt;&lt;div style=&quot;--tw-border-spacing-x: 0; --tw-border-spacing-y: 0; --tw-translate-x: 0; --tw-translate-y: 0; --tw-rotate: 0; --tw-skew-x: 0; --tw-skew-y: 0; --tw-scale-x: 1; --tw-scale-y: 1; --tw-pan-x: ; --tw-pan-y: ; --tw-pinch-zoom: ; --tw-scroll-snap-strictness: proximity; --tw-ordinal: ; --tw-slashed-zero: ; --tw-numeric-figure: ; --tw-numeric-spacing: ; --tw-numeric-fraction: ; --tw-ring-inset: ; --tw-ring-offset-width: 0px; --tw-ring-offset-color: #fff; --tw-ring-color: rgb(59 130 246 / .5); --tw-ring-offset-shadow: 0 0 #0000; --tw-ring-shadow: 0 0 #0000; --tw-shadow: 0 0 #0000; --tw-shadow-colored: 0 0 #0000; --tw-blur: ; --tw-brightness: ; --tw-contrast: ; --tw-grayscale: ; --tw-hue-rotate: ; --tw-invert: ; --tw-saturate: ; --tw-sepia: ; --tw-drop-shadow: ; --tw-backdrop-blur: ; --tw-backdrop-brightness: ; --tw-backdrop-contrast: ; --tw-backdrop-grayscale: ; --tw-backdrop-hue-rotate: ; --tw-backdrop-invert: ; --tw-backdrop-opacity: ; --tw-backdrop-saturate: ; --tw-backdrop-sepia: ;&quot;&gt;&lt;b&gt;Destino&lt;/b&gt;&lt;/div&gt;" style="ellipse;whiteSpace=wrap;html=1;" vertex="1" parent="1">
          <mxGeometry x="827" y="320" width="80" height="60" as="geometry" />
        </mxCell>
        <mxCell id="2b92ZgBnTiT7di_fK2Un-39" value="" style="endArrow=none;html=1;rounded=0;entryX=1;entryY=1;entryDx=0;entryDy=0;exitX=0;exitY=0.25;exitDx=0;exitDy=0;" edge="1" parent="1" source="2b92ZgBnTiT7di_fK2Un-20" target="2b92ZgBnTiT7di_fK2Un-24">
          <mxGeometry width="50" height="50" relative="1" as="geometry">
            <mxPoint x="520" y="360" as="sourcePoint" />
            <mxPoint x="570" y="310" as="targetPoint" />
          </mxGeometry>
        </mxCell>
        <mxCell id="2b92ZgBnTiT7di_fK2Un-40" value="" style="endArrow=none;html=1;rounded=0;entryX=0.5;entryY=1;entryDx=0;entryDy=0;exitX=0;exitY=0;exitDx=0;exitDy=0;" edge="1" parent="1" source="2b92ZgBnTiT7di_fK2Un-20" target="2b92ZgBnTiT7di_fK2Un-23">
          <mxGeometry width="50" height="50" relative="1" as="geometry">
            <mxPoint x="520" y="360" as="sourcePoint" />
            <mxPoint x="570" y="310" as="targetPoint" />
          </mxGeometry>
        </mxCell>
        <mxCell id="2b92ZgBnTiT7di_fK2Un-41" value="" style="endArrow=none;html=1;rounded=0;entryX=0.5;entryY=1;entryDx=0;entryDy=0;exitX=0.25;exitY=0;exitDx=0;exitDy=0;" edge="1" parent="1" source="2b92ZgBnTiT7di_fK2Un-20" target="2b92ZgBnTiT7di_fK2Un-26">
          <mxGeometry width="50" height="50" relative="1" as="geometry">
            <mxPoint x="520" y="360" as="sourcePoint" />
            <mxPoint x="570" y="310" as="targetPoint" />
          </mxGeometry>
        </mxCell>
        <mxCell id="2b92ZgBnTiT7di_fK2Un-42" value="" style="endArrow=none;html=1;rounded=0;entryX=0.5;entryY=1;entryDx=0;entryDy=0;exitX=0.5;exitY=0;exitDx=0;exitDy=0;" edge="1" parent="1" source="2b92ZgBnTiT7di_fK2Un-20" target="2b92ZgBnTiT7di_fK2Un-33">
          <mxGeometry width="50" height="50" relative="1" as="geometry">
            <mxPoint x="520" y="360" as="sourcePoint" />
            <mxPoint x="570" y="310" as="targetPoint" />
          </mxGeometry>
        </mxCell>
        <mxCell id="2b92ZgBnTiT7di_fK2Un-43" value="" style="endArrow=none;html=1;rounded=0;entryX=0.5;entryY=1;entryDx=0;entryDy=0;exitX=0.642;exitY=0.033;exitDx=0;exitDy=0;exitPerimeter=0;" edge="1" parent="1" source="2b92ZgBnTiT7di_fK2Un-20" target="2b92ZgBnTiT7di_fK2Un-34">
          <mxGeometry width="50" height="50" relative="1" as="geometry">
            <mxPoint x="520" y="360" as="sourcePoint" />
            <mxPoint x="570" y="310" as="targetPoint" />
          </mxGeometry>
        </mxCell>
        <mxCell id="2b92ZgBnTiT7di_fK2Un-44" value="" style="endArrow=none;html=1;rounded=0;entryX=0.386;entryY=1.021;entryDx=0;entryDy=0;entryPerimeter=0;exitX=0.75;exitY=0;exitDx=0;exitDy=0;" edge="1" parent="1" source="2b92ZgBnTiT7di_fK2Un-20" target="2b92ZgBnTiT7di_fK2Un-35">
          <mxGeometry width="50" height="50" relative="1" as="geometry">
            <mxPoint x="520" y="360" as="sourcePoint" />
            <mxPoint x="570" y="310" as="targetPoint" />
          </mxGeometry>
        </mxCell>
        <mxCell id="2b92ZgBnTiT7di_fK2Un-45" value="" style="endArrow=none;html=1;rounded=0;entryX=0;entryY=1;entryDx=0;entryDy=0;" edge="1" parent="1" source="2b92ZgBnTiT7di_fK2Un-20" target="2b92ZgBnTiT7di_fK2Un-36">
          <mxGeometry width="50" height="50" relative="1" as="geometry">
            <mxPoint x="520" y="360" as="sourcePoint" />
            <mxPoint x="570" y="310" as="targetPoint" />
          </mxGeometry>
        </mxCell>
        <mxCell id="2b92ZgBnTiT7di_fK2Un-46" value="" style="endArrow=none;html=1;rounded=0;entryX=0;entryY=0.5;entryDx=0;entryDy=0;exitX=1;exitY=0.25;exitDx=0;exitDy=0;" edge="1" parent="1" source="2b92ZgBnTiT7di_fK2Un-20" target="2b92ZgBnTiT7di_fK2Un-37">
          <mxGeometry width="50" height="50" relative="1" as="geometry">
            <mxPoint x="520" y="360" as="sourcePoint" />
            <mxPoint x="570" y="310" as="targetPoint" />
          </mxGeometry>
        </mxCell>
        <mxCell id="2b92ZgBnTiT7di_fK2Un-47" value="" style="endArrow=none;html=1;rounded=0;entryX=0;entryY=0.5;entryDx=0;entryDy=0;exitX=1;exitY=0.75;exitDx=0;exitDy=0;" edge="1" parent="1" source="2b92ZgBnTiT7di_fK2Un-20" target="2b92ZgBnTiT7di_fK2Un-38">
          <mxGeometry width="50" height="50" relative="1" as="geometry">
            <mxPoint x="520" y="500" as="sourcePoint" />
            <mxPoint x="570" y="450" as="targetPoint" />
          </mxGeometry>
        </mxCell>
        <mxCell id="2b92ZgBnTiT7di_fK2Un-48" value="1" style="text;html=1;align=center;verticalAlign=middle;resizable=0;points=[];autosize=1;strokeColor=none;fillColor=none;" vertex="1" parent="1">
          <mxGeometry x="255" y="308" width="30" height="30" as="geometry" />
        </mxCell>
        <mxCell id="2b92ZgBnTiT7di_fK2Un-49" value="n" style="text;html=1;align=center;verticalAlign=middle;resizable=0;points=[];autosize=1;strokeColor=none;fillColor=none;" vertex="1" parent="1">
          <mxGeometry x="315" y="308" width="30" height="30" as="geometry" />
        </mxCell>
        <mxCell id="2b92ZgBnTiT7di_fK2Un-50" value="&lt;h2&gt;&lt;b data-sider-select-id=&quot;7e18d905-560b-4734-9866-bc5d503d5bd9&quot;&gt;&lt;u data-sider-select-id=&quot;c18a0175-fe8d-413f-964b-1855cf0d83a1&quot;&gt;Segunda Forma normal: eliminar dependencias parciales, cada atributo no clave debe dependeer de su PK&lt;/u&gt;&lt;/b&gt;&lt;/h2&gt;" style="text;html=1;align=center;verticalAlign=middle;whiteSpace=wrap;rounded=0;" vertex="1" parent="1">
          <mxGeometry x="79" y="410" width="529" height="30" as="geometry" />
        </mxCell>
        <mxCell id="2b92ZgBnTiT7di_fK2Un-51" value="cliente" style="rounded=0;whiteSpace=wrap;html=1;" vertex="1" parent="1">
          <mxGeometry x="-130" y="615" width="120" height="60" as="geometry" />
        </mxCell>
        <mxCell id="2b92ZgBnTiT7di_fK2Un-52" value="&lt;b data-sider-select-id=&quot;694bb381-1f7e-4815-80d9-c35dcc9006e5&quot;&gt;&lt;u data-sider-select-id=&quot;7d5a8feb-94d6-4b1f-9e1a-0110b242c63b&quot;&gt;idClente&lt;/u&gt;&lt;/b&gt;" style="ellipse;whiteSpace=wrap;html=1;" vertex="1" parent="1">
          <mxGeometry x="-210" y="565" width="60" height="50" as="geometry" />
        </mxCell>
        <mxCell id="2b92ZgBnTiT7di_fK2Un-53" value="nombre" style="ellipse;whiteSpace=wrap;html=1;" vertex="1" parent="1">
          <mxGeometry x="-180" y="525" width="60" height="50" as="geometry" />
        </mxCell>
        <mxCell id="2b92ZgBnTiT7di_fK2Un-54" value="apellido" style="ellipse;whiteSpace=wrap;html=1;" vertex="1" parent="1">
          <mxGeometry x="-130" y="495" width="60" height="50" as="geometry" />
        </mxCell>
        <mxCell id="2b92ZgBnTiT7di_fK2Un-55" value="cuil" style="ellipse;whiteSpace=wrap;html=1;" vertex="1" parent="1">
          <mxGeometry x="-72" y="505" width="60" height="50" as="geometry" />
        </mxCell>
        <mxCell id="2b92ZgBnTiT7di_fK2Un-56" value="tipoTelefono" style="ellipse;whiteSpace=wrap;html=1;" vertex="1" parent="1">
          <mxGeometry x="-12" y="515" width="72" height="50" as="geometry" />
        </mxCell>
        <mxCell id="2b92ZgBnTiT7di_fK2Un-57" value="nroTelefono" style="ellipse;whiteSpace=wrap;html=1;direction=south;" vertex="1" parent="1">
          <mxGeometry x="-1" y="565" width="71" height="55" as="geometry" />
        </mxCell>
        <mxCell id="2b92ZgBnTiT7di_fK2Un-58" value="" style="endArrow=none;html=1;rounded=0;entryX=1;entryY=1;entryDx=0;entryDy=0;exitX=1;exitY=0.25;exitDx=0;exitDy=0;" edge="1" parent="1" source="2b92ZgBnTiT7di_fK2Un-51" target="2b92ZgBnTiT7di_fK2Un-57">
          <mxGeometry width="50" height="50" relative="1" as="geometry">
            <mxPoint x="310" y="585" as="sourcePoint" />
            <mxPoint x="360" y="535" as="targetPoint" />
          </mxGeometry>
        </mxCell>
        <mxCell id="2b92ZgBnTiT7di_fK2Un-59" value="" style="endArrow=none;html=1;rounded=0;entryX=0;entryY=1;entryDx=0;entryDy=0;exitX=0.75;exitY=0;exitDx=0;exitDy=0;" edge="1" parent="1" source="2b92ZgBnTiT7di_fK2Un-51" target="2b92ZgBnTiT7di_fK2Un-56">
          <mxGeometry width="50" height="50" relative="1" as="geometry">
            <mxPoint y="640" as="sourcePoint" />
            <mxPoint x="19" y="622" as="targetPoint" />
          </mxGeometry>
        </mxCell>
        <mxCell id="2b92ZgBnTiT7di_fK2Un-60" value="" style="endArrow=none;html=1;rounded=0;entryX=0.5;entryY=1;entryDx=0;entryDy=0;exitX=0.633;exitY=0.033;exitDx=0;exitDy=0;exitPerimeter=0;" edge="1" parent="1" source="2b92ZgBnTiT7di_fK2Un-51" target="2b92ZgBnTiT7di_fK2Un-55">
          <mxGeometry width="50" height="50" relative="1" as="geometry">
            <mxPoint x="-50" y="595" as="sourcePoint" />
            <mxPoint x="9" y="568" as="targetPoint" />
          </mxGeometry>
        </mxCell>
        <mxCell id="2b92ZgBnTiT7di_fK2Un-61" value="" style="endArrow=none;html=1;rounded=0;entryX=0.5;entryY=1;entryDx=0;entryDy=0;exitX=0.5;exitY=0;exitDx=0;exitDy=0;" edge="1" parent="1" source="2b92ZgBnTiT7di_fK2Un-51" target="2b92ZgBnTiT7di_fK2Un-54">
          <mxGeometry width="50" height="50" relative="1" as="geometry">
            <mxPoint x="-44" y="627" as="sourcePoint" />
            <mxPoint x="-32" y="565" as="targetPoint" />
          </mxGeometry>
        </mxCell>
        <mxCell id="2b92ZgBnTiT7di_fK2Un-62" value="" style="endArrow=none;html=1;rounded=0;exitX=0.25;exitY=0;exitDx=0;exitDy=0;" edge="1" parent="1" source="2b92ZgBnTiT7di_fK2Un-51">
          <mxGeometry width="50" height="50" relative="1" as="geometry">
            <mxPoint x="-60" y="625" as="sourcePoint" />
            <mxPoint x="-130" y="565" as="targetPoint" />
          </mxGeometry>
        </mxCell>
        <mxCell id="2b92ZgBnTiT7di_fK2Un-63" value="" style="endArrow=none;html=1;rounded=0;exitX=1;exitY=1;exitDx=0;exitDy=0;entryX=0;entryY=0;entryDx=0;entryDy=0;" edge="1" parent="1" source="2b92ZgBnTiT7di_fK2Un-52" target="2b92ZgBnTiT7di_fK2Un-51">
          <mxGeometry width="50" height="50" relative="1" as="geometry">
            <mxPoint x="310" y="585" as="sourcePoint" />
            <mxPoint x="360" y="535" as="targetPoint" />
          </mxGeometry>
        </mxCell>
        <mxCell id="2b92ZgBnTiT7di_fK2Un-64" value="cuenta" style="rounded=0;whiteSpace=wrap;html=1;" vertex="1" parent="1">
          <mxGeometry x="230" y="615" width="120" height="60" as="geometry" />
        </mxCell>
        <mxCell id="2b92ZgBnTiT7di_fK2Un-65" value="tiene" style="rhombus;whiteSpace=wrap;html=1;" vertex="1" parent="1">
          <mxGeometry x="80" y="605" width="80" height="80" as="geometry" />
        </mxCell>
        <mxCell id="2b92ZgBnTiT7di_fK2Un-66" value="" style="endArrow=none;html=1;rounded=0;exitX=1;exitY=0.5;exitDx=0;exitDy=0;entryX=0;entryY=0.5;entryDx=0;entryDy=0;" edge="1" parent="1" source="2b92ZgBnTiT7di_fK2Un-51" target="2b92ZgBnTiT7di_fK2Un-65">
          <mxGeometry width="50" height="50" relative="1" as="geometry">
            <mxPoint x="320" y="730" as="sourcePoint" />
            <mxPoint x="370" y="680" as="targetPoint" />
          </mxGeometry>
        </mxCell>
        <mxCell id="2b92ZgBnTiT7di_fK2Un-67" value="" style="endArrow=none;html=1;rounded=0;exitX=1;exitY=0.5;exitDx=0;exitDy=0;entryX=0;entryY=0.5;entryDx=0;entryDy=0;" edge="1" parent="1" source="2b92ZgBnTiT7di_fK2Un-65" target="2b92ZgBnTiT7di_fK2Un-64">
          <mxGeometry width="50" height="50" relative="1" as="geometry">
            <mxPoint x="320" y="730" as="sourcePoint" />
            <mxPoint x="370" y="680" as="targetPoint" />
          </mxGeometry>
        </mxCell>
        <mxCell id="2b92ZgBnTiT7di_fK2Un-68" value="banco" style="rounded=0;whiteSpace=wrap;html=1;" vertex="1" parent="1">
          <mxGeometry x="230" y="830" width="120" height="60" as="geometry" />
        </mxCell>
        <mxCell id="2b92ZgBnTiT7di_fK2Un-69" value="se asocia" style="rhombus;whiteSpace=wrap;html=1;" vertex="1" parent="1">
          <mxGeometry x="250" y="710" width="80" height="80" as="geometry" />
        </mxCell>
        <mxCell id="2b92ZgBnTiT7di_fK2Un-70" value="" style="endArrow=none;html=1;rounded=0;exitX=0.5;exitY=1;exitDx=0;exitDy=0;entryX=0.5;entryY=0;entryDx=0;entryDy=0;" edge="1" parent="1" source="2b92ZgBnTiT7di_fK2Un-64" target="2b92ZgBnTiT7di_fK2Un-69">
          <mxGeometry width="50" height="50" relative="1" as="geometry">
            <mxPoint x="320" y="730" as="sourcePoint" />
            <mxPoint x="370" y="680" as="targetPoint" />
          </mxGeometry>
        </mxCell>
        <mxCell id="2b92ZgBnTiT7di_fK2Un-71" value="" style="endArrow=none;html=1;rounded=0;exitX=0.5;exitY=1;exitDx=0;exitDy=0;" edge="1" parent="1" source="2b92ZgBnTiT7di_fK2Un-69">
          <mxGeometry width="50" height="50" relative="1" as="geometry">
            <mxPoint x="320" y="730" as="sourcePoint" />
            <mxPoint x="290" y="830" as="targetPoint" />
          </mxGeometry>
        </mxCell>
        <mxCell id="2b92ZgBnTiT7di_fK2Un-73" value="operacion" style="rounded=0;whiteSpace=wrap;html=1;" vertex="1" parent="1">
          <mxGeometry x="590" y="615" width="120" height="60" as="geometry" />
        </mxCell>
        <mxCell id="2b92ZgBnTiT7di_fK2Un-74" value="realiza" style="rhombus;whiteSpace=wrap;html=1;" vertex="1" parent="1">
          <mxGeometry x="436" y="605" width="80" height="80" as="geometry" />
        </mxCell>
        <mxCell id="2b92ZgBnTiT7di_fK2Un-75" value="" style="endArrow=none;html=1;rounded=0;exitX=1;exitY=0.5;exitDx=0;exitDy=0;entryX=0;entryY=0.5;entryDx=0;entryDy=0;" edge="1" parent="1" source="2b92ZgBnTiT7di_fK2Un-64" target="2b92ZgBnTiT7di_fK2Un-74">
          <mxGeometry width="50" height="50" relative="1" as="geometry">
            <mxPoint x="380" y="630" as="sourcePoint" />
            <mxPoint x="430" y="580" as="targetPoint" />
          </mxGeometry>
        </mxCell>
        <mxCell id="2b92ZgBnTiT7di_fK2Un-76" value="" style="endArrow=none;html=1;rounded=0;exitX=1;exitY=0.5;exitDx=0;exitDy=0;entryX=0;entryY=0.5;entryDx=0;entryDy=0;" edge="1" parent="1" source="2b92ZgBnTiT7di_fK2Un-74" target="2b92ZgBnTiT7di_fK2Un-73">
          <mxGeometry width="50" height="50" relative="1" as="geometry">
            <mxPoint x="360" y="655" as="sourcePoint" />
            <mxPoint x="446" y="655" as="targetPoint" />
          </mxGeometry>
        </mxCell>
        <mxCell id="2b92ZgBnTiT7di_fK2Un-77" value="1" style="text;html=1;align=center;verticalAlign=middle;resizable=0;points=[];autosize=1;strokeColor=none;fillColor=none;" vertex="1" parent="1">
          <mxGeometry x="79" y="600" width="30" height="30" as="geometry" />
        </mxCell>
        <mxCell id="2b92ZgBnTiT7di_fK2Un-78" value="n" style="text;html=1;align=center;verticalAlign=middle;resizable=0;points=[];autosize=1;strokeColor=none;fillColor=none;" vertex="1" parent="1">
          <mxGeometry x="130" y="600" width="30" height="30" as="geometry" />
        </mxCell>
        <mxCell id="2b92ZgBnTiT7di_fK2Un-79" value="&lt;b data-sider-select-id=&quot;694bb381-1f7e-4815-80d9-c35dcc9006e5&quot;&gt;&lt;u data-sider-select-id=&quot;7d5a8feb-94d6-4b1f-9e1a-0110b242c63b&quot;&gt;idCuenta&lt;/u&gt;&lt;/b&gt;" style="ellipse;whiteSpace=wrap;html=1;" vertex="1" parent="1">
          <mxGeometry x="140" y="550" width="70" height="50" as="geometry" />
        </mxCell>
        <mxCell id="2b92ZgBnTiT7di_fK2Un-80" value="&lt;span data-sider-select-id=&quot;5589a6d4-5449-4d33-9e75-af03decc7970&quot;&gt;&lt;span style=&quot;&quot; data-sider-select-id=&quot;651b7d50-e4bc-4127-bce9-9c663c117c42&quot;&gt;&lt;span data-sider-select-id=&quot;0d90083c-8a27-4880-bd2a-247b0041e712&quot;&gt;idClente&lt;/span&gt;&lt;/span&gt;&lt;/span&gt;" style="ellipse;whiteSpace=wrap;html=1;" vertex="1" parent="1">
          <mxGeometry x="140" y="495" width="70" height="45" as="geometry" />
        </mxCell>
        <mxCell id="2b92ZgBnTiT7di_fK2Un-81" value="nroCuenta" style="ellipse;whiteSpace=wrap;html=1;" vertex="1" parent="1">
          <mxGeometry x="263.5" y="490" width="70" height="45" as="geometry" />
        </mxCell>
        <mxCell id="2b92ZgBnTiT7di_fK2Un-82" value="tipoCuenta" style="ellipse;whiteSpace=wrap;html=1;" vertex="1" parent="1">
          <mxGeometry x="340" y="540" width="65.5" height="45" as="geometry" />
        </mxCell>
        <mxCell id="2b92ZgBnTiT7di_fK2Un-83" value="CC" style="ellipse;whiteSpace=wrap;html=1;" vertex="1" parent="1">
          <mxGeometry x="315" y="460" width="56" height="35" as="geometry" />
        </mxCell>
        <mxCell id="2b92ZgBnTiT7di_fK2Un-84" value="CA" style="ellipse;whiteSpace=wrap;html=1;" vertex="1" parent="1">
          <mxGeometry x="374" y="465" width="56" height="35" as="geometry" />
        </mxCell>
        <mxCell id="2b92ZgBnTiT7di_fK2Un-85" value="CVU" style="ellipse;whiteSpace=wrap;html=1;" vertex="1" parent="1">
          <mxGeometry x="420" y="495" width="56" height="35" as="geometry" />
        </mxCell>
        <mxCell id="2b92ZgBnTiT7di_fK2Un-86" value="CBU" style="ellipse;whiteSpace=wrap;html=1;" vertex="1" parent="1">
          <mxGeometry x="430" y="540" width="56" height="35" as="geometry" />
        </mxCell>
        <mxCell id="2b92ZgBnTiT7di_fK2Un-87" value="" style="endArrow=none;html=1;rounded=0;entryX=0.5;entryY=1;entryDx=0;entryDy=0;exitX=0;exitY=0;exitDx=0;exitDy=0;" edge="1" parent="1" source="2b92ZgBnTiT7di_fK2Un-82" target="2b92ZgBnTiT7di_fK2Un-83">
          <mxGeometry width="50" height="50" relative="1" as="geometry">
            <mxPoint x="410" y="580" as="sourcePoint" />
            <mxPoint x="460" y="530" as="targetPoint" />
          </mxGeometry>
        </mxCell>
        <mxCell id="2b92ZgBnTiT7di_fK2Un-88" value="" style="endArrow=none;html=1;rounded=0;exitX=0.5;exitY=0;exitDx=0;exitDy=0;entryX=0.5;entryY=1;entryDx=0;entryDy=0;" edge="1" parent="1" source="2b92ZgBnTiT7di_fK2Un-82" target="2b92ZgBnTiT7di_fK2Un-84">
          <mxGeometry width="50" height="50" relative="1" as="geometry">
            <mxPoint x="317" y="532" as="sourcePoint" />
            <mxPoint x="350" y="490" as="targetPoint" />
          </mxGeometry>
        </mxCell>
        <mxCell id="2b92ZgBnTiT7di_fK2Un-89" value="" style="endArrow=none;html=1;rounded=0;entryX=0;entryY=1;entryDx=0;entryDy=0;exitX=0.729;exitY=0.089;exitDx=0;exitDy=0;exitPerimeter=0;" edge="1" parent="1" source="2b92ZgBnTiT7di_fK2Un-82" target="2b92ZgBnTiT7di_fK2Un-85">
          <mxGeometry width="50" height="50" relative="1" as="geometry">
            <mxPoint x="350" y="520" as="sourcePoint" />
            <mxPoint x="351" y="505" as="targetPoint" />
          </mxGeometry>
        </mxCell>
        <mxCell id="2b92ZgBnTiT7di_fK2Un-90" value="" style="endArrow=none;html=1;rounded=0;entryX=0;entryY=0.5;entryDx=0;entryDy=0;exitX=1;exitY=0.5;exitDx=0;exitDy=0;" edge="1" parent="1" source="2b92ZgBnTiT7di_fK2Un-82" target="2b92ZgBnTiT7di_fK2Un-86">
          <mxGeometry width="50" height="50" relative="1" as="geometry">
            <mxPoint x="360" y="530" as="sourcePoint" />
            <mxPoint x="390" y="518" as="targetPoint" />
          </mxGeometry>
        </mxCell>
        <mxCell id="2b92ZgBnTiT7di_fK2Un-91" value="" style="endArrow=none;html=1;rounded=0;exitX=0.75;exitY=0;exitDx=0;exitDy=0;entryX=0;entryY=1;entryDx=0;entryDy=0;" edge="1" parent="1" source="2b92ZgBnTiT7di_fK2Un-64" target="2b92ZgBnTiT7di_fK2Un-82">
          <mxGeometry width="50" height="50" relative="1" as="geometry">
            <mxPoint x="410" y="580" as="sourcePoint" />
            <mxPoint x="460" y="530" as="targetPoint" />
          </mxGeometry>
        </mxCell>
        <mxCell id="2b92ZgBnTiT7di_fK2Un-92" value="" style="endArrow=none;html=1;rounded=0;entryX=0.5;entryY=1;entryDx=0;entryDy=0;exitX=0.5;exitY=0;exitDx=0;exitDy=0;" edge="1" parent="1" source="2b92ZgBnTiT7di_fK2Un-64" target="2b92ZgBnTiT7di_fK2Un-81">
          <mxGeometry width="50" height="50" relative="1" as="geometry">
            <mxPoint x="410" y="580" as="sourcePoint" />
            <mxPoint x="460" y="530" as="targetPoint" />
          </mxGeometry>
        </mxCell>
        <mxCell id="2b92ZgBnTiT7di_fK2Un-93" value="" style="endArrow=none;html=1;rounded=0;exitX=0.25;exitY=0;exitDx=0;exitDy=0;entryX=1;entryY=1;entryDx=0;entryDy=0;" edge="1" parent="1" source="2b92ZgBnTiT7di_fK2Un-64" target="2b92ZgBnTiT7di_fK2Un-80">
          <mxGeometry width="50" height="50" relative="1" as="geometry">
            <mxPoint x="410" y="580" as="sourcePoint" />
            <mxPoint x="210" y="540" as="targetPoint" />
          </mxGeometry>
        </mxCell>
        <mxCell id="2b92ZgBnTiT7di_fK2Un-95" value="" style="endArrow=none;html=1;rounded=0;exitX=1;exitY=1;exitDx=0;exitDy=0;entryX=0;entryY=0;entryDx=0;entryDy=0;" edge="1" parent="1" source="2b92ZgBnTiT7di_fK2Un-79" target="2b92ZgBnTiT7di_fK2Un-64">
          <mxGeometry width="50" height="50" relative="1" as="geometry">
            <mxPoint x="410" y="580" as="sourcePoint" />
            <mxPoint x="460" y="530" as="targetPoint" />
          </mxGeometry>
        </mxCell>
        <mxCell id="2b92ZgBnTiT7di_fK2Un-96" value="idBanco" style="ellipse;whiteSpace=wrap;html=1;" vertex="1" parent="1">
          <mxGeometry x="200" y="460" width="70" height="45" as="geometry" />
        </mxCell>
        <mxCell id="2b92ZgBnTiT7di_fK2Un-97" value="" style="endArrow=none;html=1;rounded=0;entryX=0.5;entryY=1;entryDx=0;entryDy=0;exitX=0.367;exitY=-0.017;exitDx=0;exitDy=0;exitPerimeter=0;" edge="1" parent="1" source="2b92ZgBnTiT7di_fK2Un-64" target="2b92ZgBnTiT7di_fK2Un-96">
          <mxGeometry width="50" height="50" relative="1" as="geometry">
            <mxPoint x="450" y="560" as="sourcePoint" />
            <mxPoint x="500" y="510" as="targetPoint" />
          </mxGeometry>
        </mxCell>
        <mxCell id="2b92ZgBnTiT7di_fK2Un-98" value="1" style="text;html=1;align=center;verticalAlign=middle;resizable=0;points=[];autosize=1;strokeColor=none;fillColor=none;" vertex="1" parent="1">
          <mxGeometry x="283.5" y="790" width="30" height="30" as="geometry" />
        </mxCell>
        <mxCell id="2b92ZgBnTiT7di_fK2Un-99" value="n" style="text;html=1;align=center;verticalAlign=middle;resizable=0;points=[];autosize=1;strokeColor=none;fillColor=none;" vertex="1" parent="1">
          <mxGeometry x="283.5" y="690" width="30" height="30" as="geometry" />
        </mxCell>
        <mxCell id="2b92ZgBnTiT7di_fK2Un-100" value="&lt;b data-sider-select-id=&quot;694bb381-1f7e-4815-80d9-c35dcc9006e5&quot;&gt;&lt;u data-sider-select-id=&quot;7d5a8feb-94d6-4b1f-9e1a-0110b242c63b&quot;&gt;idBanco&lt;/u&gt;&lt;/b&gt;" style="ellipse;whiteSpace=wrap;html=1;" vertex="1" parent="1">
          <mxGeometry x="120" y="835" width="70" height="50" as="geometry" />
        </mxCell>
        <mxCell id="2b92ZgBnTiT7di_fK2Un-101" value="" style="endArrow=none;html=1;rounded=0;exitX=1;exitY=0.5;exitDx=0;exitDy=0;entryX=0;entryY=0.5;entryDx=0;entryDy=0;" edge="1" parent="1" source="2b92ZgBnTiT7di_fK2Un-100" target="2b92ZgBnTiT7di_fK2Un-68">
          <mxGeometry width="50" height="50" relative="1" as="geometry">
            <mxPoint x="450" y="970" as="sourcePoint" />
            <mxPoint x="500" y="920" as="targetPoint" />
          </mxGeometry>
        </mxCell>
        <mxCell id="2b92ZgBnTiT7di_fK2Un-102" value="nombreBanco" style="ellipse;whiteSpace=wrap;html=1;" vertex="1" parent="1">
          <mxGeometry x="390" y="840" width="86" height="50" as="geometry" />
        </mxCell>
        <mxCell id="2b92ZgBnTiT7di_fK2Un-104" value="" style="endArrow=none;html=1;rounded=0;entryX=0;entryY=0.5;entryDx=0;entryDy=0;" edge="1" parent="1" target="2b92ZgBnTiT7di_fK2Un-102">
          <mxGeometry width="50" height="50" relative="1" as="geometry">
            <mxPoint x="350" y="865" as="sourcePoint" />
            <mxPoint x="240" y="870" as="targetPoint" />
          </mxGeometry>
        </mxCell>
        <mxCell id="2b92ZgBnTiT7di_fK2Un-105" value="&lt;b data-sider-select-id=&quot;694bb381-1f7e-4815-80d9-c35dcc9006e5&quot;&gt;&lt;u data-sider-select-id=&quot;7d5a8feb-94d6-4b1f-9e1a-0110b242c63b&quot;&gt;idOperacion&lt;/u&gt;&lt;/b&gt;" style="ellipse;whiteSpace=wrap;html=1;" vertex="1" parent="1">
          <mxGeometry x="510" y="525" width="80" height="55" as="geometry" />
        </mxCell>
        <mxCell id="2b92ZgBnTiT7di_fK2Un-106" value="idCuentaOrigen" style="ellipse;whiteSpace=wrap;html=1;" vertex="1" parent="1">
          <mxGeometry x="669.5" y="490" width="90" height="45" as="geometry" />
        </mxCell>
        <mxCell id="2b92ZgBnTiT7di_fK2Un-107" value="idCuentaDestino" style="ellipse;whiteSpace=wrap;html=1;" vertex="1" parent="1">
          <mxGeometry x="747" y="517.5" width="90" height="45" as="geometry" />
        </mxCell>
        <mxCell id="2b92ZgBnTiT7di_fK2Un-109" value="&lt;b data-sider-select-id=&quot;694bb381-1f7e-4815-80d9-c35dcc9006e5&quot;&gt;&lt;span data-sider-select-id=&quot;7d5a8feb-94d6-4b1f-9e1a-0110b242c63b&quot;&gt;tipoOperacion&lt;/span&gt;&lt;/b&gt;" style="ellipse;whiteSpace=wrap;html=1;" vertex="1" parent="1">
          <mxGeometry x="580" y="485" width="80" height="60" as="geometry" />
        </mxCell>
        <mxCell id="2b92ZgBnTiT7di_fK2Un-110" value="transferencia" style="ellipse;whiteSpace=wrap;html=1;" vertex="1" parent="1">
          <mxGeometry x="500" y="446.21000000000004" width="80" height="40" as="geometry" />
        </mxCell>
        <mxCell id="2b92ZgBnTiT7di_fK2Un-111" value="pagoServicio" style="ellipse;whiteSpace=wrap;html=1;" vertex="1" parent="1">
          <mxGeometry x="580" y="436.21000000000004" width="80" height="40" as="geometry" />
        </mxCell>
        <mxCell id="2b92ZgBnTiT7di_fK2Un-112" value="pagos" style="ellipse;whiteSpace=wrap;html=1;" vertex="1" parent="1">
          <mxGeometry x="660" y="435" width="80" height="40" as="geometry" />
        </mxCell>
        <mxCell id="2b92ZgBnTiT7di_fK2Un-113" value="" style="endArrow=none;html=1;rounded=0;entryX=1;entryY=1;entryDx=0;entryDy=0;exitX=0;exitY=0;exitDx=0;exitDy=0;" edge="1" parent="1" target="2b92ZgBnTiT7di_fK2Un-110">
          <mxGeometry width="50" height="50" relative="1" as="geometry">
            <mxPoint x="591.7157287525379" y="494.99679656440344" as="sourcePoint" />
            <mxPoint x="660" y="586.21" as="targetPoint" />
          </mxGeometry>
        </mxCell>
        <mxCell id="2b92ZgBnTiT7di_fK2Un-114" value="" style="endArrow=none;html=1;rounded=0;entryX=0.5;entryY=1;entryDx=0;entryDy=0;exitX=0.5;exitY=0;exitDx=0;exitDy=0;" edge="1" parent="1" target="2b92ZgBnTiT7di_fK2Un-111">
          <mxGeometry width="50" height="50" relative="1" as="geometry">
            <mxPoint x="620" y="486.21000000000004" as="sourcePoint" />
            <mxPoint x="578" y="490.21000000000004" as="targetPoint" />
          </mxGeometry>
        </mxCell>
        <mxCell id="2b92ZgBnTiT7di_fK2Un-115" value="" style="endArrow=none;html=1;rounded=0;entryX=0;entryY=1;entryDx=0;entryDy=0;exitX=1;exitY=0;exitDx=0;exitDy=0;" edge="1" parent="1">
          <mxGeometry width="50" height="50" relative="1" as="geometry">
            <mxPoint x="648.2842712474621" y="494.99679656440344" as="sourcePoint" />
            <mxPoint x="671.7157287525379" y="470.3521356237311" as="targetPoint" />
          </mxGeometry>
        </mxCell>
        <mxCell id="2b92ZgBnTiT7di_fK2Un-117" value="&lt;b data-sider-select-id=&quot;694bb381-1f7e-4815-80d9-c35dcc9006e5&quot;&gt;&lt;span data-sider-select-id=&quot;7d5a8feb-94d6-4b1f-9e1a-0110b242c63b&quot;&gt;descripcion&lt;/span&gt;&lt;/b&gt;" style="ellipse;whiteSpace=wrap;html=1;" vertex="1" parent="1">
          <mxGeometry x="767" y="630" width="70" height="55" as="geometry" />
        </mxCell>
        <mxCell id="2b92ZgBnTiT7di_fK2Un-118" value="&lt;b data-sider-select-id=&quot;694bb381-1f7e-4815-80d9-c35dcc9006e5&quot;&gt;&lt;span data-sider-select-id=&quot;7d5a8feb-94d6-4b1f-9e1a-0110b242c63b&quot;&gt;monto&lt;/span&gt;&lt;/b&gt;" style="ellipse;whiteSpace=wrap;html=1;" vertex="1" parent="1">
          <mxGeometry x="780" y="565" width="70" height="55" as="geometry" />
        </mxCell>
        <mxCell id="2b92ZgBnTiT7di_fK2Un-119" value="" style="endArrow=none;html=1;rounded=0;entryX=1;entryY=1;entryDx=0;entryDy=0;exitX=0;exitY=0;exitDx=0;exitDy=0;" edge="1" parent="1" source="2b92ZgBnTiT7di_fK2Un-73" target="2b92ZgBnTiT7di_fK2Un-105">
          <mxGeometry width="50" height="50" relative="1" as="geometry">
            <mxPoint x="590" y="610" as="sourcePoint" />
            <mxPoint x="610" y="570" as="targetPoint" />
          </mxGeometry>
        </mxCell>
        <mxCell id="2b92ZgBnTiT7di_fK2Un-120" value="" style="endArrow=none;html=1;rounded=0;entryX=0.5;entryY=1;entryDx=0;entryDy=0;exitX=0.5;exitY=0;exitDx=0;exitDy=0;" edge="1" parent="1" source="2b92ZgBnTiT7di_fK2Un-73" target="2b92ZgBnTiT7di_fK2Un-109">
          <mxGeometry width="50" height="50" relative="1" as="geometry">
            <mxPoint x="390" y="700" as="sourcePoint" />
            <mxPoint x="440" y="650" as="targetPoint" />
          </mxGeometry>
        </mxCell>
        <mxCell id="2b92ZgBnTiT7di_fK2Un-121" value="" style="endArrow=none;html=1;rounded=0;entryX=0.5;entryY=1;entryDx=0;entryDy=0;exitX=0.683;exitY=0.017;exitDx=0;exitDy=0;exitPerimeter=0;" edge="1" parent="1" source="2b92ZgBnTiT7di_fK2Un-73" target="2b92ZgBnTiT7di_fK2Un-106">
          <mxGeometry width="50" height="50" relative="1" as="geometry">
            <mxPoint x="390" y="700" as="sourcePoint" />
            <mxPoint x="440" y="650" as="targetPoint" />
          </mxGeometry>
        </mxCell>
        <mxCell id="2b92ZgBnTiT7di_fK2Un-122" value="" style="endArrow=none;html=1;rounded=0;entryX=0;entryY=1;entryDx=0;entryDy=0;exitX=1;exitY=0;exitDx=0;exitDy=0;" edge="1" parent="1" source="2b92ZgBnTiT7di_fK2Un-73" target="2b92ZgBnTiT7di_fK2Un-107">
          <mxGeometry width="50" height="50" relative="1" as="geometry">
            <mxPoint x="340" y="540" as="sourcePoint" />
            <mxPoint x="390" y="490" as="targetPoint" />
          </mxGeometry>
        </mxCell>
        <mxCell id="2b92ZgBnTiT7di_fK2Un-124" value="" style="endArrow=none;html=1;rounded=0;entryX=0;entryY=1;entryDx=0;entryDy=0;exitX=1;exitY=0.5;exitDx=0;exitDy=0;" edge="1" parent="1" source="2b92ZgBnTiT7di_fK2Un-73" target="2b92ZgBnTiT7di_fK2Un-118">
          <mxGeometry width="50" height="50" relative="1" as="geometry">
            <mxPoint x="340" y="540" as="sourcePoint" />
            <mxPoint x="390" y="490" as="targetPoint" />
          </mxGeometry>
        </mxCell>
        <mxCell id="2b92ZgBnTiT7di_fK2Un-127" value="" style="endArrow=none;html=1;rounded=0;entryX=0;entryY=0.5;entryDx=0;entryDy=0;exitX=1;exitY=0.75;exitDx=0;exitDy=0;" edge="1" parent="1" source="2b92ZgBnTiT7di_fK2Un-73" target="2b92ZgBnTiT7di_fK2Un-117">
          <mxGeometry width="50" height="50" relative="1" as="geometry">
            <mxPoint x="370" y="690" as="sourcePoint" />
            <mxPoint x="420" y="640" as="targetPoint" />
          </mxGeometry>
        </mxCell>
        <mxCell id="2b92ZgBnTiT7di_fK2Un-128" value="1" style="text;html=1;align=center;verticalAlign=middle;resizable=0;points=[];autosize=1;strokeColor=none;fillColor=none;" vertex="1" parent="1">
          <mxGeometry x="433" y="590" width="30" height="30" as="geometry" />
        </mxCell>
        <mxCell id="2b92ZgBnTiT7di_fK2Un-129" value="n" style="text;html=1;align=center;verticalAlign=middle;resizable=0;points=[];autosize=1;strokeColor=none;fillColor=none;" vertex="1" parent="1">
          <mxGeometry x="486" y="590" width="30" height="30" as="geometry" />
        </mxCell>
        <mxCell id="2b92ZgBnTiT7di_fK2Un-130" value="&lt;h2&gt;&lt;b data-sider-select-id=&quot;7e18d905-560b-4734-9866-bc5d503d5bd9&quot;&gt;&lt;u data-sider-select-id=&quot;c18a0175-fe8d-413f-964b-1855cf0d83a1&quot;&gt;Tercera Forma normal: eliminar dependencias transitivas, todos los campos deben depender de su PK&lt;/u&gt;&lt;/b&gt;&lt;/h2&gt;" style="text;html=1;align=center;verticalAlign=middle;whiteSpace=wrap;rounded=0;" vertex="1" parent="1">
          <mxGeometry x="25.5" y="950" width="529" height="30" as="geometry" />
        </mxCell>
        <mxCell id="2b92ZgBnTiT7di_fK2Un-132" value="cliente" style="rounded=0;whiteSpace=wrap;html=1;" vertex="1" parent="1">
          <mxGeometry x="-100" y="1200" width="120" height="60" as="geometry" />
        </mxCell>
        <mxCell id="2b92ZgBnTiT7di_fK2Un-133" value="&lt;b data-sider-select-id=&quot;694bb381-1f7e-4815-80d9-c35dcc9006e5&quot;&gt;&lt;u data-sider-select-id=&quot;7d5a8feb-94d6-4b1f-9e1a-0110b242c63b&quot;&gt;idClente&lt;/u&gt;&lt;/b&gt;" style="ellipse;whiteSpace=wrap;html=1;" vertex="1" parent="1">
          <mxGeometry x="-180" y="1150" width="60" height="50" as="geometry" />
        </mxCell>
        <mxCell id="2b92ZgBnTiT7di_fK2Un-134" value="nombre" style="ellipse;whiteSpace=wrap;html=1;" vertex="1" parent="1">
          <mxGeometry x="-150" y="1110" width="60" height="50" as="geometry" />
        </mxCell>
        <mxCell id="2b92ZgBnTiT7di_fK2Un-135" value="apellido" style="ellipse;whiteSpace=wrap;html=1;" vertex="1" parent="1">
          <mxGeometry x="-100" y="1080" width="60" height="50" as="geometry" />
        </mxCell>
        <mxCell id="2b92ZgBnTiT7di_fK2Un-136" value="cuil" style="ellipse;whiteSpace=wrap;html=1;" vertex="1" parent="1">
          <mxGeometry x="-42" y="1090" width="60" height="50" as="geometry" />
        </mxCell>
        <mxCell id="2b92ZgBnTiT7di_fK2Un-137" value="tipoTelefono" style="ellipse;whiteSpace=wrap;html=1;" vertex="1" parent="1">
          <mxGeometry x="-70" y="1540" width="72" height="50" as="geometry" />
        </mxCell>
        <mxCell id="2b92ZgBnTiT7di_fK2Un-138" value="nroTelefono" style="ellipse;whiteSpace=wrap;html=1;direction=south;" vertex="1" parent="1">
          <mxGeometry x="-164" y="1530" width="71" height="55" as="geometry" />
        </mxCell>
        <mxCell id="2b92ZgBnTiT7di_fK2Un-139" value="" style="endArrow=none;html=1;rounded=0;entryX=0.091;entryY=0.282;entryDx=0;entryDy=0;exitX=0.25;exitY=1;exitDx=0;exitDy=0;entryPerimeter=0;" edge="1" parent="1" source="2b92ZgBnTiT7di_fK2Un-203" target="2b92ZgBnTiT7di_fK2Un-138">
          <mxGeometry width="50" height="50" relative="1" as="geometry">
            <mxPoint x="340" y="1170" as="sourcePoint" />
            <mxPoint x="390" y="1120" as="targetPoint" />
          </mxGeometry>
        </mxCell>
        <mxCell id="2b92ZgBnTiT7di_fK2Un-140" value="" style="endArrow=none;html=1;rounded=0;entryX=0.5;entryY=0;entryDx=0;entryDy=0;exitX=0.75;exitY=1;exitDx=0;exitDy=0;" edge="1" parent="1" source="2b92ZgBnTiT7di_fK2Un-203" target="2b92ZgBnTiT7di_fK2Un-137">
          <mxGeometry width="50" height="50" relative="1" as="geometry">
            <mxPoint x="30" y="1225" as="sourcePoint" />
            <mxPoint x="49" y="1207" as="targetPoint" />
          </mxGeometry>
        </mxCell>
        <mxCell id="2b92ZgBnTiT7di_fK2Un-141" value="" style="endArrow=none;html=1;rounded=0;entryX=0.5;entryY=1;entryDx=0;entryDy=0;exitX=0.633;exitY=0.033;exitDx=0;exitDy=0;exitPerimeter=0;" edge="1" parent="1" source="2b92ZgBnTiT7di_fK2Un-132" target="2b92ZgBnTiT7di_fK2Un-136">
          <mxGeometry width="50" height="50" relative="1" as="geometry">
            <mxPoint x="-20" y="1180" as="sourcePoint" />
            <mxPoint x="39" y="1153" as="targetPoint" />
          </mxGeometry>
        </mxCell>
        <mxCell id="2b92ZgBnTiT7di_fK2Un-142" value="" style="endArrow=none;html=1;rounded=0;entryX=0.5;entryY=1;entryDx=0;entryDy=0;exitX=0.5;exitY=0;exitDx=0;exitDy=0;" edge="1" parent="1" source="2b92ZgBnTiT7di_fK2Un-132" target="2b92ZgBnTiT7di_fK2Un-135">
          <mxGeometry width="50" height="50" relative="1" as="geometry">
            <mxPoint x="-14" y="1212" as="sourcePoint" />
            <mxPoint x="-2" y="1150" as="targetPoint" />
          </mxGeometry>
        </mxCell>
        <mxCell id="2b92ZgBnTiT7di_fK2Un-143" value="" style="endArrow=none;html=1;rounded=0;exitX=0.25;exitY=0;exitDx=0;exitDy=0;" edge="1" parent="1" source="2b92ZgBnTiT7di_fK2Un-132">
          <mxGeometry width="50" height="50" relative="1" as="geometry">
            <mxPoint x="-30" y="1210" as="sourcePoint" />
            <mxPoint x="-100" y="1150" as="targetPoint" />
          </mxGeometry>
        </mxCell>
        <mxCell id="2b92ZgBnTiT7di_fK2Un-144" value="" style="endArrow=none;html=1;rounded=0;exitX=1;exitY=1;exitDx=0;exitDy=0;entryX=0;entryY=0;entryDx=0;entryDy=0;" edge="1" parent="1" source="2b92ZgBnTiT7di_fK2Un-133" target="2b92ZgBnTiT7di_fK2Un-132">
          <mxGeometry width="50" height="50" relative="1" as="geometry">
            <mxPoint x="340" y="1170" as="sourcePoint" />
            <mxPoint x="390" y="1120" as="targetPoint" />
          </mxGeometry>
        </mxCell>
        <mxCell id="2b92ZgBnTiT7di_fK2Un-145" value="cuenta" style="rounded=0;whiteSpace=wrap;html=1;" vertex="1" parent="1">
          <mxGeometry x="260" y="1200" width="120" height="60" as="geometry" />
        </mxCell>
        <mxCell id="2b92ZgBnTiT7di_fK2Un-146" value="posee" style="rhombus;whiteSpace=wrap;html=1;" vertex="1" parent="1">
          <mxGeometry x="110" y="1190" width="80" height="80" as="geometry" />
        </mxCell>
        <mxCell id="2b92ZgBnTiT7di_fK2Un-147" value="" style="endArrow=none;html=1;rounded=0;exitX=1;exitY=0.5;exitDx=0;exitDy=0;entryX=0;entryY=0.5;entryDx=0;entryDy=0;" edge="1" parent="1" source="2b92ZgBnTiT7di_fK2Un-132" target="2b92ZgBnTiT7di_fK2Un-146">
          <mxGeometry width="50" height="50" relative="1" as="geometry">
            <mxPoint x="350" y="1315" as="sourcePoint" />
            <mxPoint x="400" y="1265" as="targetPoint" />
          </mxGeometry>
        </mxCell>
        <mxCell id="2b92ZgBnTiT7di_fK2Un-148" value="" style="endArrow=none;html=1;rounded=0;exitX=1;exitY=0.5;exitDx=0;exitDy=0;entryX=0;entryY=0.5;entryDx=0;entryDy=0;" edge="1" parent="1" source="2b92ZgBnTiT7di_fK2Un-146" target="2b92ZgBnTiT7di_fK2Un-145">
          <mxGeometry width="50" height="50" relative="1" as="geometry">
            <mxPoint x="350" y="1315" as="sourcePoint" />
            <mxPoint x="400" y="1265" as="targetPoint" />
          </mxGeometry>
        </mxCell>
        <mxCell id="2b92ZgBnTiT7di_fK2Un-149" value="banco" style="rounded=0;whiteSpace=wrap;html=1;" vertex="1" parent="1">
          <mxGeometry x="260" y="1415" width="120" height="60" as="geometry" />
        </mxCell>
        <mxCell id="2b92ZgBnTiT7di_fK2Un-150" value="se asocia" style="rhombus;whiteSpace=wrap;html=1;" vertex="1" parent="1">
          <mxGeometry x="280" y="1295" width="80" height="80" as="geometry" />
        </mxCell>
        <mxCell id="2b92ZgBnTiT7di_fK2Un-151" value="" style="endArrow=none;html=1;rounded=0;exitX=0.5;exitY=1;exitDx=0;exitDy=0;entryX=0.5;entryY=0;entryDx=0;entryDy=0;" edge="1" parent="1" source="2b92ZgBnTiT7di_fK2Un-145" target="2b92ZgBnTiT7di_fK2Un-150">
          <mxGeometry width="50" height="50" relative="1" as="geometry">
            <mxPoint x="350" y="1315" as="sourcePoint" />
            <mxPoint x="400" y="1265" as="targetPoint" />
          </mxGeometry>
        </mxCell>
        <mxCell id="2b92ZgBnTiT7di_fK2Un-152" value="" style="endArrow=none;html=1;rounded=0;exitX=0.5;exitY=1;exitDx=0;exitDy=0;" edge="1" parent="1" source="2b92ZgBnTiT7di_fK2Un-150">
          <mxGeometry width="50" height="50" relative="1" as="geometry">
            <mxPoint x="350" y="1315" as="sourcePoint" />
            <mxPoint x="320" y="1415" as="targetPoint" />
          </mxGeometry>
        </mxCell>
        <mxCell id="2b92ZgBnTiT7di_fK2Un-153" value="operacion" style="rounded=0;whiteSpace=wrap;html=1;" vertex="1" parent="1">
          <mxGeometry x="620" y="1200" width="120" height="60" as="geometry" />
        </mxCell>
        <mxCell id="2b92ZgBnTiT7di_fK2Un-154" value="realiza" style="rhombus;whiteSpace=wrap;html=1;" vertex="1" parent="1">
          <mxGeometry x="466" y="1190" width="80" height="80" as="geometry" />
        </mxCell>
        <mxCell id="2b92ZgBnTiT7di_fK2Un-155" value="" style="endArrow=none;html=1;rounded=0;exitX=1;exitY=0.5;exitDx=0;exitDy=0;entryX=0;entryY=0.5;entryDx=0;entryDy=0;" edge="1" parent="1" source="2b92ZgBnTiT7di_fK2Un-145" target="2b92ZgBnTiT7di_fK2Un-154">
          <mxGeometry width="50" height="50" relative="1" as="geometry">
            <mxPoint x="410" y="1215" as="sourcePoint" />
            <mxPoint x="460" y="1165" as="targetPoint" />
          </mxGeometry>
        </mxCell>
        <mxCell id="2b92ZgBnTiT7di_fK2Un-156" value="" style="endArrow=none;html=1;rounded=0;exitX=1;exitY=0.5;exitDx=0;exitDy=0;entryX=0;entryY=0.5;entryDx=0;entryDy=0;" edge="1" parent="1" source="2b92ZgBnTiT7di_fK2Un-154" target="2b92ZgBnTiT7di_fK2Un-153">
          <mxGeometry width="50" height="50" relative="1" as="geometry">
            <mxPoint x="390" y="1240" as="sourcePoint" />
            <mxPoint x="476" y="1240" as="targetPoint" />
          </mxGeometry>
        </mxCell>
        <mxCell id="2b92ZgBnTiT7di_fK2Un-157" value="1" style="text;html=1;align=center;verticalAlign=middle;resizable=0;points=[];autosize=1;strokeColor=none;fillColor=none;" vertex="1" parent="1">
          <mxGeometry x="109" y="1185" width="30" height="30" as="geometry" />
        </mxCell>
        <mxCell id="2b92ZgBnTiT7di_fK2Un-158" value="n" style="text;html=1;align=center;verticalAlign=middle;resizable=0;points=[];autosize=1;strokeColor=none;fillColor=none;" vertex="1" parent="1">
          <mxGeometry x="160" y="1185" width="30" height="30" as="geometry" />
        </mxCell>
        <mxCell id="2b92ZgBnTiT7di_fK2Un-159" value="&lt;b data-sider-select-id=&quot;694bb381-1f7e-4815-80d9-c35dcc9006e5&quot;&gt;&lt;u data-sider-select-id=&quot;7d5a8feb-94d6-4b1f-9e1a-0110b242c63b&quot;&gt;idCuenta&lt;/u&gt;&lt;/b&gt;" style="ellipse;whiteSpace=wrap;html=1;" vertex="1" parent="1">
          <mxGeometry x="170" y="1135" width="70" height="50" as="geometry" />
        </mxCell>
        <mxCell id="2b92ZgBnTiT7di_fK2Un-160" value="&lt;span data-sider-select-id=&quot;5589a6d4-5449-4d33-9e75-af03decc7970&quot;&gt;&lt;span style=&quot;&quot; data-sider-select-id=&quot;651b7d50-e4bc-4127-bce9-9c663c117c42&quot;&gt;idClente&lt;/span&gt;&lt;/span&gt;" style="ellipse;whiteSpace=wrap;html=1;" vertex="1" parent="1">
          <mxGeometry x="170" y="1080" width="70" height="45" as="geometry" />
        </mxCell>
        <mxCell id="2b92ZgBnTiT7di_fK2Un-161" value="nroCuenta" style="ellipse;whiteSpace=wrap;html=1;" vertex="1" parent="1">
          <mxGeometry x="293.5" y="1075" width="70" height="45" as="geometry" />
        </mxCell>
        <mxCell id="2b92ZgBnTiT7di_fK2Un-162" value="tipoCuenta" style="ellipse;whiteSpace=wrap;html=1;" vertex="1" parent="1">
          <mxGeometry x="370" y="1125" width="65.5" height="45" as="geometry" />
        </mxCell>
        <mxCell id="2b92ZgBnTiT7di_fK2Un-163" value="CC" style="ellipse;whiteSpace=wrap;html=1;" vertex="1" parent="1">
          <mxGeometry x="345" y="1045" width="56" height="35" as="geometry" />
        </mxCell>
        <mxCell id="2b92ZgBnTiT7di_fK2Un-164" value="CA" style="ellipse;whiteSpace=wrap;html=1;" vertex="1" parent="1">
          <mxGeometry x="404" y="1050" width="56" height="35" as="geometry" />
        </mxCell>
        <mxCell id="2b92ZgBnTiT7di_fK2Un-165" value="CVU" style="ellipse;whiteSpace=wrap;html=1;" vertex="1" parent="1">
          <mxGeometry x="450" y="1080" width="56" height="35" as="geometry" />
        </mxCell>
        <mxCell id="2b92ZgBnTiT7di_fK2Un-166" value="CBU" style="ellipse;whiteSpace=wrap;html=1;" vertex="1" parent="1">
          <mxGeometry x="460" y="1125" width="56" height="35" as="geometry" />
        </mxCell>
        <mxCell id="2b92ZgBnTiT7di_fK2Un-167" value="" style="endArrow=none;html=1;rounded=0;entryX=0.5;entryY=1;entryDx=0;entryDy=0;exitX=0;exitY=0;exitDx=0;exitDy=0;" edge="1" parent="1" source="2b92ZgBnTiT7di_fK2Un-162" target="2b92ZgBnTiT7di_fK2Un-163">
          <mxGeometry width="50" height="50" relative="1" as="geometry">
            <mxPoint x="440" y="1165" as="sourcePoint" />
            <mxPoint x="490" y="1115" as="targetPoint" />
          </mxGeometry>
        </mxCell>
        <mxCell id="2b92ZgBnTiT7di_fK2Un-168" value="" style="endArrow=none;html=1;rounded=0;exitX=0.5;exitY=0;exitDx=0;exitDy=0;entryX=0.5;entryY=1;entryDx=0;entryDy=0;" edge="1" parent="1" source="2b92ZgBnTiT7di_fK2Un-162" target="2b92ZgBnTiT7di_fK2Un-164">
          <mxGeometry width="50" height="50" relative="1" as="geometry">
            <mxPoint x="347" y="1117" as="sourcePoint" />
            <mxPoint x="380" y="1075" as="targetPoint" />
          </mxGeometry>
        </mxCell>
        <mxCell id="2b92ZgBnTiT7di_fK2Un-169" value="" style="endArrow=none;html=1;rounded=0;entryX=0;entryY=1;entryDx=0;entryDy=0;exitX=0.729;exitY=0.089;exitDx=0;exitDy=0;exitPerimeter=0;" edge="1" parent="1" source="2b92ZgBnTiT7di_fK2Un-162" target="2b92ZgBnTiT7di_fK2Un-165">
          <mxGeometry width="50" height="50" relative="1" as="geometry">
            <mxPoint x="380" y="1105" as="sourcePoint" />
            <mxPoint x="381" y="1090" as="targetPoint" />
          </mxGeometry>
        </mxCell>
        <mxCell id="2b92ZgBnTiT7di_fK2Un-170" value="" style="endArrow=none;html=1;rounded=0;entryX=0;entryY=0.5;entryDx=0;entryDy=0;exitX=1;exitY=0.5;exitDx=0;exitDy=0;" edge="1" parent="1" source="2b92ZgBnTiT7di_fK2Un-162" target="2b92ZgBnTiT7di_fK2Un-166">
          <mxGeometry width="50" height="50" relative="1" as="geometry">
            <mxPoint x="390" y="1115" as="sourcePoint" />
            <mxPoint x="420" y="1103" as="targetPoint" />
          </mxGeometry>
        </mxCell>
        <mxCell id="2b92ZgBnTiT7di_fK2Un-171" value="" style="endArrow=none;html=1;rounded=0;exitX=0.75;exitY=0;exitDx=0;exitDy=0;entryX=0;entryY=1;entryDx=0;entryDy=0;" edge="1" parent="1" source="2b92ZgBnTiT7di_fK2Un-145" target="2b92ZgBnTiT7di_fK2Un-162">
          <mxGeometry width="50" height="50" relative="1" as="geometry">
            <mxPoint x="440" y="1165" as="sourcePoint" />
            <mxPoint x="490" y="1115" as="targetPoint" />
          </mxGeometry>
        </mxCell>
        <mxCell id="2b92ZgBnTiT7di_fK2Un-172" value="" style="endArrow=none;html=1;rounded=0;entryX=0.5;entryY=1;entryDx=0;entryDy=0;exitX=0.5;exitY=0;exitDx=0;exitDy=0;" edge="1" parent="1" source="2b92ZgBnTiT7di_fK2Un-145" target="2b92ZgBnTiT7di_fK2Un-161">
          <mxGeometry width="50" height="50" relative="1" as="geometry">
            <mxPoint x="440" y="1165" as="sourcePoint" />
            <mxPoint x="490" y="1115" as="targetPoint" />
          </mxGeometry>
        </mxCell>
        <mxCell id="2b92ZgBnTiT7di_fK2Un-173" value="" style="endArrow=none;html=1;rounded=0;exitX=0.25;exitY=0;exitDx=0;exitDy=0;entryX=1;entryY=1;entryDx=0;entryDy=0;" edge="1" parent="1" source="2b92ZgBnTiT7di_fK2Un-145" target="2b92ZgBnTiT7di_fK2Un-160">
          <mxGeometry width="50" height="50" relative="1" as="geometry">
            <mxPoint x="440" y="1165" as="sourcePoint" />
            <mxPoint x="240" y="1125" as="targetPoint" />
          </mxGeometry>
        </mxCell>
        <mxCell id="2b92ZgBnTiT7di_fK2Un-174" value="" style="endArrow=none;html=1;rounded=0;exitX=1;exitY=1;exitDx=0;exitDy=0;entryX=0;entryY=0;entryDx=0;entryDy=0;" edge="1" parent="1" source="2b92ZgBnTiT7di_fK2Un-159" target="2b92ZgBnTiT7di_fK2Un-145">
          <mxGeometry width="50" height="50" relative="1" as="geometry">
            <mxPoint x="440" y="1165" as="sourcePoint" />
            <mxPoint x="490" y="1115" as="targetPoint" />
          </mxGeometry>
        </mxCell>
        <mxCell id="2b92ZgBnTiT7di_fK2Un-175" value="idBanco" style="ellipse;whiteSpace=wrap;html=1;" vertex="1" parent="1">
          <mxGeometry x="230" y="1045" width="70" height="45" as="geometry" />
        </mxCell>
        <mxCell id="2b92ZgBnTiT7di_fK2Un-176" value="" style="endArrow=none;html=1;rounded=0;entryX=0.5;entryY=1;entryDx=0;entryDy=0;exitX=0.367;exitY=-0.017;exitDx=0;exitDy=0;exitPerimeter=0;" edge="1" parent="1" source="2b92ZgBnTiT7di_fK2Un-145" target="2b92ZgBnTiT7di_fK2Un-175">
          <mxGeometry width="50" height="50" relative="1" as="geometry">
            <mxPoint x="480" y="1145" as="sourcePoint" />
            <mxPoint x="530" y="1095" as="targetPoint" />
          </mxGeometry>
        </mxCell>
        <mxCell id="2b92ZgBnTiT7di_fK2Un-177" value="1" style="text;html=1;align=center;verticalAlign=middle;resizable=0;points=[];autosize=1;strokeColor=none;fillColor=none;" vertex="1" parent="1">
          <mxGeometry x="313.5" y="1375" width="30" height="30" as="geometry" />
        </mxCell>
        <mxCell id="2b92ZgBnTiT7di_fK2Un-178" value="n" style="text;html=1;align=center;verticalAlign=middle;resizable=0;points=[];autosize=1;strokeColor=none;fillColor=none;" vertex="1" parent="1">
          <mxGeometry x="313.5" y="1275" width="30" height="30" as="geometry" />
        </mxCell>
        <mxCell id="2b92ZgBnTiT7di_fK2Un-179" value="&lt;b data-sider-select-id=&quot;694bb381-1f7e-4815-80d9-c35dcc9006e5&quot;&gt;&lt;u data-sider-select-id=&quot;7d5a8feb-94d6-4b1f-9e1a-0110b242c63b&quot;&gt;idBanco&lt;/u&gt;&lt;/b&gt;" style="ellipse;whiteSpace=wrap;html=1;" vertex="1" parent="1">
          <mxGeometry x="150" y="1420" width="70" height="50" as="geometry" />
        </mxCell>
        <mxCell id="2b92ZgBnTiT7di_fK2Un-180" value="" style="endArrow=none;html=1;rounded=0;exitX=1;exitY=0.5;exitDx=0;exitDy=0;entryX=0;entryY=0.5;entryDx=0;entryDy=0;" edge="1" parent="1" source="2b92ZgBnTiT7di_fK2Un-179" target="2b92ZgBnTiT7di_fK2Un-149">
          <mxGeometry width="50" height="50" relative="1" as="geometry">
            <mxPoint x="480" y="1555" as="sourcePoint" />
            <mxPoint x="530" y="1505" as="targetPoint" />
          </mxGeometry>
        </mxCell>
        <mxCell id="2b92ZgBnTiT7di_fK2Un-181" value="nombreBanco" style="ellipse;whiteSpace=wrap;html=1;" vertex="1" parent="1">
          <mxGeometry x="420" y="1425" width="86" height="50" as="geometry" />
        </mxCell>
        <mxCell id="2b92ZgBnTiT7di_fK2Un-182" value="" style="endArrow=none;html=1;rounded=0;entryX=0;entryY=0.5;entryDx=0;entryDy=0;" edge="1" parent="1" target="2b92ZgBnTiT7di_fK2Un-181">
          <mxGeometry width="50" height="50" relative="1" as="geometry">
            <mxPoint x="380" y="1450" as="sourcePoint" />
            <mxPoint x="270" y="1455" as="targetPoint" />
          </mxGeometry>
        </mxCell>
        <mxCell id="2b92ZgBnTiT7di_fK2Un-183" value="&lt;b data-sider-select-id=&quot;694bb381-1f7e-4815-80d9-c35dcc9006e5&quot;&gt;&lt;u data-sider-select-id=&quot;7d5a8feb-94d6-4b1f-9e1a-0110b242c63b&quot;&gt;idOperacion&lt;/u&gt;&lt;/b&gt;" style="ellipse;whiteSpace=wrap;html=1;" vertex="1" parent="1">
          <mxGeometry x="540" y="1110" width="80" height="55" as="geometry" />
        </mxCell>
        <mxCell id="2b92ZgBnTiT7di_fK2Un-184" value="idCuentaOrigen" style="ellipse;whiteSpace=wrap;html=1;" vertex="1" parent="1">
          <mxGeometry x="699.5" y="1075" width="90" height="45" as="geometry" />
        </mxCell>
        <mxCell id="2b92ZgBnTiT7di_fK2Un-185" value="idCuentaDestino" style="ellipse;whiteSpace=wrap;html=1;" vertex="1" parent="1">
          <mxGeometry x="777" y="1102.5" width="90" height="45" as="geometry" />
        </mxCell>
        <mxCell id="2b92ZgBnTiT7di_fK2Un-186" value="&lt;b data-sider-select-id=&quot;694bb381-1f7e-4815-80d9-c35dcc9006e5&quot;&gt;&lt;span data-sider-select-id=&quot;7d5a8feb-94d6-4b1f-9e1a-0110b242c63b&quot;&gt;tipoOperacion&lt;/span&gt;&lt;/b&gt;" style="ellipse;whiteSpace=wrap;html=1;" vertex="1" parent="1">
          <mxGeometry x="610" y="1070" width="80" height="60" as="geometry" />
        </mxCell>
        <mxCell id="2b92ZgBnTiT7di_fK2Un-187" value="transferencia" style="ellipse;whiteSpace=wrap;html=1;" vertex="1" parent="1">
          <mxGeometry x="530" y="1031.21" width="80" height="40" as="geometry" />
        </mxCell>
        <mxCell id="2b92ZgBnTiT7di_fK2Un-188" value="pagoServicio" style="ellipse;whiteSpace=wrap;html=1;" vertex="1" parent="1">
          <mxGeometry x="610" y="1021.21" width="80" height="40" as="geometry" />
        </mxCell>
        <mxCell id="2b92ZgBnTiT7di_fK2Un-189" value="pagos" style="ellipse;whiteSpace=wrap;html=1;" vertex="1" parent="1">
          <mxGeometry x="690" y="1020" width="80" height="40" as="geometry" />
        </mxCell>
        <mxCell id="2b92ZgBnTiT7di_fK2Un-190" value="" style="endArrow=none;html=1;rounded=0;entryX=1;entryY=1;entryDx=0;entryDy=0;exitX=0;exitY=0;exitDx=0;exitDy=0;" edge="1" parent="1" target="2b92ZgBnTiT7di_fK2Un-187">
          <mxGeometry width="50" height="50" relative="1" as="geometry">
            <mxPoint x="621.7157287525379" y="1079.9967965644034" as="sourcePoint" />
            <mxPoint x="690" y="1171.21" as="targetPoint" />
          </mxGeometry>
        </mxCell>
        <mxCell id="2b92ZgBnTiT7di_fK2Un-191" value="" style="endArrow=none;html=1;rounded=0;entryX=0.5;entryY=1;entryDx=0;entryDy=0;exitX=0.5;exitY=0;exitDx=0;exitDy=0;" edge="1" parent="1" target="2b92ZgBnTiT7di_fK2Un-188">
          <mxGeometry width="50" height="50" relative="1" as="geometry">
            <mxPoint x="650" y="1071.21" as="sourcePoint" />
            <mxPoint x="608" y="1075.21" as="targetPoint" />
          </mxGeometry>
        </mxCell>
        <mxCell id="2b92ZgBnTiT7di_fK2Un-192" value="" style="endArrow=none;html=1;rounded=0;entryX=0;entryY=1;entryDx=0;entryDy=0;exitX=1;exitY=0;exitDx=0;exitDy=0;" edge="1" parent="1">
          <mxGeometry width="50" height="50" relative="1" as="geometry">
            <mxPoint x="678.2842712474621" y="1079.9967965644034" as="sourcePoint" />
            <mxPoint x="701.7157287525379" y="1055.352135623731" as="targetPoint" />
          </mxGeometry>
        </mxCell>
        <mxCell id="2b92ZgBnTiT7di_fK2Un-193" value="&lt;b data-sider-select-id=&quot;694bb381-1f7e-4815-80d9-c35dcc9006e5&quot;&gt;&lt;span data-sider-select-id=&quot;7d5a8feb-94d6-4b1f-9e1a-0110b242c63b&quot;&gt;descripcion&lt;/span&gt;&lt;/b&gt;" style="ellipse;whiteSpace=wrap;html=1;" vertex="1" parent="1">
          <mxGeometry x="797" y="1215" width="70" height="55" as="geometry" />
        </mxCell>
        <mxCell id="2b92ZgBnTiT7di_fK2Un-194" value="&lt;b data-sider-select-id=&quot;694bb381-1f7e-4815-80d9-c35dcc9006e5&quot;&gt;&lt;span data-sider-select-id=&quot;7d5a8feb-94d6-4b1f-9e1a-0110b242c63b&quot;&gt;monto&lt;/span&gt;&lt;/b&gt;" style="ellipse;whiteSpace=wrap;html=1;" vertex="1" parent="1">
          <mxGeometry x="810" y="1150" width="70" height="55" as="geometry" />
        </mxCell>
        <mxCell id="2b92ZgBnTiT7di_fK2Un-195" value="" style="endArrow=none;html=1;rounded=0;entryX=1;entryY=1;entryDx=0;entryDy=0;exitX=0;exitY=0;exitDx=0;exitDy=0;" edge="1" parent="1" source="2b92ZgBnTiT7di_fK2Un-153" target="2b92ZgBnTiT7di_fK2Un-183">
          <mxGeometry width="50" height="50" relative="1" as="geometry">
            <mxPoint x="620" y="1195" as="sourcePoint" />
            <mxPoint x="640" y="1155" as="targetPoint" />
          </mxGeometry>
        </mxCell>
        <mxCell id="2b92ZgBnTiT7di_fK2Un-196" value="" style="endArrow=none;html=1;rounded=0;entryX=0.5;entryY=1;entryDx=0;entryDy=0;exitX=0.5;exitY=0;exitDx=0;exitDy=0;" edge="1" parent="1" source="2b92ZgBnTiT7di_fK2Un-153" target="2b92ZgBnTiT7di_fK2Un-186">
          <mxGeometry width="50" height="50" relative="1" as="geometry">
            <mxPoint x="420" y="1285" as="sourcePoint" />
            <mxPoint x="470" y="1235" as="targetPoint" />
          </mxGeometry>
        </mxCell>
        <mxCell id="2b92ZgBnTiT7di_fK2Un-197" value="" style="endArrow=none;html=1;rounded=0;entryX=0.5;entryY=1;entryDx=0;entryDy=0;exitX=0.683;exitY=0.017;exitDx=0;exitDy=0;exitPerimeter=0;" edge="1" parent="1" source="2b92ZgBnTiT7di_fK2Un-153" target="2b92ZgBnTiT7di_fK2Un-184">
          <mxGeometry width="50" height="50" relative="1" as="geometry">
            <mxPoint x="420" y="1285" as="sourcePoint" />
            <mxPoint x="470" y="1235" as="targetPoint" />
          </mxGeometry>
        </mxCell>
        <mxCell id="2b92ZgBnTiT7di_fK2Un-198" value="" style="endArrow=none;html=1;rounded=0;entryX=0;entryY=1;entryDx=0;entryDy=0;exitX=1;exitY=0;exitDx=0;exitDy=0;" edge="1" parent="1" source="2b92ZgBnTiT7di_fK2Un-153" target="2b92ZgBnTiT7di_fK2Un-185">
          <mxGeometry width="50" height="50" relative="1" as="geometry">
            <mxPoint x="370" y="1125" as="sourcePoint" />
            <mxPoint x="420" y="1075" as="targetPoint" />
          </mxGeometry>
        </mxCell>
        <mxCell id="2b92ZgBnTiT7di_fK2Un-199" value="" style="endArrow=none;html=1;rounded=0;entryX=0;entryY=1;entryDx=0;entryDy=0;exitX=1;exitY=0.5;exitDx=0;exitDy=0;" edge="1" parent="1" source="2b92ZgBnTiT7di_fK2Un-153" target="2b92ZgBnTiT7di_fK2Un-194">
          <mxGeometry width="50" height="50" relative="1" as="geometry">
            <mxPoint x="370" y="1125" as="sourcePoint" />
            <mxPoint x="420" y="1075" as="targetPoint" />
          </mxGeometry>
        </mxCell>
        <mxCell id="2b92ZgBnTiT7di_fK2Un-200" value="" style="endArrow=none;html=1;rounded=0;entryX=0;entryY=0.5;entryDx=0;entryDy=0;exitX=1;exitY=0.75;exitDx=0;exitDy=0;" edge="1" parent="1" source="2b92ZgBnTiT7di_fK2Un-153" target="2b92ZgBnTiT7di_fK2Un-193">
          <mxGeometry width="50" height="50" relative="1" as="geometry">
            <mxPoint x="400" y="1275" as="sourcePoint" />
            <mxPoint x="450" y="1225" as="targetPoint" />
          </mxGeometry>
        </mxCell>
        <mxCell id="2b92ZgBnTiT7di_fK2Un-201" value="1" style="text;html=1;align=center;verticalAlign=middle;resizable=0;points=[];autosize=1;strokeColor=none;fillColor=none;" vertex="1" parent="1">
          <mxGeometry x="463" y="1175" width="30" height="30" as="geometry" />
        </mxCell>
        <mxCell id="2b92ZgBnTiT7di_fK2Un-202" value="n" style="text;html=1;align=center;verticalAlign=middle;resizable=0;points=[];autosize=1;strokeColor=none;fillColor=none;" vertex="1" parent="1">
          <mxGeometry x="516" y="1175" width="30" height="30" as="geometry" />
        </mxCell>
        <mxCell id="2b92ZgBnTiT7di_fK2Un-203" value="telefono" style="rounded=0;whiteSpace=wrap;html=1;" vertex="1" parent="1">
          <mxGeometry x="-106" y="1415" width="120" height="60" as="geometry" />
        </mxCell>
        <mxCell id="2b92ZgBnTiT7di_fK2Un-204" value="tiene" style="rhombus;whiteSpace=wrap;html=1;" vertex="1" parent="1">
          <mxGeometry x="-86" y="1295" width="80" height="80" as="geometry" />
        </mxCell>
        <mxCell id="2b92ZgBnTiT7di_fK2Un-205" value="" style="endArrow=none;html=1;rounded=0;exitX=0.5;exitY=1;exitDx=0;exitDy=0;entryX=0.5;entryY=0;entryDx=0;entryDy=0;" edge="1" parent="1" target="2b92ZgBnTiT7di_fK2Un-204">
          <mxGeometry width="50" height="50" relative="1" as="geometry">
            <mxPoint x="-46" y="1260" as="sourcePoint" />
            <mxPoint x="34" y="1265" as="targetPoint" />
          </mxGeometry>
        </mxCell>
        <mxCell id="2b92ZgBnTiT7di_fK2Un-206" value="" style="endArrow=none;html=1;rounded=0;exitX=0.5;exitY=1;exitDx=0;exitDy=0;" edge="1" parent="1" source="2b92ZgBnTiT7di_fK2Un-204">
          <mxGeometry width="50" height="50" relative="1" as="geometry">
            <mxPoint x="-16" y="1315" as="sourcePoint" />
            <mxPoint x="-46" y="1415" as="targetPoint" />
          </mxGeometry>
        </mxCell>
        <mxCell id="2b92ZgBnTiT7di_fK2Un-207" value="n" style="text;html=1;align=center;verticalAlign=middle;resizable=0;points=[];autosize=1;strokeColor=none;fillColor=none;" vertex="1" parent="1">
          <mxGeometry x="-52.5" y="1375" width="30" height="30" as="geometry" />
        </mxCell>
        <mxCell id="2b92ZgBnTiT7di_fK2Un-208" value="1" style="text;html=1;align=center;verticalAlign=middle;resizable=0;points=[];autosize=1;strokeColor=none;fillColor=none;" vertex="1" parent="1">
          <mxGeometry x="-52.5" y="1275" width="30" height="30" as="geometry" />
        </mxCell>
        <mxCell id="2b92ZgBnTiT7di_fK2Un-209" value="&lt;b data-sider-select-id=&quot;694bb381-1f7e-4815-80d9-c35dcc9006e5&quot;&gt;&lt;u data-sider-select-id=&quot;7d5a8feb-94d6-4b1f-9e1a-0110b242c63b&quot;&gt;idtelefono&lt;/u&gt;&lt;/b&gt;" style="ellipse;whiteSpace=wrap;html=1;" vertex="1" parent="1">
          <mxGeometry x="-216" y="1420" width="70" height="50" as="geometry" />
        </mxCell>
        <mxCell id="2b92ZgBnTiT7di_fK2Un-210" value="" style="endArrow=none;html=1;rounded=0;exitX=1;exitY=0.5;exitDx=0;exitDy=0;entryX=0;entryY=0.5;entryDx=0;entryDy=0;" edge="1" parent="1" source="2b92ZgBnTiT7di_fK2Un-209" target="2b92ZgBnTiT7di_fK2Un-203">
          <mxGeometry width="50" height="50" relative="1" as="geometry">
            <mxPoint x="114" y="1555" as="sourcePoint" />
            <mxPoint x="164" y="1505" as="targetPoint" />
          </mxGeometry>
        </mxCell>
        <mxCell id="2b92ZgBnTiT7di_fK2Un-211" value="idCliente" style="ellipse;whiteSpace=wrap;html=1;" vertex="1" parent="1">
          <mxGeometry x="-250" y="1475" width="86" height="50" as="geometry" />
        </mxCell>
        <mxCell id="2b92ZgBnTiT7di_fK2Un-212" value="" style="endArrow=none;html=1;rounded=0;exitX=0.008;exitY=0.867;exitDx=0;exitDy=0;exitPerimeter=0;entryX=1;entryY=0.5;entryDx=0;entryDy=0;" edge="1" parent="1" target="2b92ZgBnTiT7di_fK2Un-211" source="2b92ZgBnTiT7di_fK2Un-203">
          <mxGeometry width="50" height="50" relative="1" as="geometry">
            <mxPoint x="14" y="1450" as="sourcePoint" />
            <mxPoint x="-160" y="1490" as="targetPoint" />
          </mxGeometry>
        </mxCell>
      </root>
    </mxGraphModel>
  </diagram>
</mxfile>
